%TF.GenerationSoftware,KiCad,Pcbnew,7.0.9*%
%TF.CreationDate,2023-11-18T23:11:48+09:00*%
%TF.ProjectId,Top,546f702e-6b69-4636-9164-5f7063625858,rev?*%
%TF.SameCoordinates,Original*%
%TF.FileFunction,Profile,NP*%
%FSLAX46Y46*%
G04 Gerber Fmt 4.6, Leading zero omitted, Abs format (unit mm)*
G04 Created by KiCad (PCBNEW 7.0.9) date 2023-11-18 23:11:48*
%MOMM*%
%LPD*%
G01*
G04 APERTURE LIST*
%TA.AperFunction,Profile*%
%ADD10C,0.100000*%
%TD*%
%TA.AperFunction,Profile*%
%ADD11C,0.150000*%
%TD*%
G04 APERTURE END LIST*
D10*
X127000000Y-107950000D02*
X127000000Y-184150000D01*
X12700000Y-184150000D02*
X12700000Y-107950000D01*
X19050000Y-101600000D02*
X120650000Y-101600000D01*
X120650000Y-190500000D02*
G75*
G03*
X127000000Y-184150000I0J6350000D01*
G01*
X120650000Y-190500000D02*
X19050000Y-190500000D01*
X19050000Y-101600000D02*
G75*
G03*
X12700000Y-107950000I0J-6350000D01*
G01*
X12700000Y-184150000D02*
G75*
G03*
X19050000Y-190500000I6350000J0D01*
G01*
X127000000Y-107950000D02*
G75*
G03*
X120650000Y-101600000I-6350000J0D01*
G01*
D11*
%TO.C,SW1*%
X23906250Y-145162500D02*
X23906250Y-131062500D01*
X38006250Y-145162500D02*
X23906250Y-145162500D01*
X23906250Y-131062500D02*
X38006250Y-131062500D01*
X38006250Y-131062500D02*
X38006250Y-145162500D01*
%TO.C,SW6*%
X62006250Y-131062500D02*
X76106250Y-131062500D01*
X62006250Y-145162500D02*
X62006250Y-131062500D01*
X76106250Y-131062500D02*
X76106250Y-145162500D01*
X76106250Y-145162500D02*
X62006250Y-145162500D01*
%TO.C,SW3*%
X42956250Y-128681250D02*
X57056250Y-128681250D01*
X42956250Y-142781250D02*
X42956250Y-128681250D01*
X57056250Y-128681250D02*
X57056250Y-142781250D01*
X57056250Y-142781250D02*
X42956250Y-142781250D01*
%TO.C,SW2*%
X23906250Y-150112500D02*
X38006250Y-150112500D01*
X23906250Y-164212500D02*
X23906250Y-150112500D01*
X38006250Y-150112500D02*
X38006250Y-164212500D01*
X38006250Y-164212500D02*
X23906250Y-164212500D01*
%TO.C,SW7*%
X81056250Y-114393750D02*
X95156250Y-114393750D01*
X81056250Y-128493750D02*
X81056250Y-114393750D01*
X95156250Y-114393750D02*
X95156250Y-128493750D01*
X95156250Y-128493750D02*
X81056250Y-128493750D01*
%TO.C,SW9*%
X100106250Y-147731250D02*
X114206250Y-147731250D01*
X100106250Y-161831250D02*
X100106250Y-147731250D01*
X114206250Y-147731250D02*
X114206250Y-161831250D01*
X114206250Y-161831250D02*
X100106250Y-161831250D01*
%TO.C,SW4*%
X42956250Y-147731250D02*
X57056250Y-147731250D01*
X42956250Y-161831250D02*
X42956250Y-147731250D01*
X57056250Y-147731250D02*
X57056250Y-161831250D01*
X57056250Y-161831250D02*
X42956250Y-161831250D01*
%TO.C,SW8*%
X81056250Y-133443750D02*
X95156250Y-133443750D01*
X81056250Y-147543750D02*
X81056250Y-133443750D01*
X95156250Y-133443750D02*
X95156250Y-147543750D01*
X95156250Y-147543750D02*
X81056250Y-147543750D01*
%TO.C,SW10*%
X100106250Y-166781250D02*
X114206250Y-166781250D01*
X100106250Y-180881250D02*
X100106250Y-166781250D01*
X114206250Y-166781250D02*
X114206250Y-180881250D01*
X114206250Y-180881250D02*
X100106250Y-180881250D01*
%TO.C,SW5*%
X62006250Y-112012500D02*
X76106250Y-112012500D01*
X62006250Y-126112500D02*
X62006250Y-112012500D01*
X76106250Y-112012500D02*
X76106250Y-126112500D01*
X76106250Y-126112500D02*
X62006250Y-126112500D01*
%TD*%
M02*
