  0
SECTION
  2
HEADER
  9
$ACADVER
  1
AC1009
  9
$FILLMODE
 70
 0
  9
$SPLFRAME
 70
 1
  9
$EXTMIN
 10
0
 20
0
 30
0.0
  9
$EXTMAX
 10
1058.33
 20
1058.33
 30
0.0
  0
ENDSEC
  0
SECTION
  2
TABLES
  0
TABLE
  2
LAYER
 70
1
  0
LAYER
  2
0
 70
     0
 62
     7
  6
CONTINUOUS
  0
ENDTAB
  0
ENDSEC
  0
SECTION
  2
ENTITIES
  0
LINE
  8
0
 62
     0
 10
0.0950846
 20
84.2186
 30
0.0
 11
105.345
 21
84.2186
 31
0.0
  0
LINE
  8
0
 62
     0
 10
105.345
 20
84.2186
 30
0.0
 11
105.345
 21
0.304546
 31
0.0
  0
LINE
  8
0
 62
     0
 10
105.345
 20
0.304546
 30
0.0
 11
0.0950846
 21
0.304546
 31
0.0
  0
LINE
  8
0
 62
     0
 10
0.0950846
 20
0.304546
 30
0.0
 11
0.0950846
 21
84.2186
 31
0.0
  0
LINE
  8
0
 62
     0
 10
83.8193
 20
21.8309
 30
0.0
 11
97.82
 21
21.8309
 31
0.0
  0
LINE
  8
0
 62
     0
 10
97.82
 20
21.8309
 30
0.0
 11
97.82
 21
7.83001
 31
0.0
  0
LINE
  8
0
 62
     0
 10
97.82
 20
7.83001
 30
0.0
 11
83.8193
 21
7.83001
 31
0.0
  0
LINE
  8
0
 62
     0
 10
83.8193
 20
7.83001
 30
0.0
 11
83.8193
 21
21.8309
 31
0.0
  0
LINE
  8
0
 62
     0
 10
7.61919
 20
38.5946
 30
0.0
 11
21.6201
 21
38.5946
 31
0.0
  0
LINE
  8
0
 62
     0
 10
21.6201
 20
38.5946
 30
0.0
 11
21.6201
 21
24.5938
 31
0.0
  0
LINE
  8
0
 62
     0
 10
21.6201
 20
24.5938
 30
0.0
 11
7.61919
 21
24.5938
 31
0.0
  0
LINE
  8
0
 62
     0
 10
7.61919
 20
24.5938
 30
0.0
 11
7.61919
 21
38.5946
 31
0.0
  0
LINE
  8
0
 62
     0
 10
26.6692
 20
40.8809
 30
0.0
 11
40.67
 21
40.8809
 31
0.0
  0
LINE
  8
0
 62
     0
 10
40.67
 20
40.8809
 30
0.0
 11
40.67
 21
26.88
 31
0.0
  0
LINE
  8
0
 62
     0
 10
40.67
 20
26.88
 30
0.0
 11
26.6692
 21
26.88
 31
0.0
  0
LINE
  8
0
 62
     0
 10
26.6692
 20
26.88
 30
0.0
 11
26.6692
 21
40.8809
 31
0.0
  0
LINE
  8
0
 62
     0
 10
83.8193
 20
40.8809
 30
0.0
 11
97.82
 21
40.8809
 31
0.0
  0
LINE
  8
0
 62
     0
 10
97.82
 20
40.8809
 30
0.0
 11
97.82
 21
26.88
 31
0.0
  0
LINE
  8
0
 62
     0
 10
97.82
 20
26.88
 30
0.0
 11
83.8193
 21
26.88
 31
0.0
  0
LINE
  8
0
 62
     0
 10
83.8193
 20
26.88
 30
0.0
 11
83.8193
 21
40.8809
 31
0.0
  0
LINE
  8
0
 62
     0
 10
64.7693
 20
55.1684
 30
0.0
 11
78.77
 21
55.1684
 31
0.0
  0
LINE
  8
0
 62
     0
 10
78.77
 20
55.1684
 30
0.0
 11
78.77
 21
41.1688
 31
0.0
  0
LINE
  8
0
 62
     0
 10
78.77
 20
41.1688
 30
0.0
 11
64.7693
 21
41.1688
 31
0.0
  0
LINE
  8
0
 62
     0
 10
64.7693
 20
41.1688
 30
0.0
 11
64.7693
 21
55.1684
 31
0.0
  0
LINE
  8
0
 62
     0
 10
7.61919
 20
57.6446
 30
0.0
 11
21.6201
 21
57.6446
 31
0.0
  0
LINE
  8
0
 62
     0
 10
21.6201
 20
57.6446
 30
0.0
 11
21.6201
 21
43.6439
 31
0.0
  0
LINE
  8
0
 62
     0
 10
21.6201
 20
43.6439
 30
0.0
 11
7.61919
 21
43.6439
 31
0.0
  0
LINE
  8
0
 62
     0
 10
7.61919
 20
43.6439
 30
0.0
 11
7.61919
 21
57.6446
 31
0.0
  0
LINE
  8
0
 62
     0
 10
45.7193
 20
57.6446
 30
0.0
 11
59.72
 21
57.6446
 31
0.0
  0
LINE
  8
0
 62
     0
 10
59.72
 20
57.6446
 30
0.0
 11
59.72
 21
43.6439
 31
0.0
  0
LINE
  8
0
 62
     0
 10
59.72
 20
43.6439
 30
0.0
 11
45.7193
 21
43.6439
 31
0.0
  0
LINE
  8
0
 62
     0
 10
45.7193
 20
43.6439
 30
0.0
 11
45.7193
 21
57.6446
 31
0.0
  0
LINE
  8
0
 62
     0
 10
26.6692
 20
59.9309
 30
0.0
 11
40.67
 21
59.9309
 31
0.0
  0
LINE
  8
0
 62
     0
 10
40.67
 20
59.9309
 30
0.0
 11
40.67
 21
45.9299
 31
0.0
  0
LINE
  8
0
 62
     0
 10
40.67
 20
45.9299
 30
0.0
 11
26.6692
 21
45.9299
 31
0.0
  0
LINE
  8
0
 62
     0
 10
26.6692
 20
45.9299
 30
0.0
 11
26.6692
 21
59.9309
 31
0.0
  0
LINE
  8
0
 62
     0
 10
64.7693
 20
74.2184
 30
0.0
 11
78.77
 21
74.2184
 31
0.0
  0
LINE
  8
0
 62
     0
 10
78.77
 20
74.2184
 30
0.0
 11
78.77
 21
60.2188
 31
0.0
  0
LINE
  8
0
 62
     0
 10
78.77
 20
60.2188
 30
0.0
 11
64.7693
 21
60.2188
 31
0.0
  0
LINE
  8
0
 62
     0
 10
64.7693
 20
60.2188
 30
0.0
 11
64.7693
 21
74.2184
 31
0.0
  0
LINE
  8
0
 62
     0
 10
45.7193
 20
76.6946
 30
0.0
 11
59.72
 21
76.6946
 31
0.0
  0
LINE
  8
0
 62
     0
 10
59.72
 20
76.6946
 30
0.0
 11
59.72
 21
62.6939
 31
0.0
  0
LINE
  8
0
 62
     0
 10
59.72
 20
62.6939
 30
0.0
 11
45.7193
 21
62.6939
 31
0.0
  0
LINE
  8
0
 62
     0
 10
45.7193
 20
62.6939
 30
0.0
 11
45.7193
 21
76.6946
 31
0.0
  0
ENDSEC
  0
EOF
