  0
SECTION
  2
HEADER
  9
$ACADVER
  1
AC1009
  9
$FILLMODE
 70
 0
  9
$SPLFRAME
 70
 1
  9
$EXTMIN
 10
0
 20
0
 30
0.0
  9
$EXTMAX
 10
1058.33
 20
1058.33
 30
0.0
  0
ENDSEC
  0
SECTION
  2
TABLES
  0
TABLE
  2
LAYER
 70
1
  0
LAYER
  2
0
 70
     0
 62
     7
  6
CONTINUOUS
  0
ENDTAB
  0
ENDSEC
  0
SECTION
  2
ENTITIES
  0
LINE
  8
0
 62
     0
 10
103.346
 20
84.2186
 30
0.0
 11
103.503
 21
84.2119
 31
0.0
  0
LINE
  8
0
 62
     0
 10
103.503
 20
84.2119
 30
0.0
 11
103.659
 21
84.1939
 31
0.0
  0
LINE
  8
0
 62
     0
 10
103.659
 20
84.1939
 30
0.0
 11
103.813
 21
84.1636
 31
0.0
  0
LINE
  8
0
 62
     0
 10
103.813
 20
84.1636
 30
0.0
 11
103.965
 21
84.1209
 31
0.0
  0
LINE
  8
0
 62
     0
 10
103.965
 20
84.1209
 30
0.0
 11
104.112
 21
84.0659
 31
0.0
  0
LINE
  8
0
 62
     0
 10
104.112
 20
84.0659
 30
0.0
 11
104.254
 21
84.001
 31
0.0
  0
LINE
  8
0
 62
     0
 10
104.254
 20
84.001
 30
0.0
 11
104.39
 21
83.9241
 31
0.0
  0
LINE
  8
0
 62
     0
 10
104.39
 20
83.9241
 30
0.0
 11
104.521
 21
83.8369
 31
0.0
  0
LINE
  8
0
 62
     0
 10
104.521
 20
83.8369
 30
0.0
 11
104.644
 21
83.7392
 31
0.0
  0
LINE
  8
0
 62
     0
 10
104.644
 20
83.7392
 30
0.0
 11
104.76
 21
83.633
 31
0.0
  0
LINE
  8
0
 62
     0
 10
104.76
 20
83.633
 30
0.0
 11
104.866
 21
83.5173
 31
0.0
  0
LINE
  8
0
 62
     0
 10
104.866
 20
83.5173
 30
0.0
 11
104.965
 21
83.3949
 31
0.0
  0
LINE
  8
0
 62
     0
 10
104.965
 20
83.3949
 30
0.0
 11
105.052
 21
83.2637
 31
0.0
  0
LINE
  8
0
 62
     0
 10
105.052
 20
83.2637
 30
0.0
 11
105.129
 21
83.1261
 31
0.0
  0
LINE
  8
0
 62
     0
 10
105.129
 20
83.1261
 30
0.0
 11
105.194
 21
82.9839
 31
0.0
  0
LINE
  8
0
 62
     0
 10
105.194
 20
82.9839
 30
0.0
 11
105.249
 21
82.8379
 31
0.0
  0
LINE
  8
0
 62
     0
 10
105.249
 20
82.8379
 30
0.0
 11
105.29
 21
82.6851
 31
0.0
  0
LINE
  8
0
 62
     0
 10
105.29
 20
82.6851
 30
0.0
 11
105.322
 21
82.532
 31
0.0
  0
LINE
  8
0
 62
     0
 10
105.322
 20
82.532
 30
0.0
 11
105.34
 21
82.375
 31
0.0
  0
LINE
  8
0
 62
     0
 10
105.34
 20
82.375
 30
0.0
 11
105.345
 21
82.218
 31
0.0
  0
LINE
  8
0
 62
     0
 10
105.345
 20
82.218
 30
0.0
 11
105.347
 21
2.30408
 31
0.0
  0
LINE
  8
0
 62
     0
 10
105.347
 20
2.30408
 30
0.0
 11
105.34
 21
2.14698
 31
0.0
  0
LINE
  8
0
 62
     0
 10
105.34
 20
2.14698
 30
0.0
 11
105.322
 21
1.99126
 31
0.0
  0
LINE
  8
0
 62
     0
 10
105.322
 20
1.99126
 30
0.0
 11
105.29
 21
1.83692
 31
0.0
  0
LINE
  8
0
 62
     0
 10
105.29
 20
1.83692
 30
0.0
 11
105.249
 21
1.68534
 31
0.0
  0
LINE
  8
0
 62
     0
 10
105.249
 20
1.68534
 30
0.0
 11
105.194
 21
1.53789
 31
0.0
  0
LINE
  8
0
 62
     0
 10
105.194
 20
1.53789
 30
0.0
 11
105.129
 21
1.39595
 31
0.0
  0
LINE
  8
0
 62
     0
 10
105.129
 20
1.39595
 30
0.0
 11
105.052
 21
1.25953
 31
0.0
  0
LINE
  8
0
 62
     0
 10
105.052
 20
1.25953
 30
0.0
 11
104.965
 21
1.12861
 31
0.0
  0
LINE
  8
0
 62
     0
 10
104.965
 20
1.12861
 30
0.0
 11
104.866
 21
1.00597
 31
0.0
  0
LINE
  8
0
 62
     0
 10
104.866
 20
1.00597
 30
0.0
 11
104.76
 21
0.888834
 31
0.0
  0
LINE
  8
0
 62
     0
 10
104.76
 20
0.888834
 30
0.0
 11
104.644
 21
0.782726
 31
0.0
  0
LINE
  8
0
 62
     0
 10
104.644
 20
0.782726
 30
0.0
 11
104.521
 21
0.684886
 31
0.0
  0
LINE
  8
0
 62
     0
 10
104.521
 20
0.684886
 30
0.0
 11
104.39
 21
0.598068
 31
0.0
  0
LINE
  8
0
 62
     0
 10
104.39
 20
0.598068
 30
0.0
 11
104.254
 21
0.520898
 31
0.0
  0
LINE
  8
0
 62
     0
 10
104.254
 20
0.520898
 30
0.0
 11
104.112
 21
0.456131
 31
0.0
  0
LINE
  8
0
 62
     0
 10
104.112
 20
0.456131
 30
0.0
 11
103.965
 21
0.40101
 31
0.0
  0
LINE
  8
0
 62
     0
 10
103.965
 20
0.40101
 30
0.0
 11
103.813
 21
0.359668
 31
0.0
  0
LINE
  8
0
 62
     0
 10
103.813
 20
0.359668
 30
0.0
 11
103.659
 21
0.327973
 31
0.0
  0
LINE
  8
0
 62
     0
 10
103.659
 20
0.327973
 30
0.0
 11
103.503
 21
0.310059
 31
0.0
  0
LINE
  8
0
 62
     0
 10
103.503
 20
0.310059
 30
0.0
 11
103.346
 21
0.304546
 31
0.0
  0
LINE
  8
0
 62
     0
 10
103.346
 20
0.304546
 30
0.0
 11
2.096
 21
0.303168
 31
0.0
  0
LINE
  8
0
 62
     0
 10
2.096
 20
0.303168
 30
0.0
 11
1.9389
 21
0.310059
 31
0.0
  0
LINE
  8
0
 62
     0
 10
1.9389
 20
0.310059
 30
0.0
 11
1.7818
 21
0.327973
 31
0.0
  0
LINE
  8
0
 62
     0
 10
1.7818
 20
0.327973
 30
0.0
 11
1.62884
 21
0.359668
 31
0.0
  0
LINE
  8
0
 62
     0
 10
1.62884
 20
0.359668
 30
0.0
 11
1.47588
 21
0.40101
 31
0.0
  0
LINE
  8
0
 62
     0
 10
1.47588
 20
0.40101
 30
0.0
 11
1.32981
 21
0.456131
 31
0.0
  0
LINE
  8
0
 62
     0
 10
1.32981
 20
0.456131
 30
0.0
 11
1.18787
 21
0.520898
 31
0.0
  0
LINE
  8
0
 62
     0
 10
1.18787
 20
0.520898
 30
0.0
 11
1.05006
 21
0.598068
 31
0.0
  0
LINE
  8
0
 62
     0
 10
1.05006
 20
0.598068
 30
0.0
 11
0.919152
 21
0.684886
 31
0.0
  0
LINE
  8
0
 62
     0
 10
0.919152
 20
0.684886
 30
0.0
 11
0.796505
 21
0.782726
 31
0.0
  0
LINE
  8
0
 62
     0
 10
0.796505
 20
0.782726
 30
0.0
 11
0.680752
 21
0.888834
 31
0.0
  0
LINE
  8
0
 62
     0
 10
0.680752
 20
0.888834
 30
0.0
 11
0.574643
 21
1.00597
 31
0.0
  0
LINE
  8
0
 62
     0
 10
0.574643
 20
1.00597
 30
0.0
 11
0.4768
 21
1.12861
 31
0.0
  0
LINE
  8
0
 62
     0
 10
0.4768
 20
1.12861
 30
0.0
 11
0.389985
 21
1.25953
 31
0.0
  0
LINE
  8
0
 62
     0
 10
0.389985
 20
1.25953
 30
0.0
 11
0.312815
 21
1.39595
 31
0.0
  0
LINE
  8
0
 62
     0
 10
0.312815
 20
1.39595
 30
0.0
 11
0.248047
 21
1.53789
 31
0.0
  0
LINE
  8
0
 62
     0
 10
0.248047
 20
1.53789
 30
0.0
 11
0.192925
 21
1.68534
 31
0.0
  0
LINE
  8
0
 62
     0
 10
0.192925
 20
1.68534
 30
0.0
 11
0.150206
 21
1.83692
 31
0.0
  0
LINE
  8
0
 62
     0
 10
0.150206
 20
1.83692
 30
0.0
 11
0.119889
 21
1.99126
 31
0.0
  0
LINE
  8
0
 62
     0
 10
0.119889
 20
1.99126
 30
0.0
 11
0.101975
 21
2.14698
 31
0.0
  0
LINE
  8
0
 62
     0
 10
0.101975
 20
2.14698
 30
0.0
 11
0.0950846
 21
2.30408
 31
0.0
  0
LINE
  8
0
 62
     0
 10
0.0950846
 20
2.30408
 30
0.0
 11
0.0950846
 21
82.218
 31
0.0
  0
LINE
  8
0
 62
     0
 10
0.0950846
 20
82.218
 30
0.0
 11
0.101975
 21
82.375
 31
0.0
  0
LINE
  8
0
 62
     0
 10
0.101975
 20
82.375
 30
0.0
 11
0.119889
 21
82.532
 31
0.0
  0
LINE
  8
0
 62
     0
 10
0.119889
 20
82.532
 30
0.0
 11
0.150206
 21
82.6851
 31
0.0
  0
LINE
  8
0
 62
     0
 10
0.150206
 20
82.6851
 30
0.0
 11
0.192925
 21
82.8379
 31
0.0
  0
LINE
  8
0
 62
     0
 10
0.192925
 20
82.8379
 30
0.0
 11
0.248047
 21
82.9839
 31
0.0
  0
LINE
  8
0
 62
     0
 10
0.248047
 20
82.9839
 30
0.0
 11
0.312815
 21
83.1261
 31
0.0
  0
LINE
  8
0
 62
     0
 10
0.312815
 20
83.1261
 30
0.0
 11
0.389985
 21
83.2637
 31
0.0
  0
LINE
  8
0
 62
     0
 10
0.389985
 20
83.2637
 30
0.0
 11
0.4768
 21
83.3949
 31
0.0
  0
LINE
  8
0
 62
     0
 10
0.4768
 20
83.3949
 30
0.0
 11
0.574643
 21
83.5173
 31
0.0
  0
LINE
  8
0
 62
     0
 10
0.574643
 20
83.5173
 30
0.0
 11
0.680752
 21
83.633
 31
0.0
  0
LINE
  8
0
 62
     0
 10
0.680752
 20
83.633
 30
0.0
 11
0.796505
 21
83.7392
 31
0.0
  0
LINE
  8
0
 62
     0
 10
0.796505
 20
83.7392
 30
0.0
 11
0.919152
 21
83.8369
 31
0.0
  0
LINE
  8
0
 62
     0
 10
0.919152
 20
83.8369
 30
0.0
 11
1.05006
 21
83.9241
 31
0.0
  0
LINE
  8
0
 62
     0
 10
1.05006
 20
83.9241
 30
0.0
 11
1.18787
 21
84.001
 31
0.0
  0
LINE
  8
0
 62
     0
 10
1.18787
 20
84.001
 30
0.0
 11
1.32981
 21
84.0659
 31
0.0
  0
LINE
  8
0
 62
     0
 10
1.32981
 20
84.0659
 30
0.0
 11
1.47588
 21
84.1209
 31
0.0
  0
LINE
  8
0
 62
     0
 10
1.47588
 20
84.1209
 30
0.0
 11
1.62884
 21
84.1636
 31
0.0
  0
LINE
  8
0
 62
     0
 10
1.62884
 20
84.1636
 30
0.0
 11
1.7818
 21
84.1939
 31
0.0
  0
LINE
  8
0
 62
     0
 10
1.7818
 20
84.1939
 30
0.0
 11
1.9389
 21
84.2119
 31
0.0
  0
LINE
  8
0
 62
     0
 10
1.9389
 20
84.2119
 30
0.0
 11
2.096
 21
84.2186
 31
0.0
  0
LINE
  8
0
 62
     0
 10
2.096
 20
84.2186
 30
0.0
 11
103.346
 21
84.2186
 31
0.0
  0
LINE
  8
0
 62
     0
 10
83.8207
 20
21.8295
 30
0.0
 11
97.82
 21
21.8295
 31
0.0
  0
LINE
  8
0
 62
     0
 10
97.82
 20
21.8295
 30
0.0
 11
97.82
 21
7.83001
 31
0.0
  0
LINE
  8
0
 62
     0
 10
97.82
 20
7.83001
 30
0.0
 11
83.8207
 21
7.83001
 31
0.0
  0
LINE
  8
0
 62
     0
 10
83.8207
 20
7.83001
 30
0.0
 11
83.8207
 21
21.8295
 31
0.0
  0
LINE
  8
0
 62
     0
 10
7.61919
 20
38.5932
 30
0.0
 11
21.6201
 21
38.5932
 31
0.0
  0
LINE
  8
0
 62
     0
 10
21.6201
 20
38.5932
 30
0.0
 11
21.6201
 21
24.5938
 31
0.0
  0
LINE
  8
0
 62
     0
 10
21.6201
 20
24.5938
 30
0.0
 11
7.61919
 21
24.5938
 31
0.0
  0
LINE
  8
0
 62
     0
 10
7.61919
 20
24.5938
 30
0.0
 11
7.61919
 21
38.5932
 31
0.0
  0
LINE
  8
0
 62
     0
 10
26.6706
 20
40.8795
 30
0.0
 11
40.67
 21
40.8795
 31
0.0
  0
LINE
  8
0
 62
     0
 10
40.67
 20
40.8795
 30
0.0
 11
40.67
 21
26.88
 31
0.0
  0
LINE
  8
0
 62
     0
 10
40.67
 20
26.88
 30
0.0
 11
26.6706
 21
26.88
 31
0.0
  0
LINE
  8
0
 62
     0
 10
26.6706
 20
26.88
 30
0.0
 11
26.6706
 21
40.8795
 31
0.0
  0
LINE
  8
0
 62
     0
 10
83.8207
 20
40.8795
 30
0.0
 11
97.82
 21
40.8795
 31
0.0
  0
LINE
  8
0
 62
     0
 10
97.82
 20
40.8795
 30
0.0
 11
97.82
 21
26.88
 31
0.0
  0
LINE
  8
0
 62
     0
 10
97.82
 20
26.88
 30
0.0
 11
83.8207
 21
26.88
 31
0.0
  0
LINE
  8
0
 62
     0
 10
83.8207
 20
26.88
 30
0.0
 11
83.8207
 21
40.8795
 31
0.0
  0
LINE
  8
0
 62
     0
 10
64.7707
 20
55.167
 30
0.0
 11
78.77
 21
55.167
 31
0.0
  0
LINE
  8
0
 62
     0
 10
78.77
 20
55.167
 30
0.0
 11
78.77
 21
41.1674
 31
0.0
  0
LINE
  8
0
 62
     0
 10
78.77
 20
41.1674
 30
0.0
 11
64.7707
 21
41.1674
 31
0.0
  0
LINE
  8
0
 62
     0
 10
64.7707
 20
41.1674
 30
0.0
 11
64.7707
 21
55.167
 31
0.0
  0
LINE
  8
0
 62
     0
 10
7.61919
 20
57.6432
 30
0.0
 11
21.6201
 21
57.6432
 31
0.0
  0
LINE
  8
0
 62
     0
 10
21.6201
 20
57.6432
 30
0.0
 11
21.6201
 21
43.6439
 31
0.0
  0
LINE
  8
0
 62
     0
 10
21.6201
 20
43.6439
 30
0.0
 11
7.61919
 21
43.6439
 31
0.0
  0
LINE
  8
0
 62
     0
 10
7.61919
 20
43.6439
 30
0.0
 11
7.61919
 21
57.6432
 31
0.0
  0
LINE
  8
0
 62
     0
 10
45.7207
 20
57.6432
 30
0.0
 11
59.72
 21
57.6432
 31
0.0
  0
LINE
  8
0
 62
     0
 10
59.72
 20
57.6432
 30
0.0
 11
59.72
 21
43.6439
 31
0.0
  0
LINE
  8
0
 62
     0
 10
59.72
 20
43.6439
 30
0.0
 11
45.7207
 21
43.6439
 31
0.0
  0
LINE
  8
0
 62
     0
 10
45.7207
 20
43.6439
 30
0.0
 11
45.7207
 21
57.6432
 31
0.0
  0
LINE
  8
0
 62
     0
 10
26.6706
 20
59.9295
 30
0.0
 11
40.67
 21
59.9295
 31
0.0
  0
LINE
  8
0
 62
     0
 10
40.67
 20
59.9295
 30
0.0
 11
40.67
 21
45.9299
 31
0.0
  0
LINE
  8
0
 62
     0
 10
40.67
 20
45.9299
 30
0.0
 11
26.6706
 21
45.9299
 31
0.0
  0
LINE
  8
0
 62
     0
 10
26.6706
 20
45.9299
 30
0.0
 11
26.6706
 21
59.9295
 31
0.0
  0
LINE
  8
0
 62
     0
 10
64.7707
 20
74.217
 30
0.0
 11
78.77
 21
74.217
 31
0.0
  0
LINE
  8
0
 62
     0
 10
78.77
 20
74.217
 30
0.0
 11
78.77
 21
60.2174
 31
0.0
  0
LINE
  8
0
 62
     0
 10
78.77
 20
60.2174
 30
0.0
 11
64.7707
 21
60.2174
 31
0.0
  0
LINE
  8
0
 62
     0
 10
64.7707
 20
60.2174
 30
0.0
 11
64.7707
 21
74.217
 31
0.0
  0
LINE
  8
0
 62
     0
 10
45.7207
 20
76.6946
 30
0.0
 11
59.72
 21
76.6946
 31
0.0
  0
LINE
  8
0
 62
     0
 10
59.72
 20
76.6946
 30
0.0
 11
59.72
 21
62.6939
 31
0.0
  0
LINE
  8
0
 62
     0
 10
59.72
 20
62.6939
 30
0.0
 11
45.7207
 21
62.6939
 31
0.0
  0
LINE
  8
0
 62
     0
 10
45.7207
 20
62.6939
 30
0.0
 11
45.7207
 21
76.6946
 31
0.0
  0
ENDSEC
  0
EOF
