%TF.GenerationSoftware,KiCad,Pcbnew,7.0.9*%
%TF.CreationDate,2023-11-17T20:08:44+09:00*%
%TF.ProjectId,Assemble,41737365-6d62-46c6-952e-6b696361645f,rev?*%
%TF.SameCoordinates,Original*%
%TF.FileFunction,Copper,L2,Bot*%
%TF.FilePolarity,Positive*%
%FSLAX46Y46*%
G04 Gerber Fmt 4.6, Leading zero omitted, Abs format (unit mm)*
G04 Created by KiCad (PCBNEW 7.0.9) date 2023-11-17 20:08:44*
%MOMM*%
%LPD*%
G01*
G04 APERTURE LIST*
%TA.AperFunction,ComponentPad*%
%ADD10C,2.000000*%
%TD*%
%TA.AperFunction,SMDPad,CuDef*%
%ADD11R,2.200000X0.820000*%
%TD*%
%TA.AperFunction,ComponentPad*%
%ADD12R,1.397000X1.397000*%
%TD*%
%TA.AperFunction,SMDPad,CuDef*%
%ADD13R,0.950000X1.300000*%
%TD*%
%TA.AperFunction,ComponentPad*%
%ADD14C,1.397000*%
%TD*%
%TA.AperFunction,ComponentPad*%
%ADD15O,2.500000X2.000000*%
%TD*%
%TA.AperFunction,ComponentPad*%
%ADD16C,1.524000*%
%TD*%
%TA.AperFunction,ViaPad*%
%ADD17C,0.800000*%
%TD*%
%TA.AperFunction,Conductor*%
%ADD18C,0.500000*%
%TD*%
G04 APERTURE END LIST*
D10*
%TO.P,SW11,1,1*%
%TO.N,Rest*%
X91356250Y-107156250D03*
%TO.P,SW11,2,2*%
%TO.N,GND*%
X84856250Y-107156250D03*
%TD*%
D11*
%TO.P,LED3,1,DOUT*%
%TO.N,Net-(LED3-DOUT)*%
X53175000Y-140493750D03*
%TO.P,LED3,2,VSS*%
%TO.N,GND*%
X47275000Y-140493750D03*
%TO.P,LED3,3,DIN*%
%TO.N,Net-(LED2-DOUT)*%
X47275000Y-141993750D03*
%TO.P,LED3,4,VDD*%
%TO.N,VCC*%
X53175000Y-141993750D03*
%TD*%
D12*
%TO.P,D5,1,K*%
%TO.N,Low0*%
X78581250Y-128587500D03*
D13*
X78581250Y-126552500D03*
%TO.P,D5,2,A*%
%TO.N,Net-(D5-A)*%
X78581250Y-123002500D03*
D14*
X78581250Y-120967500D03*
%TD*%
D11*
%TO.P,LED1,1,DOUT*%
%TO.N,Net-(LED1-DOUT)*%
X33687500Y-143625000D03*
%TO.P,LED1,2,VSS*%
%TO.N,GND*%
X27787500Y-143625000D03*
%TO.P,LED1,3,DIN*%
%TO.N,LED*%
X27787500Y-145125000D03*
%TO.P,LED1,4,VDD*%
%TO.N,VCC*%
X33687500Y-145125000D03*
%TD*%
D12*
%TO.P,D4,1,K*%
%TO.N,Low1*%
X59531250Y-164306250D03*
D13*
X59531250Y-162271250D03*
%TO.P,D4,2,A*%
%TO.N,Net-(D4-A)*%
X59531250Y-158721250D03*
D14*
X59531250Y-156686250D03*
%TD*%
D15*
%TO.P,SW1,1,1*%
%TO.N,Col0*%
X27146250Y-135572500D03*
%TO.P,SW1,2,2*%
%TO.N,Net-(D1-A)*%
X33496250Y-133032500D03*
%TD*%
D11*
%TO.P,LED10,1,DOUT*%
%TO.N,unconnected-(LED10-DOUT-Pad1)*%
X91275000Y-126250000D03*
%TO.P,LED10,2,VSS*%
%TO.N,GND*%
X85375000Y-126250000D03*
%TO.P,LED10,3,DIN*%
%TO.N,Net-(LED10-DIN)*%
X85375000Y-127750000D03*
%TO.P,LED10,4,VDD*%
%TO.N,VCC*%
X91275000Y-127750000D03*
%TD*%
%TO.P,LED6,1,DOUT*%
%TO.N,Net-(LED6-DOUT)*%
X72006250Y-144550000D03*
%TO.P,LED6,2,VSS*%
%TO.N,GND*%
X66106250Y-144550000D03*
%TO.P,LED6,3,DIN*%
%TO.N,Net-(LED5-DOUT)*%
X66106250Y-146050000D03*
%TO.P,LED6,4,VDD*%
%TO.N,VCC*%
X72006250Y-146050000D03*
%TD*%
D12*
%TO.P,D8,1,K*%
%TO.N,Low1*%
X97631250Y-150018750D03*
D13*
X97631250Y-147983750D03*
%TO.P,D8,2,A*%
%TO.N,Net-(D8-A)*%
X97631250Y-144433750D03*
D14*
X97631250Y-142398750D03*
%TD*%
D12*
%TO.P,D1,1,K*%
%TO.N,Low0*%
X40481250Y-147637500D03*
D13*
X40481250Y-145602500D03*
%TO.P,D1,2,A*%
%TO.N,Net-(D1-A)*%
X40481250Y-142052500D03*
D14*
X40481250Y-140017500D03*
%TD*%
D15*
%TO.P,SW6,1,1*%
%TO.N,Col2*%
X65246250Y-135572500D03*
%TO.P,SW6,2,2*%
%TO.N,Net-(D6-A)*%
X71596250Y-133032500D03*
%TD*%
D12*
%TO.P,D9,1,K*%
%TO.N,Low0*%
X116681250Y-164306250D03*
D13*
X116681250Y-162271250D03*
%TO.P,D9,2,A*%
%TO.N,Net-(D9-A)*%
X116681250Y-158721250D03*
D14*
X116681250Y-156686250D03*
%TD*%
D12*
%TO.P,D10,1,K*%
%TO.N,Low1*%
X116681250Y-183356250D03*
D13*
X116681250Y-181321250D03*
%TO.P,D10,2,A*%
%TO.N,Net-(D10-A)*%
X116681250Y-177771250D03*
D14*
X116681250Y-175736250D03*
%TD*%
D11*
%TO.P,LED5,1,DOUT*%
%TO.N,Net-(LED5-DOUT)*%
X72225000Y-123825000D03*
%TO.P,LED5,2,VSS*%
%TO.N,GND*%
X66325000Y-123825000D03*
%TO.P,LED5,3,DIN*%
%TO.N,Net-(LED4-DOUT)*%
X66325000Y-125325000D03*
%TO.P,LED5,4,VDD*%
%TO.N,VCC*%
X72225000Y-125325000D03*
%TD*%
%TO.P,LED7,1,DOUT*%
%TO.N,Net-(LED7-DOUT)*%
X110325000Y-179212500D03*
%TO.P,LED7,2,VSS*%
%TO.N,GND*%
X104425000Y-179212500D03*
%TO.P,LED7,3,DIN*%
%TO.N,Net-(LED6-DOUT)*%
X104425000Y-180712500D03*
%TO.P,LED7,4,VDD*%
%TO.N,VCC*%
X110325000Y-180712500D03*
%TD*%
%TO.P,LED8,1,DOUT*%
%TO.N,Net-(LED8-DOUT)*%
X110325000Y-161000000D03*
%TO.P,LED8,2,VSS*%
%TO.N,GND*%
X104425000Y-161000000D03*
%TO.P,LED8,3,DIN*%
%TO.N,Net-(LED7-DOUT)*%
X104425000Y-162500000D03*
%TO.P,LED8,4,VDD*%
%TO.N,VCC*%
X110325000Y-162500000D03*
%TD*%
%TO.P,LED2,1,DOUT*%
%TO.N,Net-(LED2-DOUT)*%
X33906250Y-163175000D03*
%TO.P,LED2,2,VSS*%
%TO.N,GND*%
X28006250Y-163175000D03*
%TO.P,LED2,3,DIN*%
%TO.N,Net-(LED1-DOUT)*%
X28006250Y-164675000D03*
%TO.P,LED2,4,VDD*%
%TO.N,VCC*%
X33906250Y-164675000D03*
%TD*%
%TO.P,LED4,1,DOUT*%
%TO.N,Net-(LED4-DOUT)*%
X52956250Y-161175000D03*
%TO.P,LED4,2,VSS*%
%TO.N,GND*%
X47056250Y-161175000D03*
%TO.P,LED4,3,DIN*%
%TO.N,Net-(LED3-DOUT)*%
X47056250Y-162675000D03*
%TO.P,LED4,4,VDD*%
%TO.N,VCC*%
X52956250Y-162675000D03*
%TD*%
D15*
%TO.P,SW3,1,1*%
%TO.N,Col1*%
X46196250Y-133191250D03*
%TO.P,SW3,2,2*%
%TO.N,Net-(D3-A)*%
X52546250Y-130651250D03*
%TD*%
%TO.P,SW2,1,1*%
%TO.N,Col0*%
X27146250Y-154622500D03*
%TO.P,SW2,2,2*%
%TO.N,Net-(D2-A)*%
X33496250Y-152082500D03*
%TD*%
%TO.P,SW7,1,1*%
%TO.N,Col3*%
X84296250Y-118903750D03*
%TO.P,SW7,2,2*%
%TO.N,Net-(D7-A)*%
X90646250Y-116363750D03*
%TD*%
%TO.P,SW9,1,1*%
%TO.N,Col4*%
X103346250Y-152241250D03*
%TO.P,SW9,2,2*%
%TO.N,Net-(D9-A)*%
X109696250Y-149701250D03*
%TD*%
%TO.P,SW4,1,1*%
%TO.N,Col1*%
X46196250Y-152241250D03*
%TO.P,SW4,2,2*%
%TO.N,Net-(D4-A)*%
X52546250Y-149701250D03*
%TD*%
%TO.P,SW8,1,1*%
%TO.N,Col3*%
X84296250Y-137953750D03*
%TO.P,SW8,2,2*%
%TO.N,Net-(D8-A)*%
X90646250Y-135413750D03*
%TD*%
D12*
%TO.P,D3,1,K*%
%TO.N,Low0*%
X59531250Y-151635000D03*
D13*
X59531250Y-149600000D03*
%TO.P,D3,2,A*%
%TO.N,Net-(D3-A)*%
X59531250Y-146050000D03*
D14*
X59531250Y-144015000D03*
%TD*%
D12*
%TO.P,D7,1,K*%
%TO.N,Low0*%
X97631250Y-130968750D03*
D13*
X97631250Y-128933750D03*
%TO.P,D7,2,A*%
%TO.N,Net-(D7-A)*%
X97631250Y-125383750D03*
D14*
X97631250Y-123348750D03*
%TD*%
D11*
%TO.P,LED9,1,DOUT*%
%TO.N,Net-(LED10-DIN)*%
X91275000Y-145300000D03*
%TO.P,LED9,2,VSS*%
%TO.N,GND*%
X85375000Y-145300000D03*
%TO.P,LED9,3,DIN*%
%TO.N,Net-(LED8-DOUT)*%
X85375000Y-146800000D03*
%TO.P,LED9,4,VDD*%
%TO.N,VCC*%
X91275000Y-146800000D03*
%TD*%
D12*
%TO.P,D2,1,K*%
%TO.N,Low1*%
X40481250Y-166687500D03*
D13*
X40481250Y-164652500D03*
%TO.P,D2,2,A*%
%TO.N,Net-(D2-A)*%
X40481250Y-161102500D03*
D14*
X40481250Y-159067500D03*
%TD*%
D12*
%TO.P,D6,1,K*%
%TO.N,Low1*%
X78581250Y-147637500D03*
D13*
X78581250Y-145602500D03*
%TO.P,D6,2,A*%
%TO.N,Net-(D6-A)*%
X78581250Y-142052500D03*
D14*
X78581250Y-140017500D03*
%TD*%
D15*
%TO.P,SW10,1,1*%
%TO.N,Col4*%
X103346250Y-171291250D03*
%TO.P,SW10,2,2*%
%TO.N,Net-(D10-A)*%
X109696250Y-168751250D03*
%TD*%
%TO.P,SW5,1,1*%
%TO.N,Col2*%
X65246250Y-116522500D03*
%TO.P,SW5,2,2*%
%TO.N,Net-(D5-A)*%
X71596250Y-113982500D03*
%TD*%
D16*
%TO.P,U1,1,TX0/D3*%
%TO.N,unconnected-(U1-TX0{slash}D3-Pad1)*%
X115550000Y-107960000D03*
%TO.P,U1,2,RX1/D2*%
%TO.N,LED*%
X115550000Y-110500000D03*
%TO.P,U1,3,GND*%
%TO.N,GND*%
X115550000Y-113040000D03*
%TO.P,U1,4,GND*%
X115550000Y-115580000D03*
%TO.P,U1,5,2/D1/SDA*%
%TO.N,unconnected-(U1-2{slash}D1{slash}SDA-Pad5)*%
X115550000Y-118120000D03*
%TO.P,U1,6,3/D0/SCL*%
%TO.N,unconnected-(U1-3{slash}D0{slash}SCL-Pad6)*%
X115550000Y-120660000D03*
%TO.P,U1,7,4/D4*%
%TO.N,Low0*%
X115550000Y-123200000D03*
%TO.P,U1,8,5/C6*%
%TO.N,Low1*%
X115550000Y-125740000D03*
%TO.P,U1,9,6/D7*%
%TO.N,unconnected-(U1-6{slash}D7-Pad9)*%
X115550000Y-128280000D03*
%TO.P,U1,10,7/E6*%
%TO.N,unconnected-(U1-7{slash}E6-Pad10)*%
X115550000Y-130820000D03*
%TO.P,U1,11,8/B4*%
%TO.N,unconnected-(U1-8{slash}B4-Pad11)*%
X115550000Y-133360000D03*
%TO.P,U1,12,9/B5*%
%TO.N,unconnected-(U1-9{slash}B5-Pad12)*%
X115550000Y-135900000D03*
%TO.P,U1,13,B6/10*%
%TO.N,unconnected-(U1-B6{slash}10-Pad13)*%
X100310000Y-135900000D03*
%TO.P,U1,14,B2/16*%
%TO.N,unconnected-(U1-B2{slash}16-Pad14)*%
X100310000Y-133360000D03*
%TO.P,U1,15,B3/14*%
%TO.N,unconnected-(U1-B3{slash}14-Pad15)*%
X100310000Y-130820000D03*
%TO.P,U1,16,B1/15*%
%TO.N,Col4*%
X100310000Y-128280000D03*
%TO.P,U1,17,F7/A0*%
%TO.N,Col3*%
X100310000Y-125740000D03*
%TO.P,U1,18,F6/A1*%
%TO.N,Col2*%
X100310000Y-123200000D03*
%TO.P,U1,19,F5/A2*%
%TO.N,Col1*%
X100310000Y-120660000D03*
%TO.P,U1,20,F4/A3*%
%TO.N,Col0*%
X100310000Y-118120000D03*
%TO.P,U1,21,VCC*%
%TO.N,VCC*%
X100310000Y-115580000D03*
%TO.P,U1,22,RST*%
%TO.N,Rest*%
X100310000Y-113040000D03*
%TO.P,U1,23,GND*%
%TO.N,GND*%
X100310000Y-110500000D03*
%TO.P,U1,24,RAW*%
%TO.N,unconnected-(U1-RAW-Pad24)*%
X100310000Y-107960000D03*
%TD*%
D17*
%TO.N,Low0*%
X82000000Y-131040000D03*
X82000000Y-134680000D03*
%TO.N,VCC*%
X38620000Y-156530000D03*
X58500000Y-121210000D03*
X74280000Y-124599500D03*
X74140000Y-121070000D03*
X58500000Y-125750000D03*
X79440000Y-113970000D03*
X33960000Y-140060000D03*
X38570000Y-161170000D03*
X77425500Y-113970545D03*
X33900000Y-142189500D03*
%TO.N,Net-(LED1-DOUT)*%
X36580000Y-146450000D03*
X23410000Y-159970000D03*
X27010000Y-160000000D03*
X36580000Y-143800000D03*
%TO.N,LED*%
X25090000Y-146760000D03*
X25035562Y-144265562D03*
%TO.N,Net-(LED2-DOUT)*%
X40820000Y-152240000D03*
X43809500Y-152240000D03*
%TO.N,Net-(LED3-DOUT)*%
X56160000Y-140500000D03*
X43120000Y-159510000D03*
X45580000Y-157080000D03*
X43120000Y-159510000D03*
X56200000Y-143110000D03*
%TO.N,Net-(LED4-DOUT)*%
X66110000Y-142770000D03*
X63490000Y-142830000D03*
%TO.N,Net-(LED5-DOUT)*%
X62589067Y-134710442D03*
X60600000Y-134130000D03*
X68060000Y-128390000D03*
X64910000Y-128430000D03*
%TD*%
D18*
%TO.N,Net-(D1-A)*%
X40481250Y-142052500D02*
X40481250Y-140017500D01*
%TO.N,Low0*%
X97631250Y-130968750D02*
X97631250Y-138651250D01*
X114820000Y-147330000D02*
X114970000Y-147480000D01*
X119890000Y-127540000D02*
X119890000Y-161097500D01*
X115550000Y-123200000D02*
X114472370Y-123200000D01*
X115550000Y-123200000D02*
X119890000Y-127540000D01*
X114970000Y-164360000D02*
X115023750Y-164306250D01*
X108840000Y-138770000D02*
X108940000Y-138870000D01*
X108940000Y-147330000D02*
X114820000Y-147330000D01*
X115023750Y-164306250D02*
X116681250Y-164306250D01*
X40481250Y-147637500D02*
X40481250Y-145602500D01*
X114970000Y-147480000D02*
X114970000Y-164360000D01*
X108940000Y-138870000D02*
X108940000Y-147330000D01*
X119890000Y-161097500D02*
X116681250Y-164306250D01*
X59531250Y-149600000D02*
X59531250Y-151635000D01*
X82000000Y-134680000D02*
X82000000Y-131040000D01*
X97750000Y-138770000D02*
X108840000Y-138770000D01*
X97631250Y-128933750D02*
X97631250Y-130968750D01*
X97631250Y-138651250D02*
X97750000Y-138770000D01*
X116681250Y-164306250D02*
X116681250Y-162271250D01*
X78581250Y-128587500D02*
X78581250Y-126552500D01*
%TO.N,Net-(D2-A)*%
X40481250Y-159067500D02*
X40481250Y-161102500D01*
%TO.N,Low1*%
X78581250Y-145602500D02*
X78581250Y-147637500D01*
X116681250Y-181321250D02*
X116681250Y-183356250D01*
X40481250Y-164652500D02*
X40481250Y-166687500D01*
X114686250Y-183356250D02*
X116681250Y-183356250D01*
X115680000Y-125740000D02*
X115720000Y-125700000D01*
X59531250Y-162271250D02*
X59531250Y-164306250D01*
X115550000Y-125740000D02*
X115680000Y-125740000D01*
X97631250Y-150018750D02*
X97631250Y-147983750D01*
%TO.N,Net-(D3-A)*%
X59531250Y-144015000D02*
X59531250Y-146050000D01*
%TO.N,Net-(D4-A)*%
X59531250Y-156686250D02*
X59531250Y-158721250D01*
%TO.N,Net-(D5-A)*%
X78581250Y-123002500D02*
X78581250Y-120967500D01*
%TO.N,Net-(D6-A)*%
X78581250Y-140017500D02*
X78581250Y-142052500D01*
%TO.N,Net-(D7-A)*%
X97631250Y-123348750D02*
X97631250Y-125383750D01*
%TO.N,Net-(D8-A)*%
X97631250Y-144433750D02*
X97631250Y-142398750D01*
%TO.N,Net-(D9-A)*%
X116681250Y-158721250D02*
X116681250Y-156686250D01*
%TO.N,Net-(D10-A)*%
X116681250Y-175736250D02*
X116681250Y-177771250D01*
%TO.N,VCC*%
X71640000Y-146066250D02*
X71640000Y-170000000D01*
X74140000Y-121070000D02*
X72270000Y-121070000D01*
X92710000Y-114010000D02*
X79480000Y-114010000D01*
X74330000Y-124649500D02*
X74280000Y-124599500D01*
X33556250Y-164675000D02*
X33556250Y-169986250D01*
X90925000Y-127750000D02*
X90925000Y-133015000D01*
X93980000Y-146350000D02*
X93580000Y-146750000D01*
X38520000Y-145100000D02*
X38520000Y-145670000D01*
X58500000Y-108820000D02*
X58070000Y-108390000D01*
X94460000Y-146760000D02*
X94050000Y-146760000D01*
X58500000Y-108390000D02*
X58070000Y-108390000D01*
X38140000Y-145125000D02*
X38140000Y-145030000D01*
X94040000Y-146350000D02*
X94050000Y-146350000D01*
X100310000Y-115580000D02*
X95490000Y-115580000D01*
X90925000Y-127750000D02*
X92031250Y-127750000D01*
X90390000Y-136980000D02*
X91580000Y-138170000D01*
X110190000Y-151860000D02*
X105550000Y-151860000D01*
X33337500Y-145125000D02*
X37155000Y-145125000D01*
X53130000Y-170000000D02*
X52110000Y-170000000D01*
X38520000Y-142230000D02*
X38520000Y-144650000D01*
X38460000Y-125270000D02*
X38460000Y-131740000D01*
X58070000Y-108390000D02*
X55340000Y-108390000D01*
X33337500Y-145256250D02*
X33337500Y-145125000D01*
X52606250Y-169210000D02*
X52606250Y-169503750D01*
X110630000Y-176500000D02*
X110590000Y-176460000D01*
X91580000Y-142170000D02*
X93000000Y-142170000D01*
X38140000Y-145030000D02*
X38140000Y-145290000D01*
X75577478Y-112122522D02*
X71844955Y-108390000D01*
X58500000Y-108960000D02*
X58500000Y-108820000D01*
X53137500Y-162675000D02*
X52606250Y-162675000D01*
X38570000Y-161170000D02*
X35065000Y-164675000D01*
X110440000Y-156900000D02*
X110440000Y-152110000D01*
X52825000Y-141993750D02*
X58376250Y-141993750D01*
X71875000Y-125325000D02*
X74285000Y-125325000D01*
X91580000Y-138170000D02*
X91580000Y-142170000D01*
X38479500Y-142189500D02*
X38520000Y-142230000D01*
X74285000Y-125325000D02*
X74330000Y-125370000D01*
X33556250Y-169986250D02*
X33570000Y-170000000D01*
X109975000Y-165255000D02*
X109975000Y-162500000D01*
X112840000Y-176500000D02*
X110630000Y-176500000D01*
X38495000Y-145125000D02*
X38520000Y-145100000D01*
X52606250Y-169210000D02*
X52606250Y-162675000D01*
X88130000Y-136950000D02*
X88160000Y-136980000D01*
X74330000Y-125370000D02*
X74330000Y-124649500D01*
X90935000Y-127760000D02*
X90925000Y-127750000D01*
X90975000Y-146750000D02*
X90925000Y-146800000D01*
X95470000Y-127760000D02*
X90935000Y-127760000D01*
X71656250Y-146050000D02*
X71640000Y-146066250D01*
X88160000Y-136980000D02*
X90390000Y-136980000D01*
X58376250Y-141993750D02*
X58450000Y-141920000D01*
X71844955Y-108390000D02*
X58790000Y-108390000D01*
X112630000Y-162580000D02*
X112630000Y-157050000D01*
X58500000Y-108960000D02*
X58500000Y-108680000D01*
X79480000Y-114010000D02*
X79440000Y-113970000D01*
X38140000Y-145125000D02*
X38495000Y-145125000D01*
X33570000Y-170000000D02*
X52110000Y-170000000D01*
X75577478Y-112932522D02*
X76007478Y-112932522D01*
X58450000Y-125800000D02*
X58500000Y-125750000D01*
X112840000Y-180800000D02*
X112840000Y-176500000D01*
X38520000Y-145670000D02*
X38520000Y-156430000D01*
X93580000Y-146750000D02*
X90975000Y-146750000D01*
X35065000Y-164675000D02*
X33556250Y-164675000D01*
X52606250Y-169503750D02*
X52110000Y-170000000D01*
X52606250Y-169210000D02*
X52606250Y-169476250D01*
X38520000Y-144650000D02*
X38520000Y-145100000D01*
X110480000Y-156940000D02*
X110440000Y-156900000D01*
X72270000Y-121070000D02*
X71840000Y-120640000D01*
X37280000Y-145000000D02*
X37155000Y-145125000D01*
X95480000Y-115570000D02*
X92710000Y-115570000D01*
X110440000Y-152110000D02*
X110190000Y-151860000D01*
X94050000Y-146350000D02*
X94460000Y-146760000D01*
X110590000Y-171240000D02*
X109390000Y-171240000D01*
X58500000Y-121210000D02*
X58500000Y-108960000D01*
X71640000Y-170000000D02*
X53130000Y-170000000D01*
X95490000Y-115580000D02*
X95420000Y-115510000D01*
X110590000Y-176460000D02*
X110590000Y-171240000D01*
X58500000Y-108960000D02*
X58500000Y-108390000D01*
X75577478Y-112932522D02*
X75577478Y-112122522D01*
X105550000Y-146930000D02*
X105380000Y-146760000D01*
X76197478Y-112742522D02*
X75577478Y-112122522D01*
X94040000Y-146350000D02*
X94040000Y-146750000D01*
X109920000Y-165310000D02*
X109975000Y-165255000D01*
X112752500Y-180712500D02*
X112840000Y-180800000D01*
X109975000Y-162500000D02*
X112550000Y-162500000D01*
X58450000Y-141920000D02*
X58450000Y-125800000D01*
X58500000Y-108680000D02*
X58790000Y-108390000D01*
X109975000Y-180712500D02*
X112752500Y-180712500D01*
X38520000Y-156430000D02*
X38620000Y-156530000D01*
X105380000Y-146760000D02*
X94460000Y-146760000D01*
X58790000Y-108390000D02*
X58500000Y-108390000D01*
X90980000Y-133070000D02*
X88130000Y-133070000D01*
X88130000Y-133070000D02*
X88130000Y-136950000D01*
X38140000Y-145030000D02*
X38520000Y-144650000D01*
X38140000Y-145290000D02*
X38520000Y-145670000D01*
X112630000Y-157050000D02*
X112740000Y-156940000D01*
X71840000Y-120640000D02*
X71840000Y-116670000D01*
X76007478Y-112932522D02*
X76197478Y-112742522D01*
X90925000Y-133015000D02*
X90980000Y-133070000D01*
X71840000Y-116670000D02*
X75577478Y-112932522D01*
X92710000Y-115570000D02*
X92710000Y-114010000D01*
X77425500Y-113970545D02*
X76197478Y-112742522D01*
X94050000Y-146760000D02*
X94040000Y-146750000D01*
X105550000Y-151860000D02*
X105550000Y-146930000D01*
X95490000Y-115580000D02*
X95480000Y-115570000D01*
X52825000Y-141993750D02*
X52825000Y-142347303D01*
X38460000Y-131740000D02*
X33960000Y-136240000D01*
X52606250Y-169476250D02*
X53130000Y-170000000D01*
X71875000Y-125325000D02*
X71875000Y-125678553D01*
X94040000Y-143210000D02*
X94040000Y-146350000D01*
X112740000Y-156940000D02*
X110480000Y-156940000D01*
X94040000Y-146750000D02*
X93580000Y-146750000D01*
X55340000Y-108390000D02*
X38460000Y-125270000D01*
X95420000Y-127710000D02*
X95470000Y-127760000D01*
X106330000Y-165310000D02*
X109920000Y-165310000D01*
X106330000Y-168180000D02*
X106330000Y-165310000D01*
X109390000Y-171240000D02*
X106330000Y-168180000D01*
X37155000Y-145125000D02*
X38140000Y-145125000D01*
X33960000Y-136240000D02*
X33960000Y-140060000D01*
X112550000Y-162500000D02*
X112630000Y-162580000D01*
X95420000Y-115510000D02*
X95420000Y-127710000D01*
X93000000Y-142170000D02*
X94040000Y-143210000D01*
X94040000Y-146350000D02*
X93980000Y-146350000D01*
X33900000Y-142189500D02*
X38479500Y-142189500D01*
%TO.N,Net-(LED1-DOUT)*%
X35200000Y-146450000D02*
X29850000Y-151800000D01*
X29560000Y-154290000D02*
X33810000Y-154290000D01*
X23410000Y-159970000D02*
X23410000Y-164850000D01*
X29850000Y-151800000D02*
X29560000Y-152090000D01*
X33337500Y-143625000D02*
X36405000Y-143625000D01*
X36580000Y-146450000D02*
X35200000Y-146450000D01*
X36405000Y-143625000D02*
X36580000Y-143800000D01*
X28181250Y-164850000D02*
X28356250Y-164675000D01*
X33810000Y-154290000D02*
X34030000Y-154510000D01*
X34030000Y-154510000D02*
X34030000Y-159900000D01*
X34030000Y-159900000D02*
X33930000Y-160000000D01*
X23410000Y-164850000D02*
X28181250Y-164850000D01*
X33930000Y-160000000D02*
X27010000Y-160000000D01*
X29560000Y-152090000D02*
X29560000Y-154290000D01*
%TO.N,GND*%
X80280000Y-126060000D02*
X80970000Y-126060000D01*
X47406250Y-161175000D02*
X42960000Y-156728750D01*
X74640000Y-121950000D02*
X78275000Y-118315000D01*
X80280000Y-144940000D02*
X80640000Y-145300000D01*
X103515000Y-161000000D02*
X104775000Y-161000000D01*
X61740000Y-124335000D02*
X62250000Y-123825000D01*
X104775000Y-179212500D02*
X101712500Y-179212500D01*
X98870000Y-165645000D02*
X103515000Y-161000000D01*
X26877500Y-143625000D02*
X28137500Y-143625000D01*
X28356250Y-163175000D02*
X28356250Y-162821447D01*
X61740000Y-124350000D02*
X61740000Y-123825000D01*
X37180000Y-141340000D02*
X40300000Y-138220000D01*
X57560000Y-124240000D02*
X57975000Y-123825000D01*
X78275000Y-113737500D02*
X84856250Y-107156250D01*
X100310000Y-110500000D02*
X113010000Y-110500000D01*
X80970000Y-126060000D02*
X80950000Y-126060000D01*
X61200000Y-123825000D02*
X61740000Y-123825000D01*
X47625000Y-138790000D02*
X57410000Y-138790000D01*
X78275000Y-118315000D02*
X78275000Y-118170000D01*
X80270000Y-145810000D02*
X80270000Y-144950000D01*
X61580000Y-138260000D02*
X65260000Y-141940000D01*
X28137500Y-143625000D02*
X28137500Y-142532500D01*
X23540000Y-146962500D02*
X26877500Y-143625000D01*
X80280000Y-125390000D02*
X80280000Y-126060000D01*
X28137500Y-142532500D02*
X29330000Y-141340000D01*
X80780000Y-145300000D02*
X80270000Y-145810000D01*
X80970000Y-126060000D02*
X85535000Y-126060000D01*
X80890000Y-145300000D02*
X85725000Y-145300000D01*
X88820000Y-161000000D02*
X80270000Y-152450000D01*
X78275000Y-118315000D02*
X80280000Y-120320000D01*
X28356250Y-163175000D02*
X23540000Y-158358750D01*
X42960000Y-140520000D02*
X47598750Y-140520000D01*
X80280000Y-126590000D02*
X80280000Y-144940000D01*
X104775000Y-161000000D02*
X88820000Y-161000000D01*
X61580000Y-123985000D02*
X61580000Y-138260000D01*
X57410000Y-138790000D02*
X57560000Y-138640000D01*
X80890000Y-145300000D02*
X80780000Y-145300000D01*
X57560000Y-138640000D02*
X57560000Y-124240000D01*
X66675000Y-123825000D02*
X66675000Y-122255000D01*
X101712500Y-179212500D02*
X98870000Y-176370000D01*
X42960000Y-156728750D02*
X42960000Y-140520000D01*
X61740000Y-124350000D02*
X61740000Y-124335000D01*
X98870000Y-176370000D02*
X98870000Y-165645000D01*
X80280000Y-126060000D02*
X80280000Y-126590000D01*
X80950000Y-126060000D02*
X80280000Y-125390000D01*
X40300000Y-138220000D02*
X45351250Y-138220000D01*
X80640000Y-145300000D02*
X80890000Y-145300000D01*
X66980000Y-121950000D02*
X74640000Y-121950000D01*
X80280000Y-120320000D02*
X80280000Y-125390000D01*
X85535000Y-126060000D02*
X85725000Y-126250000D01*
X45351250Y-138220000D02*
X47625000Y-140493750D01*
X61725000Y-124350000D02*
X61200000Y-123825000D01*
X29330000Y-141340000D02*
X37180000Y-141340000D01*
X47598750Y-140520000D02*
X47625000Y-140493750D01*
X86306250Y-105706250D02*
X95516250Y-105706250D01*
X47625000Y-140493750D02*
X47625000Y-138790000D01*
X80970000Y-126060000D02*
X80810000Y-126060000D01*
X95516250Y-105706250D02*
X100310000Y-110500000D01*
X61740000Y-123825000D02*
X62250000Y-123825000D01*
X66675000Y-122255000D02*
X66980000Y-121950000D01*
X80810000Y-126060000D02*
X80280000Y-126590000D01*
X65260000Y-143122082D02*
X65757918Y-143620000D01*
X23540000Y-158358750D02*
X23540000Y-146962500D01*
X80270000Y-144950000D02*
X80280000Y-144940000D01*
X113010000Y-110500000D02*
X115550000Y-113040000D01*
X78275000Y-118315000D02*
X78275000Y-113737500D01*
X65260000Y-141940000D02*
X65260000Y-143122082D01*
X66456250Y-143620000D02*
X66456250Y-144550000D01*
X84856250Y-107156250D02*
X86306250Y-105706250D01*
X115550000Y-113040000D02*
X115550000Y-115580000D01*
X57975000Y-123825000D02*
X61200000Y-123825000D01*
X61740000Y-123825000D02*
X61580000Y-123985000D01*
X62250000Y-123825000D02*
X66675000Y-123825000D01*
X61740000Y-124350000D02*
X61725000Y-124350000D01*
X65757918Y-143620000D02*
X66456250Y-143620000D01*
X80270000Y-152450000D02*
X80270000Y-145810000D01*
%TO.N,LED*%
X28080000Y-146760000D02*
X28137500Y-146817500D01*
X108820000Y-103740000D02*
X44530000Y-103740000D01*
X25090000Y-146760000D02*
X28080000Y-146760000D01*
X21570000Y-126700000D02*
X21570000Y-142060000D01*
X115640000Y-110560000D02*
X108820000Y-103740000D01*
X115550000Y-110500000D02*
X115610000Y-110560000D01*
X24990000Y-144220000D02*
X25035562Y-144265562D01*
X21570000Y-142060000D02*
X24990000Y-142060000D01*
X115610000Y-110560000D02*
X115640000Y-110560000D01*
X24990000Y-142060000D02*
X24990000Y-144220000D01*
X44530000Y-103740000D02*
X21570000Y-126700000D01*
X28137500Y-146817500D02*
X28137500Y-145125000D01*
%TO.N,Net-(LED2-DOUT)*%
X33556250Y-163175000D02*
X40820000Y-155911250D01*
X43809500Y-152240000D02*
X43800000Y-152230500D01*
X43800000Y-145818750D02*
X47625000Y-141993750D01*
X40820000Y-155911250D02*
X40820000Y-152240000D01*
X43800000Y-152230500D02*
X43800000Y-145818750D01*
%TO.N,Net-(LED3-DOUT)*%
X52831250Y-140500000D02*
X52825000Y-140493750D01*
X49690000Y-151820000D02*
X49690000Y-144350000D01*
X47406250Y-162675000D02*
X43075000Y-162675000D01*
X52940000Y-151790000D02*
X49720000Y-151790000D01*
X49720000Y-151790000D02*
X49690000Y-151820000D01*
X48100000Y-158070000D02*
X52980000Y-158070000D01*
X53010000Y-151860000D02*
X52940000Y-151790000D01*
X43120000Y-162600000D02*
X43120000Y-159510000D01*
X43075000Y-162675000D02*
X43060000Y-162660000D01*
X52980000Y-158070000D02*
X53010000Y-158100000D01*
X56160000Y-140500000D02*
X52831250Y-140500000D01*
X47110000Y-157080000D02*
X48100000Y-158070000D01*
X43060000Y-162660000D02*
X43120000Y-162600000D01*
X53010000Y-158100000D02*
X53010000Y-151860000D01*
X45580000Y-157080000D02*
X47110000Y-157080000D01*
X49690000Y-144350000D02*
X49630000Y-144290000D01*
X56200000Y-144290000D02*
X56200000Y-143110000D01*
X49630000Y-144290000D02*
X56200000Y-144290000D01*
%TO.N,Net-(LED4-DOUT)*%
X57150000Y-156610000D02*
X57150000Y-142830000D01*
X57180000Y-142800000D02*
X63460000Y-142800000D01*
X57150000Y-142830000D02*
X57180000Y-142800000D01*
X52606250Y-161153750D02*
X57150000Y-156610000D01*
X66110000Y-137260000D02*
X67210000Y-136160000D01*
X67130000Y-131770000D02*
X66330000Y-131770000D01*
X63460000Y-142800000D02*
X63490000Y-142830000D01*
X67160000Y-131740000D02*
X67130000Y-131770000D01*
X66110000Y-142770000D02*
X66110000Y-137260000D01*
X67210000Y-131790000D02*
X67160000Y-131740000D01*
X66330000Y-131770000D02*
X66330000Y-125670000D01*
X67210000Y-136160000D02*
X67210000Y-131790000D01*
X52606250Y-161175000D02*
X52606250Y-161153750D01*
X66330000Y-125670000D02*
X66675000Y-125325000D01*
%TO.N,Net-(LED5-DOUT)*%
X62589067Y-134330933D02*
X64910000Y-132010000D01*
X68060000Y-128390000D02*
X75140000Y-128390000D01*
X64550000Y-146050000D02*
X64470000Y-146130000D01*
X62589067Y-134710442D02*
X62589067Y-134330933D01*
X75140000Y-128390000D02*
X75290000Y-128240000D01*
X64910000Y-132010000D02*
X64910000Y-128430000D01*
X75290000Y-123750000D02*
X71950000Y-123750000D01*
X64380000Y-142210000D02*
X61080000Y-138910000D01*
X61080000Y-138910000D02*
X60500000Y-138910000D01*
X71950000Y-123750000D02*
X71875000Y-123825000D01*
X60500000Y-134230000D02*
X60600000Y-134130000D01*
X60500000Y-138910000D02*
X60500000Y-134230000D01*
X75290000Y-128240000D02*
X75290000Y-123750000D01*
X64470000Y-146130000D02*
X64470000Y-142300000D01*
X66456250Y-146050000D02*
X64550000Y-146050000D01*
X64470000Y-142300000D02*
X64380000Y-142210000D01*
%TO.N,Net-(LED6-DOUT)*%
X75420000Y-144470000D02*
X71736250Y-144470000D01*
X71736250Y-144470000D02*
X71656250Y-144550000D01*
X75420000Y-153909950D02*
X75420000Y-144470000D01*
X104775000Y-180712500D02*
X102222550Y-180712500D01*
X102222550Y-180712500D02*
X75420000Y-153909950D01*
%TO.N,Net-(LED7-DOUT)*%
X104810000Y-162535000D02*
X104775000Y-162500000D01*
X109975000Y-179212500D02*
X109830000Y-179067500D01*
X104810000Y-167949466D02*
X104810000Y-162535000D01*
X108870534Y-172010000D02*
X104810000Y-167949466D01*
X109830000Y-179067500D02*
X109830000Y-172010000D01*
X109830000Y-172010000D02*
X108870534Y-172010000D01*
%TO.N,Net-(LED8-DOUT)*%
X95740000Y-157900000D02*
X85725000Y-147885000D01*
X85725000Y-147885000D02*
X85725000Y-146800000D01*
X107775000Y-157900000D02*
X95740000Y-157900000D01*
X109975000Y-160100000D02*
X107775000Y-157900000D01*
X109975000Y-161000000D02*
X109975000Y-160100000D01*
%TO.N,Net-(LED10-DIN)*%
X90780000Y-138570000D02*
X90750000Y-138570000D01*
X90750000Y-138570000D02*
X89890000Y-137710000D01*
X89890000Y-137710000D02*
X86250000Y-137710000D01*
X90925000Y-145300000D02*
X90780000Y-145155000D01*
X86250000Y-137710000D02*
X86190000Y-137770000D01*
X86190000Y-137770000D02*
X86190000Y-128215000D01*
X90780000Y-145155000D02*
X90780000Y-138570000D01*
X86190000Y-128215000D02*
X85725000Y-127750000D01*
%TD*%
M02*
