%TF.GenerationSoftware,KiCad,Pcbnew,7.0.9*%
%TF.CreationDate,2023-11-17T20:08:44+09:00*%
%TF.ProjectId,Assemble,41737365-6d62-46c6-952e-6b696361645f,rev?*%
%TF.SameCoordinates,Original*%
%TF.FileFunction,Legend,Top*%
%TF.FilePolarity,Positive*%
%FSLAX46Y46*%
G04 Gerber Fmt 4.6, Leading zero omitted, Abs format (unit mm)*
G04 Created by KiCad (PCBNEW 7.0.9) date 2023-11-17 20:08:44*
%MOMM*%
%LPD*%
G01*
G04 APERTURE LIST*
%ADD10C,0.150000*%
%ADD11C,0.125000*%
%ADD12C,2.000000*%
%ADD13R,1.397000X1.397000*%
%ADD14C,1.397000*%
%ADD15O,2.500000X2.000000*%
G04 APERTURE END LIST*
D10*
X47129761Y-144048569D02*
X46653571Y-144048569D01*
X46653571Y-144048569D02*
X46653571Y-143048569D01*
X47463095Y-144048569D02*
X47463095Y-143381902D01*
X47463095Y-143048569D02*
X47415476Y-143096188D01*
X47415476Y-143096188D02*
X47463095Y-143143807D01*
X47463095Y-143143807D02*
X47510714Y-143096188D01*
X47510714Y-143096188D02*
X47463095Y-143048569D01*
X47463095Y-143048569D02*
X47463095Y-143143807D01*
X48367856Y-143381902D02*
X48367856Y-144191426D01*
X48367856Y-144191426D02*
X48320237Y-144286664D01*
X48320237Y-144286664D02*
X48272618Y-144334283D01*
X48272618Y-144334283D02*
X48177380Y-144381902D01*
X48177380Y-144381902D02*
X48034523Y-144381902D01*
X48034523Y-144381902D02*
X47939285Y-144334283D01*
X48367856Y-144000950D02*
X48272618Y-144048569D01*
X48272618Y-144048569D02*
X48082142Y-144048569D01*
X48082142Y-144048569D02*
X47986904Y-144000950D01*
X47986904Y-144000950D02*
X47939285Y-143953330D01*
X47939285Y-143953330D02*
X47891666Y-143858092D01*
X47891666Y-143858092D02*
X47891666Y-143572378D01*
X47891666Y-143572378D02*
X47939285Y-143477140D01*
X47939285Y-143477140D02*
X47986904Y-143429521D01*
X47986904Y-143429521D02*
X48082142Y-143381902D01*
X48082142Y-143381902D02*
X48272618Y-143381902D01*
X48272618Y-143381902D02*
X48367856Y-143429521D01*
X48844047Y-144048569D02*
X48844047Y-143048569D01*
X49272618Y-144048569D02*
X49272618Y-143524759D01*
X49272618Y-143524759D02*
X49224999Y-143429521D01*
X49224999Y-143429521D02*
X49129761Y-143381902D01*
X49129761Y-143381902D02*
X48986904Y-143381902D01*
X48986904Y-143381902D02*
X48891666Y-143429521D01*
X48891666Y-143429521D02*
X48844047Y-143477140D01*
X49605952Y-143381902D02*
X49986904Y-143381902D01*
X49748809Y-143048569D02*
X49748809Y-143905711D01*
X49748809Y-143905711D02*
X49796428Y-144000950D01*
X49796428Y-144000950D02*
X49891666Y-144048569D01*
X49891666Y-144048569D02*
X49986904Y-144048569D01*
X51034524Y-144000950D02*
X51177381Y-144048569D01*
X51177381Y-144048569D02*
X51415476Y-144048569D01*
X51415476Y-144048569D02*
X51510714Y-144000950D01*
X51510714Y-144000950D02*
X51558333Y-143953330D01*
X51558333Y-143953330D02*
X51605952Y-143858092D01*
X51605952Y-143858092D02*
X51605952Y-143762854D01*
X51605952Y-143762854D02*
X51558333Y-143667616D01*
X51558333Y-143667616D02*
X51510714Y-143619997D01*
X51510714Y-143619997D02*
X51415476Y-143572378D01*
X51415476Y-143572378D02*
X51225000Y-143524759D01*
X51225000Y-143524759D02*
X51129762Y-143477140D01*
X51129762Y-143477140D02*
X51082143Y-143429521D01*
X51082143Y-143429521D02*
X51034524Y-143334283D01*
X51034524Y-143334283D02*
X51034524Y-143239045D01*
X51034524Y-143239045D02*
X51082143Y-143143807D01*
X51082143Y-143143807D02*
X51129762Y-143096188D01*
X51129762Y-143096188D02*
X51225000Y-143048569D01*
X51225000Y-143048569D02*
X51463095Y-143048569D01*
X51463095Y-143048569D02*
X51605952Y-143096188D01*
X52034524Y-144048569D02*
X52034524Y-143381902D01*
X52034524Y-143048569D02*
X51986905Y-143096188D01*
X51986905Y-143096188D02*
X52034524Y-143143807D01*
X52034524Y-143143807D02*
X52082143Y-143096188D01*
X52082143Y-143096188D02*
X52034524Y-143048569D01*
X52034524Y-143048569D02*
X52034524Y-143143807D01*
X52939285Y-144048569D02*
X52939285Y-143048569D01*
X52939285Y-144000950D02*
X52844047Y-144048569D01*
X52844047Y-144048569D02*
X52653571Y-144048569D01*
X52653571Y-144048569D02*
X52558333Y-144000950D01*
X52558333Y-144000950D02*
X52510714Y-143953330D01*
X52510714Y-143953330D02*
X52463095Y-143858092D01*
X52463095Y-143858092D02*
X52463095Y-143572378D01*
X52463095Y-143572378D02*
X52510714Y-143477140D01*
X52510714Y-143477140D02*
X52558333Y-143429521D01*
X52558333Y-143429521D02*
X52653571Y-143381902D01*
X52653571Y-143381902D02*
X52844047Y-143381902D01*
X52844047Y-143381902D02*
X52939285Y-143429521D01*
X53796428Y-144000950D02*
X53701190Y-144048569D01*
X53701190Y-144048569D02*
X53510714Y-144048569D01*
X53510714Y-144048569D02*
X53415476Y-144000950D01*
X53415476Y-144000950D02*
X53367857Y-143905711D01*
X53367857Y-143905711D02*
X53367857Y-143524759D01*
X53367857Y-143524759D02*
X53415476Y-143429521D01*
X53415476Y-143429521D02*
X53510714Y-143381902D01*
X53510714Y-143381902D02*
X53701190Y-143381902D01*
X53701190Y-143381902D02*
X53796428Y-143429521D01*
X53796428Y-143429521D02*
X53844047Y-143524759D01*
X53844047Y-143524759D02*
X53844047Y-143619997D01*
X53844047Y-143619997D02*
X53367857Y-143715235D01*
X29618452Y-142429819D02*
X29142262Y-142429819D01*
X29142262Y-142429819D02*
X29142262Y-141429819D01*
X29951786Y-141906009D02*
X30285119Y-141906009D01*
X30427976Y-142429819D02*
X29951786Y-142429819D01*
X29951786Y-142429819D02*
X29951786Y-141429819D01*
X29951786Y-141429819D02*
X30427976Y-141429819D01*
X30856548Y-142429819D02*
X30856548Y-141429819D01*
X30856548Y-141429819D02*
X31094643Y-141429819D01*
X31094643Y-141429819D02*
X31237500Y-141477438D01*
X31237500Y-141477438D02*
X31332738Y-141572676D01*
X31332738Y-141572676D02*
X31380357Y-141667914D01*
X31380357Y-141667914D02*
X31427976Y-141858390D01*
X31427976Y-141858390D02*
X31427976Y-142001247D01*
X31427976Y-142001247D02*
X31380357Y-142191723D01*
X31380357Y-142191723D02*
X31332738Y-142286961D01*
X31332738Y-142286961D02*
X31237500Y-142382200D01*
X31237500Y-142382200D02*
X31094643Y-142429819D01*
X31094643Y-142429819D02*
X30856548Y-142429819D01*
X32380357Y-142429819D02*
X31808929Y-142429819D01*
X32094643Y-142429819D02*
X32094643Y-141429819D01*
X32094643Y-141429819D02*
X31999405Y-141572676D01*
X31999405Y-141572676D02*
X31904167Y-141667914D01*
X31904167Y-141667914D02*
X31808929Y-141715533D01*
X27642261Y-147179819D02*
X27166071Y-147179819D01*
X27166071Y-147179819D02*
X27166071Y-146179819D01*
X27975595Y-147179819D02*
X27975595Y-146513152D01*
X27975595Y-146179819D02*
X27927976Y-146227438D01*
X27927976Y-146227438D02*
X27975595Y-146275057D01*
X27975595Y-146275057D02*
X28023214Y-146227438D01*
X28023214Y-146227438D02*
X27975595Y-146179819D01*
X27975595Y-146179819D02*
X27975595Y-146275057D01*
X28880356Y-146513152D02*
X28880356Y-147322676D01*
X28880356Y-147322676D02*
X28832737Y-147417914D01*
X28832737Y-147417914D02*
X28785118Y-147465533D01*
X28785118Y-147465533D02*
X28689880Y-147513152D01*
X28689880Y-147513152D02*
X28547023Y-147513152D01*
X28547023Y-147513152D02*
X28451785Y-147465533D01*
X28880356Y-147132200D02*
X28785118Y-147179819D01*
X28785118Y-147179819D02*
X28594642Y-147179819D01*
X28594642Y-147179819D02*
X28499404Y-147132200D01*
X28499404Y-147132200D02*
X28451785Y-147084580D01*
X28451785Y-147084580D02*
X28404166Y-146989342D01*
X28404166Y-146989342D02*
X28404166Y-146703628D01*
X28404166Y-146703628D02*
X28451785Y-146608390D01*
X28451785Y-146608390D02*
X28499404Y-146560771D01*
X28499404Y-146560771D02*
X28594642Y-146513152D01*
X28594642Y-146513152D02*
X28785118Y-146513152D01*
X28785118Y-146513152D02*
X28880356Y-146560771D01*
X29356547Y-147179819D02*
X29356547Y-146179819D01*
X29785118Y-147179819D02*
X29785118Y-146656009D01*
X29785118Y-146656009D02*
X29737499Y-146560771D01*
X29737499Y-146560771D02*
X29642261Y-146513152D01*
X29642261Y-146513152D02*
X29499404Y-146513152D01*
X29499404Y-146513152D02*
X29404166Y-146560771D01*
X29404166Y-146560771D02*
X29356547Y-146608390D01*
X30118452Y-146513152D02*
X30499404Y-146513152D01*
X30261309Y-146179819D02*
X30261309Y-147036961D01*
X30261309Y-147036961D02*
X30308928Y-147132200D01*
X30308928Y-147132200D02*
X30404166Y-147179819D01*
X30404166Y-147179819D02*
X30499404Y-147179819D01*
X31547024Y-147132200D02*
X31689881Y-147179819D01*
X31689881Y-147179819D02*
X31927976Y-147179819D01*
X31927976Y-147179819D02*
X32023214Y-147132200D01*
X32023214Y-147132200D02*
X32070833Y-147084580D01*
X32070833Y-147084580D02*
X32118452Y-146989342D01*
X32118452Y-146989342D02*
X32118452Y-146894104D01*
X32118452Y-146894104D02*
X32070833Y-146798866D01*
X32070833Y-146798866D02*
X32023214Y-146751247D01*
X32023214Y-146751247D02*
X31927976Y-146703628D01*
X31927976Y-146703628D02*
X31737500Y-146656009D01*
X31737500Y-146656009D02*
X31642262Y-146608390D01*
X31642262Y-146608390D02*
X31594643Y-146560771D01*
X31594643Y-146560771D02*
X31547024Y-146465533D01*
X31547024Y-146465533D02*
X31547024Y-146370295D01*
X31547024Y-146370295D02*
X31594643Y-146275057D01*
X31594643Y-146275057D02*
X31642262Y-146227438D01*
X31642262Y-146227438D02*
X31737500Y-146179819D01*
X31737500Y-146179819D02*
X31975595Y-146179819D01*
X31975595Y-146179819D02*
X32118452Y-146227438D01*
X32547024Y-147179819D02*
X32547024Y-146513152D01*
X32547024Y-146179819D02*
X32499405Y-146227438D01*
X32499405Y-146227438D02*
X32547024Y-146275057D01*
X32547024Y-146275057D02*
X32594643Y-146227438D01*
X32594643Y-146227438D02*
X32547024Y-146179819D01*
X32547024Y-146179819D02*
X32547024Y-146275057D01*
X33451785Y-147179819D02*
X33451785Y-146179819D01*
X33451785Y-147132200D02*
X33356547Y-147179819D01*
X33356547Y-147179819D02*
X33166071Y-147179819D01*
X33166071Y-147179819D02*
X33070833Y-147132200D01*
X33070833Y-147132200D02*
X33023214Y-147084580D01*
X33023214Y-147084580D02*
X32975595Y-146989342D01*
X32975595Y-146989342D02*
X32975595Y-146703628D01*
X32975595Y-146703628D02*
X33023214Y-146608390D01*
X33023214Y-146608390D02*
X33070833Y-146560771D01*
X33070833Y-146560771D02*
X33166071Y-146513152D01*
X33166071Y-146513152D02*
X33356547Y-146513152D01*
X33356547Y-146513152D02*
X33451785Y-146560771D01*
X34308928Y-147132200D02*
X34213690Y-147179819D01*
X34213690Y-147179819D02*
X34023214Y-147179819D01*
X34023214Y-147179819D02*
X33927976Y-147132200D01*
X33927976Y-147132200D02*
X33880357Y-147036961D01*
X33880357Y-147036961D02*
X33880357Y-146656009D01*
X33880357Y-146656009D02*
X33927976Y-146560771D01*
X33927976Y-146560771D02*
X34023214Y-146513152D01*
X34023214Y-146513152D02*
X34213690Y-146513152D01*
X34213690Y-146513152D02*
X34308928Y-146560771D01*
X34308928Y-146560771D02*
X34356547Y-146656009D01*
X34356547Y-146656009D02*
X34356547Y-146751247D01*
X34356547Y-146751247D02*
X33880357Y-146846485D01*
X85229761Y-129804819D02*
X84753571Y-129804819D01*
X84753571Y-129804819D02*
X84753571Y-128804819D01*
X85563095Y-129804819D02*
X85563095Y-129138152D01*
X85563095Y-128804819D02*
X85515476Y-128852438D01*
X85515476Y-128852438D02*
X85563095Y-128900057D01*
X85563095Y-128900057D02*
X85610714Y-128852438D01*
X85610714Y-128852438D02*
X85563095Y-128804819D01*
X85563095Y-128804819D02*
X85563095Y-128900057D01*
X86467856Y-129138152D02*
X86467856Y-129947676D01*
X86467856Y-129947676D02*
X86420237Y-130042914D01*
X86420237Y-130042914D02*
X86372618Y-130090533D01*
X86372618Y-130090533D02*
X86277380Y-130138152D01*
X86277380Y-130138152D02*
X86134523Y-130138152D01*
X86134523Y-130138152D02*
X86039285Y-130090533D01*
X86467856Y-129757200D02*
X86372618Y-129804819D01*
X86372618Y-129804819D02*
X86182142Y-129804819D01*
X86182142Y-129804819D02*
X86086904Y-129757200D01*
X86086904Y-129757200D02*
X86039285Y-129709580D01*
X86039285Y-129709580D02*
X85991666Y-129614342D01*
X85991666Y-129614342D02*
X85991666Y-129328628D01*
X85991666Y-129328628D02*
X86039285Y-129233390D01*
X86039285Y-129233390D02*
X86086904Y-129185771D01*
X86086904Y-129185771D02*
X86182142Y-129138152D01*
X86182142Y-129138152D02*
X86372618Y-129138152D01*
X86372618Y-129138152D02*
X86467856Y-129185771D01*
X86944047Y-129804819D02*
X86944047Y-128804819D01*
X87372618Y-129804819D02*
X87372618Y-129281009D01*
X87372618Y-129281009D02*
X87324999Y-129185771D01*
X87324999Y-129185771D02*
X87229761Y-129138152D01*
X87229761Y-129138152D02*
X87086904Y-129138152D01*
X87086904Y-129138152D02*
X86991666Y-129185771D01*
X86991666Y-129185771D02*
X86944047Y-129233390D01*
X87705952Y-129138152D02*
X88086904Y-129138152D01*
X87848809Y-128804819D02*
X87848809Y-129661961D01*
X87848809Y-129661961D02*
X87896428Y-129757200D01*
X87896428Y-129757200D02*
X87991666Y-129804819D01*
X87991666Y-129804819D02*
X88086904Y-129804819D01*
X89134524Y-129757200D02*
X89277381Y-129804819D01*
X89277381Y-129804819D02*
X89515476Y-129804819D01*
X89515476Y-129804819D02*
X89610714Y-129757200D01*
X89610714Y-129757200D02*
X89658333Y-129709580D01*
X89658333Y-129709580D02*
X89705952Y-129614342D01*
X89705952Y-129614342D02*
X89705952Y-129519104D01*
X89705952Y-129519104D02*
X89658333Y-129423866D01*
X89658333Y-129423866D02*
X89610714Y-129376247D01*
X89610714Y-129376247D02*
X89515476Y-129328628D01*
X89515476Y-129328628D02*
X89325000Y-129281009D01*
X89325000Y-129281009D02*
X89229762Y-129233390D01*
X89229762Y-129233390D02*
X89182143Y-129185771D01*
X89182143Y-129185771D02*
X89134524Y-129090533D01*
X89134524Y-129090533D02*
X89134524Y-128995295D01*
X89134524Y-128995295D02*
X89182143Y-128900057D01*
X89182143Y-128900057D02*
X89229762Y-128852438D01*
X89229762Y-128852438D02*
X89325000Y-128804819D01*
X89325000Y-128804819D02*
X89563095Y-128804819D01*
X89563095Y-128804819D02*
X89705952Y-128852438D01*
X90134524Y-129804819D02*
X90134524Y-129138152D01*
X90134524Y-128804819D02*
X90086905Y-128852438D01*
X90086905Y-128852438D02*
X90134524Y-128900057D01*
X90134524Y-128900057D02*
X90182143Y-128852438D01*
X90182143Y-128852438D02*
X90134524Y-128804819D01*
X90134524Y-128804819D02*
X90134524Y-128900057D01*
X91039285Y-129804819D02*
X91039285Y-128804819D01*
X91039285Y-129757200D02*
X90944047Y-129804819D01*
X90944047Y-129804819D02*
X90753571Y-129804819D01*
X90753571Y-129804819D02*
X90658333Y-129757200D01*
X90658333Y-129757200D02*
X90610714Y-129709580D01*
X90610714Y-129709580D02*
X90563095Y-129614342D01*
X90563095Y-129614342D02*
X90563095Y-129328628D01*
X90563095Y-129328628D02*
X90610714Y-129233390D01*
X90610714Y-129233390D02*
X90658333Y-129185771D01*
X90658333Y-129185771D02*
X90753571Y-129138152D01*
X90753571Y-129138152D02*
X90944047Y-129138152D01*
X90944047Y-129138152D02*
X91039285Y-129185771D01*
X91896428Y-129757200D02*
X91801190Y-129804819D01*
X91801190Y-129804819D02*
X91610714Y-129804819D01*
X91610714Y-129804819D02*
X91515476Y-129757200D01*
X91515476Y-129757200D02*
X91467857Y-129661961D01*
X91467857Y-129661961D02*
X91467857Y-129281009D01*
X91467857Y-129281009D02*
X91515476Y-129185771D01*
X91515476Y-129185771D02*
X91610714Y-129138152D01*
X91610714Y-129138152D02*
X91801190Y-129138152D01*
X91801190Y-129138152D02*
X91896428Y-129185771D01*
X91896428Y-129185771D02*
X91944047Y-129281009D01*
X91944047Y-129281009D02*
X91944047Y-129376247D01*
X91944047Y-129376247D02*
X91467857Y-129471485D01*
X65961011Y-148104819D02*
X65484821Y-148104819D01*
X65484821Y-148104819D02*
X65484821Y-147104819D01*
X66294345Y-148104819D02*
X66294345Y-147438152D01*
X66294345Y-147104819D02*
X66246726Y-147152438D01*
X66246726Y-147152438D02*
X66294345Y-147200057D01*
X66294345Y-147200057D02*
X66341964Y-147152438D01*
X66341964Y-147152438D02*
X66294345Y-147104819D01*
X66294345Y-147104819D02*
X66294345Y-147200057D01*
X67199106Y-147438152D02*
X67199106Y-148247676D01*
X67199106Y-148247676D02*
X67151487Y-148342914D01*
X67151487Y-148342914D02*
X67103868Y-148390533D01*
X67103868Y-148390533D02*
X67008630Y-148438152D01*
X67008630Y-148438152D02*
X66865773Y-148438152D01*
X66865773Y-148438152D02*
X66770535Y-148390533D01*
X67199106Y-148057200D02*
X67103868Y-148104819D01*
X67103868Y-148104819D02*
X66913392Y-148104819D01*
X66913392Y-148104819D02*
X66818154Y-148057200D01*
X66818154Y-148057200D02*
X66770535Y-148009580D01*
X66770535Y-148009580D02*
X66722916Y-147914342D01*
X66722916Y-147914342D02*
X66722916Y-147628628D01*
X66722916Y-147628628D02*
X66770535Y-147533390D01*
X66770535Y-147533390D02*
X66818154Y-147485771D01*
X66818154Y-147485771D02*
X66913392Y-147438152D01*
X66913392Y-147438152D02*
X67103868Y-147438152D01*
X67103868Y-147438152D02*
X67199106Y-147485771D01*
X67675297Y-148104819D02*
X67675297Y-147104819D01*
X68103868Y-148104819D02*
X68103868Y-147581009D01*
X68103868Y-147581009D02*
X68056249Y-147485771D01*
X68056249Y-147485771D02*
X67961011Y-147438152D01*
X67961011Y-147438152D02*
X67818154Y-147438152D01*
X67818154Y-147438152D02*
X67722916Y-147485771D01*
X67722916Y-147485771D02*
X67675297Y-147533390D01*
X68437202Y-147438152D02*
X68818154Y-147438152D01*
X68580059Y-147104819D02*
X68580059Y-147961961D01*
X68580059Y-147961961D02*
X68627678Y-148057200D01*
X68627678Y-148057200D02*
X68722916Y-148104819D01*
X68722916Y-148104819D02*
X68818154Y-148104819D01*
X69865774Y-148057200D02*
X70008631Y-148104819D01*
X70008631Y-148104819D02*
X70246726Y-148104819D01*
X70246726Y-148104819D02*
X70341964Y-148057200D01*
X70341964Y-148057200D02*
X70389583Y-148009580D01*
X70389583Y-148009580D02*
X70437202Y-147914342D01*
X70437202Y-147914342D02*
X70437202Y-147819104D01*
X70437202Y-147819104D02*
X70389583Y-147723866D01*
X70389583Y-147723866D02*
X70341964Y-147676247D01*
X70341964Y-147676247D02*
X70246726Y-147628628D01*
X70246726Y-147628628D02*
X70056250Y-147581009D01*
X70056250Y-147581009D02*
X69961012Y-147533390D01*
X69961012Y-147533390D02*
X69913393Y-147485771D01*
X69913393Y-147485771D02*
X69865774Y-147390533D01*
X69865774Y-147390533D02*
X69865774Y-147295295D01*
X69865774Y-147295295D02*
X69913393Y-147200057D01*
X69913393Y-147200057D02*
X69961012Y-147152438D01*
X69961012Y-147152438D02*
X70056250Y-147104819D01*
X70056250Y-147104819D02*
X70294345Y-147104819D01*
X70294345Y-147104819D02*
X70437202Y-147152438D01*
X70865774Y-148104819D02*
X70865774Y-147438152D01*
X70865774Y-147104819D02*
X70818155Y-147152438D01*
X70818155Y-147152438D02*
X70865774Y-147200057D01*
X70865774Y-147200057D02*
X70913393Y-147152438D01*
X70913393Y-147152438D02*
X70865774Y-147104819D01*
X70865774Y-147104819D02*
X70865774Y-147200057D01*
X71770535Y-148104819D02*
X71770535Y-147104819D01*
X71770535Y-148057200D02*
X71675297Y-148104819D01*
X71675297Y-148104819D02*
X71484821Y-148104819D01*
X71484821Y-148104819D02*
X71389583Y-148057200D01*
X71389583Y-148057200D02*
X71341964Y-148009580D01*
X71341964Y-148009580D02*
X71294345Y-147914342D01*
X71294345Y-147914342D02*
X71294345Y-147628628D01*
X71294345Y-147628628D02*
X71341964Y-147533390D01*
X71341964Y-147533390D02*
X71389583Y-147485771D01*
X71389583Y-147485771D02*
X71484821Y-147438152D01*
X71484821Y-147438152D02*
X71675297Y-147438152D01*
X71675297Y-147438152D02*
X71770535Y-147485771D01*
X72627678Y-148057200D02*
X72532440Y-148104819D01*
X72532440Y-148104819D02*
X72341964Y-148104819D01*
X72341964Y-148104819D02*
X72246726Y-148057200D01*
X72246726Y-148057200D02*
X72199107Y-147961961D01*
X72199107Y-147961961D02*
X72199107Y-147581009D01*
X72199107Y-147581009D02*
X72246726Y-147485771D01*
X72246726Y-147485771D02*
X72341964Y-147438152D01*
X72341964Y-147438152D02*
X72532440Y-147438152D01*
X72532440Y-147438152D02*
X72627678Y-147485771D01*
X72627678Y-147485771D02*
X72675297Y-147581009D01*
X72675297Y-147581009D02*
X72675297Y-147676247D01*
X72675297Y-147676247D02*
X72199107Y-147771485D01*
X66179761Y-127379819D02*
X65703571Y-127379819D01*
X65703571Y-127379819D02*
X65703571Y-126379819D01*
X66513095Y-127379819D02*
X66513095Y-126713152D01*
X66513095Y-126379819D02*
X66465476Y-126427438D01*
X66465476Y-126427438D02*
X66513095Y-126475057D01*
X66513095Y-126475057D02*
X66560714Y-126427438D01*
X66560714Y-126427438D02*
X66513095Y-126379819D01*
X66513095Y-126379819D02*
X66513095Y-126475057D01*
X67417856Y-126713152D02*
X67417856Y-127522676D01*
X67417856Y-127522676D02*
X67370237Y-127617914D01*
X67370237Y-127617914D02*
X67322618Y-127665533D01*
X67322618Y-127665533D02*
X67227380Y-127713152D01*
X67227380Y-127713152D02*
X67084523Y-127713152D01*
X67084523Y-127713152D02*
X66989285Y-127665533D01*
X67417856Y-127332200D02*
X67322618Y-127379819D01*
X67322618Y-127379819D02*
X67132142Y-127379819D01*
X67132142Y-127379819D02*
X67036904Y-127332200D01*
X67036904Y-127332200D02*
X66989285Y-127284580D01*
X66989285Y-127284580D02*
X66941666Y-127189342D01*
X66941666Y-127189342D02*
X66941666Y-126903628D01*
X66941666Y-126903628D02*
X66989285Y-126808390D01*
X66989285Y-126808390D02*
X67036904Y-126760771D01*
X67036904Y-126760771D02*
X67132142Y-126713152D01*
X67132142Y-126713152D02*
X67322618Y-126713152D01*
X67322618Y-126713152D02*
X67417856Y-126760771D01*
X67894047Y-127379819D02*
X67894047Y-126379819D01*
X68322618Y-127379819D02*
X68322618Y-126856009D01*
X68322618Y-126856009D02*
X68274999Y-126760771D01*
X68274999Y-126760771D02*
X68179761Y-126713152D01*
X68179761Y-126713152D02*
X68036904Y-126713152D01*
X68036904Y-126713152D02*
X67941666Y-126760771D01*
X67941666Y-126760771D02*
X67894047Y-126808390D01*
X68655952Y-126713152D02*
X69036904Y-126713152D01*
X68798809Y-126379819D02*
X68798809Y-127236961D01*
X68798809Y-127236961D02*
X68846428Y-127332200D01*
X68846428Y-127332200D02*
X68941666Y-127379819D01*
X68941666Y-127379819D02*
X69036904Y-127379819D01*
X70084524Y-127332200D02*
X70227381Y-127379819D01*
X70227381Y-127379819D02*
X70465476Y-127379819D01*
X70465476Y-127379819D02*
X70560714Y-127332200D01*
X70560714Y-127332200D02*
X70608333Y-127284580D01*
X70608333Y-127284580D02*
X70655952Y-127189342D01*
X70655952Y-127189342D02*
X70655952Y-127094104D01*
X70655952Y-127094104D02*
X70608333Y-126998866D01*
X70608333Y-126998866D02*
X70560714Y-126951247D01*
X70560714Y-126951247D02*
X70465476Y-126903628D01*
X70465476Y-126903628D02*
X70275000Y-126856009D01*
X70275000Y-126856009D02*
X70179762Y-126808390D01*
X70179762Y-126808390D02*
X70132143Y-126760771D01*
X70132143Y-126760771D02*
X70084524Y-126665533D01*
X70084524Y-126665533D02*
X70084524Y-126570295D01*
X70084524Y-126570295D02*
X70132143Y-126475057D01*
X70132143Y-126475057D02*
X70179762Y-126427438D01*
X70179762Y-126427438D02*
X70275000Y-126379819D01*
X70275000Y-126379819D02*
X70513095Y-126379819D01*
X70513095Y-126379819D02*
X70655952Y-126427438D01*
X71084524Y-127379819D02*
X71084524Y-126713152D01*
X71084524Y-126379819D02*
X71036905Y-126427438D01*
X71036905Y-126427438D02*
X71084524Y-126475057D01*
X71084524Y-126475057D02*
X71132143Y-126427438D01*
X71132143Y-126427438D02*
X71084524Y-126379819D01*
X71084524Y-126379819D02*
X71084524Y-126475057D01*
X71989285Y-127379819D02*
X71989285Y-126379819D01*
X71989285Y-127332200D02*
X71894047Y-127379819D01*
X71894047Y-127379819D02*
X71703571Y-127379819D01*
X71703571Y-127379819D02*
X71608333Y-127332200D01*
X71608333Y-127332200D02*
X71560714Y-127284580D01*
X71560714Y-127284580D02*
X71513095Y-127189342D01*
X71513095Y-127189342D02*
X71513095Y-126903628D01*
X71513095Y-126903628D02*
X71560714Y-126808390D01*
X71560714Y-126808390D02*
X71608333Y-126760771D01*
X71608333Y-126760771D02*
X71703571Y-126713152D01*
X71703571Y-126713152D02*
X71894047Y-126713152D01*
X71894047Y-126713152D02*
X71989285Y-126760771D01*
X72846428Y-127332200D02*
X72751190Y-127379819D01*
X72751190Y-127379819D02*
X72560714Y-127379819D01*
X72560714Y-127379819D02*
X72465476Y-127332200D01*
X72465476Y-127332200D02*
X72417857Y-127236961D01*
X72417857Y-127236961D02*
X72417857Y-126856009D01*
X72417857Y-126856009D02*
X72465476Y-126760771D01*
X72465476Y-126760771D02*
X72560714Y-126713152D01*
X72560714Y-126713152D02*
X72751190Y-126713152D01*
X72751190Y-126713152D02*
X72846428Y-126760771D01*
X72846428Y-126760771D02*
X72894047Y-126856009D01*
X72894047Y-126856009D02*
X72894047Y-126951247D01*
X72894047Y-126951247D02*
X72417857Y-127046485D01*
X104279761Y-182767319D02*
X103803571Y-182767319D01*
X103803571Y-182767319D02*
X103803571Y-181767319D01*
X104613095Y-182767319D02*
X104613095Y-182100652D01*
X104613095Y-181767319D02*
X104565476Y-181814938D01*
X104565476Y-181814938D02*
X104613095Y-181862557D01*
X104613095Y-181862557D02*
X104660714Y-181814938D01*
X104660714Y-181814938D02*
X104613095Y-181767319D01*
X104613095Y-181767319D02*
X104613095Y-181862557D01*
X105517856Y-182100652D02*
X105517856Y-182910176D01*
X105517856Y-182910176D02*
X105470237Y-183005414D01*
X105470237Y-183005414D02*
X105422618Y-183053033D01*
X105422618Y-183053033D02*
X105327380Y-183100652D01*
X105327380Y-183100652D02*
X105184523Y-183100652D01*
X105184523Y-183100652D02*
X105089285Y-183053033D01*
X105517856Y-182719700D02*
X105422618Y-182767319D01*
X105422618Y-182767319D02*
X105232142Y-182767319D01*
X105232142Y-182767319D02*
X105136904Y-182719700D01*
X105136904Y-182719700D02*
X105089285Y-182672080D01*
X105089285Y-182672080D02*
X105041666Y-182576842D01*
X105041666Y-182576842D02*
X105041666Y-182291128D01*
X105041666Y-182291128D02*
X105089285Y-182195890D01*
X105089285Y-182195890D02*
X105136904Y-182148271D01*
X105136904Y-182148271D02*
X105232142Y-182100652D01*
X105232142Y-182100652D02*
X105422618Y-182100652D01*
X105422618Y-182100652D02*
X105517856Y-182148271D01*
X105994047Y-182767319D02*
X105994047Y-181767319D01*
X106422618Y-182767319D02*
X106422618Y-182243509D01*
X106422618Y-182243509D02*
X106374999Y-182148271D01*
X106374999Y-182148271D02*
X106279761Y-182100652D01*
X106279761Y-182100652D02*
X106136904Y-182100652D01*
X106136904Y-182100652D02*
X106041666Y-182148271D01*
X106041666Y-182148271D02*
X105994047Y-182195890D01*
X106755952Y-182100652D02*
X107136904Y-182100652D01*
X106898809Y-181767319D02*
X106898809Y-182624461D01*
X106898809Y-182624461D02*
X106946428Y-182719700D01*
X106946428Y-182719700D02*
X107041666Y-182767319D01*
X107041666Y-182767319D02*
X107136904Y-182767319D01*
X108184524Y-182719700D02*
X108327381Y-182767319D01*
X108327381Y-182767319D02*
X108565476Y-182767319D01*
X108565476Y-182767319D02*
X108660714Y-182719700D01*
X108660714Y-182719700D02*
X108708333Y-182672080D01*
X108708333Y-182672080D02*
X108755952Y-182576842D01*
X108755952Y-182576842D02*
X108755952Y-182481604D01*
X108755952Y-182481604D02*
X108708333Y-182386366D01*
X108708333Y-182386366D02*
X108660714Y-182338747D01*
X108660714Y-182338747D02*
X108565476Y-182291128D01*
X108565476Y-182291128D02*
X108375000Y-182243509D01*
X108375000Y-182243509D02*
X108279762Y-182195890D01*
X108279762Y-182195890D02*
X108232143Y-182148271D01*
X108232143Y-182148271D02*
X108184524Y-182053033D01*
X108184524Y-182053033D02*
X108184524Y-181957795D01*
X108184524Y-181957795D02*
X108232143Y-181862557D01*
X108232143Y-181862557D02*
X108279762Y-181814938D01*
X108279762Y-181814938D02*
X108375000Y-181767319D01*
X108375000Y-181767319D02*
X108613095Y-181767319D01*
X108613095Y-181767319D02*
X108755952Y-181814938D01*
X109184524Y-182767319D02*
X109184524Y-182100652D01*
X109184524Y-181767319D02*
X109136905Y-181814938D01*
X109136905Y-181814938D02*
X109184524Y-181862557D01*
X109184524Y-181862557D02*
X109232143Y-181814938D01*
X109232143Y-181814938D02*
X109184524Y-181767319D01*
X109184524Y-181767319D02*
X109184524Y-181862557D01*
X110089285Y-182767319D02*
X110089285Y-181767319D01*
X110089285Y-182719700D02*
X109994047Y-182767319D01*
X109994047Y-182767319D02*
X109803571Y-182767319D01*
X109803571Y-182767319D02*
X109708333Y-182719700D01*
X109708333Y-182719700D02*
X109660714Y-182672080D01*
X109660714Y-182672080D02*
X109613095Y-182576842D01*
X109613095Y-182576842D02*
X109613095Y-182291128D01*
X109613095Y-182291128D02*
X109660714Y-182195890D01*
X109660714Y-182195890D02*
X109708333Y-182148271D01*
X109708333Y-182148271D02*
X109803571Y-182100652D01*
X109803571Y-182100652D02*
X109994047Y-182100652D01*
X109994047Y-182100652D02*
X110089285Y-182148271D01*
X110946428Y-182719700D02*
X110851190Y-182767319D01*
X110851190Y-182767319D02*
X110660714Y-182767319D01*
X110660714Y-182767319D02*
X110565476Y-182719700D01*
X110565476Y-182719700D02*
X110517857Y-182624461D01*
X110517857Y-182624461D02*
X110517857Y-182243509D01*
X110517857Y-182243509D02*
X110565476Y-182148271D01*
X110565476Y-182148271D02*
X110660714Y-182100652D01*
X110660714Y-182100652D02*
X110851190Y-182100652D01*
X110851190Y-182100652D02*
X110946428Y-182148271D01*
X110946428Y-182148271D02*
X110994047Y-182243509D01*
X110994047Y-182243509D02*
X110994047Y-182338747D01*
X110994047Y-182338747D02*
X110517857Y-182433985D01*
X104279761Y-164554819D02*
X103803571Y-164554819D01*
X103803571Y-164554819D02*
X103803571Y-163554819D01*
X104613095Y-164554819D02*
X104613095Y-163888152D01*
X104613095Y-163554819D02*
X104565476Y-163602438D01*
X104565476Y-163602438D02*
X104613095Y-163650057D01*
X104613095Y-163650057D02*
X104660714Y-163602438D01*
X104660714Y-163602438D02*
X104613095Y-163554819D01*
X104613095Y-163554819D02*
X104613095Y-163650057D01*
X105517856Y-163888152D02*
X105517856Y-164697676D01*
X105517856Y-164697676D02*
X105470237Y-164792914D01*
X105470237Y-164792914D02*
X105422618Y-164840533D01*
X105422618Y-164840533D02*
X105327380Y-164888152D01*
X105327380Y-164888152D02*
X105184523Y-164888152D01*
X105184523Y-164888152D02*
X105089285Y-164840533D01*
X105517856Y-164507200D02*
X105422618Y-164554819D01*
X105422618Y-164554819D02*
X105232142Y-164554819D01*
X105232142Y-164554819D02*
X105136904Y-164507200D01*
X105136904Y-164507200D02*
X105089285Y-164459580D01*
X105089285Y-164459580D02*
X105041666Y-164364342D01*
X105041666Y-164364342D02*
X105041666Y-164078628D01*
X105041666Y-164078628D02*
X105089285Y-163983390D01*
X105089285Y-163983390D02*
X105136904Y-163935771D01*
X105136904Y-163935771D02*
X105232142Y-163888152D01*
X105232142Y-163888152D02*
X105422618Y-163888152D01*
X105422618Y-163888152D02*
X105517856Y-163935771D01*
X105994047Y-164554819D02*
X105994047Y-163554819D01*
X106422618Y-164554819D02*
X106422618Y-164031009D01*
X106422618Y-164031009D02*
X106374999Y-163935771D01*
X106374999Y-163935771D02*
X106279761Y-163888152D01*
X106279761Y-163888152D02*
X106136904Y-163888152D01*
X106136904Y-163888152D02*
X106041666Y-163935771D01*
X106041666Y-163935771D02*
X105994047Y-163983390D01*
X106755952Y-163888152D02*
X107136904Y-163888152D01*
X106898809Y-163554819D02*
X106898809Y-164411961D01*
X106898809Y-164411961D02*
X106946428Y-164507200D01*
X106946428Y-164507200D02*
X107041666Y-164554819D01*
X107041666Y-164554819D02*
X107136904Y-164554819D01*
X108184524Y-164507200D02*
X108327381Y-164554819D01*
X108327381Y-164554819D02*
X108565476Y-164554819D01*
X108565476Y-164554819D02*
X108660714Y-164507200D01*
X108660714Y-164507200D02*
X108708333Y-164459580D01*
X108708333Y-164459580D02*
X108755952Y-164364342D01*
X108755952Y-164364342D02*
X108755952Y-164269104D01*
X108755952Y-164269104D02*
X108708333Y-164173866D01*
X108708333Y-164173866D02*
X108660714Y-164126247D01*
X108660714Y-164126247D02*
X108565476Y-164078628D01*
X108565476Y-164078628D02*
X108375000Y-164031009D01*
X108375000Y-164031009D02*
X108279762Y-163983390D01*
X108279762Y-163983390D02*
X108232143Y-163935771D01*
X108232143Y-163935771D02*
X108184524Y-163840533D01*
X108184524Y-163840533D02*
X108184524Y-163745295D01*
X108184524Y-163745295D02*
X108232143Y-163650057D01*
X108232143Y-163650057D02*
X108279762Y-163602438D01*
X108279762Y-163602438D02*
X108375000Y-163554819D01*
X108375000Y-163554819D02*
X108613095Y-163554819D01*
X108613095Y-163554819D02*
X108755952Y-163602438D01*
X109184524Y-164554819D02*
X109184524Y-163888152D01*
X109184524Y-163554819D02*
X109136905Y-163602438D01*
X109136905Y-163602438D02*
X109184524Y-163650057D01*
X109184524Y-163650057D02*
X109232143Y-163602438D01*
X109232143Y-163602438D02*
X109184524Y-163554819D01*
X109184524Y-163554819D02*
X109184524Y-163650057D01*
X110089285Y-164554819D02*
X110089285Y-163554819D01*
X110089285Y-164507200D02*
X109994047Y-164554819D01*
X109994047Y-164554819D02*
X109803571Y-164554819D01*
X109803571Y-164554819D02*
X109708333Y-164507200D01*
X109708333Y-164507200D02*
X109660714Y-164459580D01*
X109660714Y-164459580D02*
X109613095Y-164364342D01*
X109613095Y-164364342D02*
X109613095Y-164078628D01*
X109613095Y-164078628D02*
X109660714Y-163983390D01*
X109660714Y-163983390D02*
X109708333Y-163935771D01*
X109708333Y-163935771D02*
X109803571Y-163888152D01*
X109803571Y-163888152D02*
X109994047Y-163888152D01*
X109994047Y-163888152D02*
X110089285Y-163935771D01*
X110946428Y-164507200D02*
X110851190Y-164554819D01*
X110851190Y-164554819D02*
X110660714Y-164554819D01*
X110660714Y-164554819D02*
X110565476Y-164507200D01*
X110565476Y-164507200D02*
X110517857Y-164411961D01*
X110517857Y-164411961D02*
X110517857Y-164031009D01*
X110517857Y-164031009D02*
X110565476Y-163935771D01*
X110565476Y-163935771D02*
X110660714Y-163888152D01*
X110660714Y-163888152D02*
X110851190Y-163888152D01*
X110851190Y-163888152D02*
X110946428Y-163935771D01*
X110946428Y-163935771D02*
X110994047Y-164031009D01*
X110994047Y-164031009D02*
X110994047Y-164126247D01*
X110994047Y-164126247D02*
X110517857Y-164221485D01*
X27861011Y-166729819D02*
X27384821Y-166729819D01*
X27384821Y-166729819D02*
X27384821Y-165729819D01*
X28194345Y-166729819D02*
X28194345Y-166063152D01*
X28194345Y-165729819D02*
X28146726Y-165777438D01*
X28146726Y-165777438D02*
X28194345Y-165825057D01*
X28194345Y-165825057D02*
X28241964Y-165777438D01*
X28241964Y-165777438D02*
X28194345Y-165729819D01*
X28194345Y-165729819D02*
X28194345Y-165825057D01*
X29099106Y-166063152D02*
X29099106Y-166872676D01*
X29099106Y-166872676D02*
X29051487Y-166967914D01*
X29051487Y-166967914D02*
X29003868Y-167015533D01*
X29003868Y-167015533D02*
X28908630Y-167063152D01*
X28908630Y-167063152D02*
X28765773Y-167063152D01*
X28765773Y-167063152D02*
X28670535Y-167015533D01*
X29099106Y-166682200D02*
X29003868Y-166729819D01*
X29003868Y-166729819D02*
X28813392Y-166729819D01*
X28813392Y-166729819D02*
X28718154Y-166682200D01*
X28718154Y-166682200D02*
X28670535Y-166634580D01*
X28670535Y-166634580D02*
X28622916Y-166539342D01*
X28622916Y-166539342D02*
X28622916Y-166253628D01*
X28622916Y-166253628D02*
X28670535Y-166158390D01*
X28670535Y-166158390D02*
X28718154Y-166110771D01*
X28718154Y-166110771D02*
X28813392Y-166063152D01*
X28813392Y-166063152D02*
X29003868Y-166063152D01*
X29003868Y-166063152D02*
X29099106Y-166110771D01*
X29575297Y-166729819D02*
X29575297Y-165729819D01*
X30003868Y-166729819D02*
X30003868Y-166206009D01*
X30003868Y-166206009D02*
X29956249Y-166110771D01*
X29956249Y-166110771D02*
X29861011Y-166063152D01*
X29861011Y-166063152D02*
X29718154Y-166063152D01*
X29718154Y-166063152D02*
X29622916Y-166110771D01*
X29622916Y-166110771D02*
X29575297Y-166158390D01*
X30337202Y-166063152D02*
X30718154Y-166063152D01*
X30480059Y-165729819D02*
X30480059Y-166586961D01*
X30480059Y-166586961D02*
X30527678Y-166682200D01*
X30527678Y-166682200D02*
X30622916Y-166729819D01*
X30622916Y-166729819D02*
X30718154Y-166729819D01*
X31765774Y-166682200D02*
X31908631Y-166729819D01*
X31908631Y-166729819D02*
X32146726Y-166729819D01*
X32146726Y-166729819D02*
X32241964Y-166682200D01*
X32241964Y-166682200D02*
X32289583Y-166634580D01*
X32289583Y-166634580D02*
X32337202Y-166539342D01*
X32337202Y-166539342D02*
X32337202Y-166444104D01*
X32337202Y-166444104D02*
X32289583Y-166348866D01*
X32289583Y-166348866D02*
X32241964Y-166301247D01*
X32241964Y-166301247D02*
X32146726Y-166253628D01*
X32146726Y-166253628D02*
X31956250Y-166206009D01*
X31956250Y-166206009D02*
X31861012Y-166158390D01*
X31861012Y-166158390D02*
X31813393Y-166110771D01*
X31813393Y-166110771D02*
X31765774Y-166015533D01*
X31765774Y-166015533D02*
X31765774Y-165920295D01*
X31765774Y-165920295D02*
X31813393Y-165825057D01*
X31813393Y-165825057D02*
X31861012Y-165777438D01*
X31861012Y-165777438D02*
X31956250Y-165729819D01*
X31956250Y-165729819D02*
X32194345Y-165729819D01*
X32194345Y-165729819D02*
X32337202Y-165777438D01*
X32765774Y-166729819D02*
X32765774Y-166063152D01*
X32765774Y-165729819D02*
X32718155Y-165777438D01*
X32718155Y-165777438D02*
X32765774Y-165825057D01*
X32765774Y-165825057D02*
X32813393Y-165777438D01*
X32813393Y-165777438D02*
X32765774Y-165729819D01*
X32765774Y-165729819D02*
X32765774Y-165825057D01*
X33670535Y-166729819D02*
X33670535Y-165729819D01*
X33670535Y-166682200D02*
X33575297Y-166729819D01*
X33575297Y-166729819D02*
X33384821Y-166729819D01*
X33384821Y-166729819D02*
X33289583Y-166682200D01*
X33289583Y-166682200D02*
X33241964Y-166634580D01*
X33241964Y-166634580D02*
X33194345Y-166539342D01*
X33194345Y-166539342D02*
X33194345Y-166253628D01*
X33194345Y-166253628D02*
X33241964Y-166158390D01*
X33241964Y-166158390D02*
X33289583Y-166110771D01*
X33289583Y-166110771D02*
X33384821Y-166063152D01*
X33384821Y-166063152D02*
X33575297Y-166063152D01*
X33575297Y-166063152D02*
X33670535Y-166110771D01*
X34527678Y-166682200D02*
X34432440Y-166729819D01*
X34432440Y-166729819D02*
X34241964Y-166729819D01*
X34241964Y-166729819D02*
X34146726Y-166682200D01*
X34146726Y-166682200D02*
X34099107Y-166586961D01*
X34099107Y-166586961D02*
X34099107Y-166206009D01*
X34099107Y-166206009D02*
X34146726Y-166110771D01*
X34146726Y-166110771D02*
X34241964Y-166063152D01*
X34241964Y-166063152D02*
X34432440Y-166063152D01*
X34432440Y-166063152D02*
X34527678Y-166110771D01*
X34527678Y-166110771D02*
X34575297Y-166206009D01*
X34575297Y-166206009D02*
X34575297Y-166301247D01*
X34575297Y-166301247D02*
X34099107Y-166396485D01*
X46911011Y-164729819D02*
X46434821Y-164729819D01*
X46434821Y-164729819D02*
X46434821Y-163729819D01*
X47244345Y-164729819D02*
X47244345Y-164063152D01*
X47244345Y-163729819D02*
X47196726Y-163777438D01*
X47196726Y-163777438D02*
X47244345Y-163825057D01*
X47244345Y-163825057D02*
X47291964Y-163777438D01*
X47291964Y-163777438D02*
X47244345Y-163729819D01*
X47244345Y-163729819D02*
X47244345Y-163825057D01*
X48149106Y-164063152D02*
X48149106Y-164872676D01*
X48149106Y-164872676D02*
X48101487Y-164967914D01*
X48101487Y-164967914D02*
X48053868Y-165015533D01*
X48053868Y-165015533D02*
X47958630Y-165063152D01*
X47958630Y-165063152D02*
X47815773Y-165063152D01*
X47815773Y-165063152D02*
X47720535Y-165015533D01*
X48149106Y-164682200D02*
X48053868Y-164729819D01*
X48053868Y-164729819D02*
X47863392Y-164729819D01*
X47863392Y-164729819D02*
X47768154Y-164682200D01*
X47768154Y-164682200D02*
X47720535Y-164634580D01*
X47720535Y-164634580D02*
X47672916Y-164539342D01*
X47672916Y-164539342D02*
X47672916Y-164253628D01*
X47672916Y-164253628D02*
X47720535Y-164158390D01*
X47720535Y-164158390D02*
X47768154Y-164110771D01*
X47768154Y-164110771D02*
X47863392Y-164063152D01*
X47863392Y-164063152D02*
X48053868Y-164063152D01*
X48053868Y-164063152D02*
X48149106Y-164110771D01*
X48625297Y-164729819D02*
X48625297Y-163729819D01*
X49053868Y-164729819D02*
X49053868Y-164206009D01*
X49053868Y-164206009D02*
X49006249Y-164110771D01*
X49006249Y-164110771D02*
X48911011Y-164063152D01*
X48911011Y-164063152D02*
X48768154Y-164063152D01*
X48768154Y-164063152D02*
X48672916Y-164110771D01*
X48672916Y-164110771D02*
X48625297Y-164158390D01*
X49387202Y-164063152D02*
X49768154Y-164063152D01*
X49530059Y-163729819D02*
X49530059Y-164586961D01*
X49530059Y-164586961D02*
X49577678Y-164682200D01*
X49577678Y-164682200D02*
X49672916Y-164729819D01*
X49672916Y-164729819D02*
X49768154Y-164729819D01*
X50815774Y-164682200D02*
X50958631Y-164729819D01*
X50958631Y-164729819D02*
X51196726Y-164729819D01*
X51196726Y-164729819D02*
X51291964Y-164682200D01*
X51291964Y-164682200D02*
X51339583Y-164634580D01*
X51339583Y-164634580D02*
X51387202Y-164539342D01*
X51387202Y-164539342D02*
X51387202Y-164444104D01*
X51387202Y-164444104D02*
X51339583Y-164348866D01*
X51339583Y-164348866D02*
X51291964Y-164301247D01*
X51291964Y-164301247D02*
X51196726Y-164253628D01*
X51196726Y-164253628D02*
X51006250Y-164206009D01*
X51006250Y-164206009D02*
X50911012Y-164158390D01*
X50911012Y-164158390D02*
X50863393Y-164110771D01*
X50863393Y-164110771D02*
X50815774Y-164015533D01*
X50815774Y-164015533D02*
X50815774Y-163920295D01*
X50815774Y-163920295D02*
X50863393Y-163825057D01*
X50863393Y-163825057D02*
X50911012Y-163777438D01*
X50911012Y-163777438D02*
X51006250Y-163729819D01*
X51006250Y-163729819D02*
X51244345Y-163729819D01*
X51244345Y-163729819D02*
X51387202Y-163777438D01*
X51815774Y-164729819D02*
X51815774Y-164063152D01*
X51815774Y-163729819D02*
X51768155Y-163777438D01*
X51768155Y-163777438D02*
X51815774Y-163825057D01*
X51815774Y-163825057D02*
X51863393Y-163777438D01*
X51863393Y-163777438D02*
X51815774Y-163729819D01*
X51815774Y-163729819D02*
X51815774Y-163825057D01*
X52720535Y-164729819D02*
X52720535Y-163729819D01*
X52720535Y-164682200D02*
X52625297Y-164729819D01*
X52625297Y-164729819D02*
X52434821Y-164729819D01*
X52434821Y-164729819D02*
X52339583Y-164682200D01*
X52339583Y-164682200D02*
X52291964Y-164634580D01*
X52291964Y-164634580D02*
X52244345Y-164539342D01*
X52244345Y-164539342D02*
X52244345Y-164253628D01*
X52244345Y-164253628D02*
X52291964Y-164158390D01*
X52291964Y-164158390D02*
X52339583Y-164110771D01*
X52339583Y-164110771D02*
X52434821Y-164063152D01*
X52434821Y-164063152D02*
X52625297Y-164063152D01*
X52625297Y-164063152D02*
X52720535Y-164110771D01*
X53577678Y-164682200D02*
X53482440Y-164729819D01*
X53482440Y-164729819D02*
X53291964Y-164729819D01*
X53291964Y-164729819D02*
X53196726Y-164682200D01*
X53196726Y-164682200D02*
X53149107Y-164586961D01*
X53149107Y-164586961D02*
X53149107Y-164206009D01*
X53149107Y-164206009D02*
X53196726Y-164110771D01*
X53196726Y-164110771D02*
X53291964Y-164063152D01*
X53291964Y-164063152D02*
X53482440Y-164063152D01*
X53482440Y-164063152D02*
X53577678Y-164110771D01*
X53577678Y-164110771D02*
X53625297Y-164206009D01*
X53625297Y-164206009D02*
X53625297Y-164301247D01*
X53625297Y-164301247D02*
X53149107Y-164396485D01*
X85229761Y-148854819D02*
X84753571Y-148854819D01*
X84753571Y-148854819D02*
X84753571Y-147854819D01*
X85563095Y-148854819D02*
X85563095Y-148188152D01*
X85563095Y-147854819D02*
X85515476Y-147902438D01*
X85515476Y-147902438D02*
X85563095Y-147950057D01*
X85563095Y-147950057D02*
X85610714Y-147902438D01*
X85610714Y-147902438D02*
X85563095Y-147854819D01*
X85563095Y-147854819D02*
X85563095Y-147950057D01*
X86467856Y-148188152D02*
X86467856Y-148997676D01*
X86467856Y-148997676D02*
X86420237Y-149092914D01*
X86420237Y-149092914D02*
X86372618Y-149140533D01*
X86372618Y-149140533D02*
X86277380Y-149188152D01*
X86277380Y-149188152D02*
X86134523Y-149188152D01*
X86134523Y-149188152D02*
X86039285Y-149140533D01*
X86467856Y-148807200D02*
X86372618Y-148854819D01*
X86372618Y-148854819D02*
X86182142Y-148854819D01*
X86182142Y-148854819D02*
X86086904Y-148807200D01*
X86086904Y-148807200D02*
X86039285Y-148759580D01*
X86039285Y-148759580D02*
X85991666Y-148664342D01*
X85991666Y-148664342D02*
X85991666Y-148378628D01*
X85991666Y-148378628D02*
X86039285Y-148283390D01*
X86039285Y-148283390D02*
X86086904Y-148235771D01*
X86086904Y-148235771D02*
X86182142Y-148188152D01*
X86182142Y-148188152D02*
X86372618Y-148188152D01*
X86372618Y-148188152D02*
X86467856Y-148235771D01*
X86944047Y-148854819D02*
X86944047Y-147854819D01*
X87372618Y-148854819D02*
X87372618Y-148331009D01*
X87372618Y-148331009D02*
X87324999Y-148235771D01*
X87324999Y-148235771D02*
X87229761Y-148188152D01*
X87229761Y-148188152D02*
X87086904Y-148188152D01*
X87086904Y-148188152D02*
X86991666Y-148235771D01*
X86991666Y-148235771D02*
X86944047Y-148283390D01*
X87705952Y-148188152D02*
X88086904Y-148188152D01*
X87848809Y-147854819D02*
X87848809Y-148711961D01*
X87848809Y-148711961D02*
X87896428Y-148807200D01*
X87896428Y-148807200D02*
X87991666Y-148854819D01*
X87991666Y-148854819D02*
X88086904Y-148854819D01*
X89134524Y-148807200D02*
X89277381Y-148854819D01*
X89277381Y-148854819D02*
X89515476Y-148854819D01*
X89515476Y-148854819D02*
X89610714Y-148807200D01*
X89610714Y-148807200D02*
X89658333Y-148759580D01*
X89658333Y-148759580D02*
X89705952Y-148664342D01*
X89705952Y-148664342D02*
X89705952Y-148569104D01*
X89705952Y-148569104D02*
X89658333Y-148473866D01*
X89658333Y-148473866D02*
X89610714Y-148426247D01*
X89610714Y-148426247D02*
X89515476Y-148378628D01*
X89515476Y-148378628D02*
X89325000Y-148331009D01*
X89325000Y-148331009D02*
X89229762Y-148283390D01*
X89229762Y-148283390D02*
X89182143Y-148235771D01*
X89182143Y-148235771D02*
X89134524Y-148140533D01*
X89134524Y-148140533D02*
X89134524Y-148045295D01*
X89134524Y-148045295D02*
X89182143Y-147950057D01*
X89182143Y-147950057D02*
X89229762Y-147902438D01*
X89229762Y-147902438D02*
X89325000Y-147854819D01*
X89325000Y-147854819D02*
X89563095Y-147854819D01*
X89563095Y-147854819D02*
X89705952Y-147902438D01*
X90134524Y-148854819D02*
X90134524Y-148188152D01*
X90134524Y-147854819D02*
X90086905Y-147902438D01*
X90086905Y-147902438D02*
X90134524Y-147950057D01*
X90134524Y-147950057D02*
X90182143Y-147902438D01*
X90182143Y-147902438D02*
X90134524Y-147854819D01*
X90134524Y-147854819D02*
X90134524Y-147950057D01*
X91039285Y-148854819D02*
X91039285Y-147854819D01*
X91039285Y-148807200D02*
X90944047Y-148854819D01*
X90944047Y-148854819D02*
X90753571Y-148854819D01*
X90753571Y-148854819D02*
X90658333Y-148807200D01*
X90658333Y-148807200D02*
X90610714Y-148759580D01*
X90610714Y-148759580D02*
X90563095Y-148664342D01*
X90563095Y-148664342D02*
X90563095Y-148378628D01*
X90563095Y-148378628D02*
X90610714Y-148283390D01*
X90610714Y-148283390D02*
X90658333Y-148235771D01*
X90658333Y-148235771D02*
X90753571Y-148188152D01*
X90753571Y-148188152D02*
X90944047Y-148188152D01*
X90944047Y-148188152D02*
X91039285Y-148235771D01*
X91896428Y-148807200D02*
X91801190Y-148854819D01*
X91801190Y-148854819D02*
X91610714Y-148854819D01*
X91610714Y-148854819D02*
X91515476Y-148807200D01*
X91515476Y-148807200D02*
X91467857Y-148711961D01*
X91467857Y-148711961D02*
X91467857Y-148331009D01*
X91467857Y-148331009D02*
X91515476Y-148235771D01*
X91515476Y-148235771D02*
X91610714Y-148188152D01*
X91610714Y-148188152D02*
X91801190Y-148188152D01*
X91801190Y-148188152D02*
X91896428Y-148235771D01*
X91896428Y-148235771D02*
X91944047Y-148331009D01*
X91944047Y-148331009D02*
X91944047Y-148426247D01*
X91944047Y-148426247D02*
X91467857Y-148521485D01*
D11*
X117328047Y-112729678D02*
X117280428Y-112693964D01*
X117280428Y-112693964D02*
X117208999Y-112693964D01*
X117208999Y-112693964D02*
X117137571Y-112729678D01*
X117137571Y-112729678D02*
X117089952Y-112801107D01*
X117089952Y-112801107D02*
X117066142Y-112872535D01*
X117066142Y-112872535D02*
X117042333Y-113015392D01*
X117042333Y-113015392D02*
X117042333Y-113122535D01*
X117042333Y-113122535D02*
X117066142Y-113265392D01*
X117066142Y-113265392D02*
X117089952Y-113336821D01*
X117089952Y-113336821D02*
X117137571Y-113408250D01*
X117137571Y-113408250D02*
X117208999Y-113443964D01*
X117208999Y-113443964D02*
X117256618Y-113443964D01*
X117256618Y-113443964D02*
X117328047Y-113408250D01*
X117328047Y-113408250D02*
X117351856Y-113372535D01*
X117351856Y-113372535D02*
X117351856Y-113122535D01*
X117351856Y-113122535D02*
X117256618Y-113122535D01*
X117566142Y-113443964D02*
X117566142Y-112693964D01*
X117566142Y-112693964D02*
X117851856Y-113443964D01*
X117851856Y-113443964D02*
X117851856Y-112693964D01*
X118089952Y-113443964D02*
X118089952Y-112693964D01*
X118089952Y-112693964D02*
X118209000Y-112693964D01*
X118209000Y-112693964D02*
X118280428Y-112729678D01*
X118280428Y-112729678D02*
X118328047Y-112801107D01*
X118328047Y-112801107D02*
X118351857Y-112872535D01*
X118351857Y-112872535D02*
X118375666Y-113015392D01*
X118375666Y-113015392D02*
X118375666Y-113122535D01*
X118375666Y-113122535D02*
X118351857Y-113265392D01*
X118351857Y-113265392D02*
X118328047Y-113336821D01*
X118328047Y-113336821D02*
X118280428Y-113408250D01*
X118280428Y-113408250D02*
X118209000Y-113443964D01*
X118209000Y-113443964D02*
X118089952Y-113443964D01*
X102123761Y-108363964D02*
X101957095Y-108006821D01*
X101838047Y-108363964D02*
X101838047Y-107613964D01*
X101838047Y-107613964D02*
X102028523Y-107613964D01*
X102028523Y-107613964D02*
X102076142Y-107649678D01*
X102076142Y-107649678D02*
X102099952Y-107685392D01*
X102099952Y-107685392D02*
X102123761Y-107756821D01*
X102123761Y-107756821D02*
X102123761Y-107863964D01*
X102123761Y-107863964D02*
X102099952Y-107935392D01*
X102099952Y-107935392D02*
X102076142Y-107971107D01*
X102076142Y-107971107D02*
X102028523Y-108006821D01*
X102028523Y-108006821D02*
X101838047Y-108006821D01*
X102314238Y-108149678D02*
X102552333Y-108149678D01*
X102266619Y-108363964D02*
X102433285Y-107613964D01*
X102433285Y-107613964D02*
X102599952Y-108363964D01*
X102718999Y-107613964D02*
X102838047Y-108363964D01*
X102838047Y-108363964D02*
X102933285Y-107828250D01*
X102933285Y-107828250D02*
X103028523Y-108363964D01*
X103028523Y-108363964D02*
X103147571Y-107613964D01*
X102057619Y-130865607D02*
X102129047Y-130901321D01*
X102129047Y-130901321D02*
X102152857Y-130937035D01*
X102152857Y-130937035D02*
X102176666Y-131008464D01*
X102176666Y-131008464D02*
X102176666Y-131115607D01*
X102176666Y-131115607D02*
X102152857Y-131187035D01*
X102152857Y-131187035D02*
X102129047Y-131222750D01*
X102129047Y-131222750D02*
X102081428Y-131258464D01*
X102081428Y-131258464D02*
X101890952Y-131258464D01*
X101890952Y-131258464D02*
X101890952Y-130508464D01*
X101890952Y-130508464D02*
X102057619Y-130508464D01*
X102057619Y-130508464D02*
X102105238Y-130544178D01*
X102105238Y-130544178D02*
X102129047Y-130579892D01*
X102129047Y-130579892D02*
X102152857Y-130651321D01*
X102152857Y-130651321D02*
X102152857Y-130722750D01*
X102152857Y-130722750D02*
X102129047Y-130794178D01*
X102129047Y-130794178D02*
X102105238Y-130829892D01*
X102105238Y-130829892D02*
X102057619Y-130865607D01*
X102057619Y-130865607D02*
X101890952Y-130865607D01*
X102343333Y-130508464D02*
X102652857Y-130508464D01*
X102652857Y-130508464D02*
X102486190Y-130794178D01*
X102486190Y-130794178D02*
X102557619Y-130794178D01*
X102557619Y-130794178D02*
X102605238Y-130829892D01*
X102605238Y-130829892D02*
X102629047Y-130865607D01*
X102629047Y-130865607D02*
X102652857Y-130937035D01*
X102652857Y-130937035D02*
X102652857Y-131115607D01*
X102652857Y-131115607D02*
X102629047Y-131187035D01*
X102629047Y-131187035D02*
X102605238Y-131222750D01*
X102605238Y-131222750D02*
X102557619Y-131258464D01*
X102557619Y-131258464D02*
X102414762Y-131258464D01*
X102414762Y-131258464D02*
X102367143Y-131222750D01*
X102367143Y-131222750D02*
X102343333Y-131187035D01*
X117676666Y-126072535D02*
X117652857Y-126108250D01*
X117652857Y-126108250D02*
X117581428Y-126143964D01*
X117581428Y-126143964D02*
X117533809Y-126143964D01*
X117533809Y-126143964D02*
X117462381Y-126108250D01*
X117462381Y-126108250D02*
X117414762Y-126036821D01*
X117414762Y-126036821D02*
X117390952Y-125965392D01*
X117390952Y-125965392D02*
X117367143Y-125822535D01*
X117367143Y-125822535D02*
X117367143Y-125715392D01*
X117367143Y-125715392D02*
X117390952Y-125572535D01*
X117390952Y-125572535D02*
X117414762Y-125501107D01*
X117414762Y-125501107D02*
X117462381Y-125429678D01*
X117462381Y-125429678D02*
X117533809Y-125393964D01*
X117533809Y-125393964D02*
X117581428Y-125393964D01*
X117581428Y-125393964D02*
X117652857Y-125429678D01*
X117652857Y-125429678D02*
X117676666Y-125465392D01*
X118105238Y-125393964D02*
X118010000Y-125393964D01*
X118010000Y-125393964D02*
X117962381Y-125429678D01*
X117962381Y-125429678D02*
X117938571Y-125465392D01*
X117938571Y-125465392D02*
X117890952Y-125572535D01*
X117890952Y-125572535D02*
X117867143Y-125715392D01*
X117867143Y-125715392D02*
X117867143Y-126001107D01*
X117867143Y-126001107D02*
X117890952Y-126072535D01*
X117890952Y-126072535D02*
X117914762Y-126108250D01*
X117914762Y-126108250D02*
X117962381Y-126143964D01*
X117962381Y-126143964D02*
X118057619Y-126143964D01*
X118057619Y-126143964D02*
X118105238Y-126108250D01*
X118105238Y-126108250D02*
X118129047Y-126072535D01*
X118129047Y-126072535D02*
X118152857Y-126001107D01*
X118152857Y-126001107D02*
X118152857Y-125822535D01*
X118152857Y-125822535D02*
X118129047Y-125751107D01*
X118129047Y-125751107D02*
X118105238Y-125715392D01*
X118105238Y-125715392D02*
X118057619Y-125679678D01*
X118057619Y-125679678D02*
X117962381Y-125679678D01*
X117962381Y-125679678D02*
X117914762Y-125715392D01*
X117914762Y-125715392D02*
X117890952Y-125751107D01*
X117890952Y-125751107D02*
X117867143Y-125822535D01*
X117239952Y-108363964D02*
X117239952Y-107613964D01*
X117239952Y-107613964D02*
X117359000Y-107613964D01*
X117359000Y-107613964D02*
X117430428Y-107649678D01*
X117430428Y-107649678D02*
X117478047Y-107721107D01*
X117478047Y-107721107D02*
X117501857Y-107792535D01*
X117501857Y-107792535D02*
X117525666Y-107935392D01*
X117525666Y-107935392D02*
X117525666Y-108042535D01*
X117525666Y-108042535D02*
X117501857Y-108185392D01*
X117501857Y-108185392D02*
X117478047Y-108256821D01*
X117478047Y-108256821D02*
X117430428Y-108328250D01*
X117430428Y-108328250D02*
X117359000Y-108363964D01*
X117359000Y-108363964D02*
X117239952Y-108363964D01*
X117692333Y-107613964D02*
X118001857Y-107613964D01*
X118001857Y-107613964D02*
X117835190Y-107899678D01*
X117835190Y-107899678D02*
X117906619Y-107899678D01*
X117906619Y-107899678D02*
X117954238Y-107935392D01*
X117954238Y-107935392D02*
X117978047Y-107971107D01*
X117978047Y-107971107D02*
X118001857Y-108042535D01*
X118001857Y-108042535D02*
X118001857Y-108221107D01*
X118001857Y-108221107D02*
X117978047Y-108292535D01*
X117978047Y-108292535D02*
X117954238Y-108328250D01*
X117954238Y-108328250D02*
X117906619Y-108363964D01*
X117906619Y-108363964D02*
X117763762Y-108363964D01*
X117763762Y-108363964D02*
X117716143Y-108328250D01*
X117716143Y-108328250D02*
X117692333Y-108292535D01*
X117506619Y-133371107D02*
X117578047Y-133406821D01*
X117578047Y-133406821D02*
X117601857Y-133442535D01*
X117601857Y-133442535D02*
X117625666Y-133513964D01*
X117625666Y-133513964D02*
X117625666Y-133621107D01*
X117625666Y-133621107D02*
X117601857Y-133692535D01*
X117601857Y-133692535D02*
X117578047Y-133728250D01*
X117578047Y-133728250D02*
X117530428Y-133763964D01*
X117530428Y-133763964D02*
X117339952Y-133763964D01*
X117339952Y-133763964D02*
X117339952Y-133013964D01*
X117339952Y-133013964D02*
X117506619Y-133013964D01*
X117506619Y-133013964D02*
X117554238Y-133049678D01*
X117554238Y-133049678D02*
X117578047Y-133085392D01*
X117578047Y-133085392D02*
X117601857Y-133156821D01*
X117601857Y-133156821D02*
X117601857Y-133228250D01*
X117601857Y-133228250D02*
X117578047Y-133299678D01*
X117578047Y-133299678D02*
X117554238Y-133335392D01*
X117554238Y-133335392D02*
X117506619Y-133371107D01*
X117506619Y-133371107D02*
X117339952Y-133371107D01*
X118054238Y-133263964D02*
X118054238Y-133763964D01*
X117935190Y-132978250D02*
X117816143Y-133513964D01*
X117816143Y-133513964D02*
X118125666Y-133513964D01*
X102093334Y-125715607D02*
X101926667Y-125715607D01*
X101926667Y-126108464D02*
X101926667Y-125358464D01*
X101926667Y-125358464D02*
X102164762Y-125358464D01*
X102307619Y-125358464D02*
X102640952Y-125358464D01*
X102640952Y-125358464D02*
X102426667Y-126108464D01*
X101865834Y-115233964D02*
X102032500Y-115983964D01*
X102032500Y-115983964D02*
X102199167Y-115233964D01*
X102651547Y-115912535D02*
X102627738Y-115948250D01*
X102627738Y-115948250D02*
X102556309Y-115983964D01*
X102556309Y-115983964D02*
X102508690Y-115983964D01*
X102508690Y-115983964D02*
X102437262Y-115948250D01*
X102437262Y-115948250D02*
X102389643Y-115876821D01*
X102389643Y-115876821D02*
X102365833Y-115805392D01*
X102365833Y-115805392D02*
X102342024Y-115662535D01*
X102342024Y-115662535D02*
X102342024Y-115555392D01*
X102342024Y-115555392D02*
X102365833Y-115412535D01*
X102365833Y-115412535D02*
X102389643Y-115341107D01*
X102389643Y-115341107D02*
X102437262Y-115269678D01*
X102437262Y-115269678D02*
X102508690Y-115233964D01*
X102508690Y-115233964D02*
X102556309Y-115233964D01*
X102556309Y-115233964D02*
X102627738Y-115269678D01*
X102627738Y-115269678D02*
X102651547Y-115305392D01*
X103151547Y-115912535D02*
X103127738Y-115948250D01*
X103127738Y-115948250D02*
X103056309Y-115983964D01*
X103056309Y-115983964D02*
X103008690Y-115983964D01*
X103008690Y-115983964D02*
X102937262Y-115948250D01*
X102937262Y-115948250D02*
X102889643Y-115876821D01*
X102889643Y-115876821D02*
X102865833Y-115805392D01*
X102865833Y-115805392D02*
X102842024Y-115662535D01*
X102842024Y-115662535D02*
X102842024Y-115555392D01*
X102842024Y-115555392D02*
X102865833Y-115412535D01*
X102865833Y-115412535D02*
X102889643Y-115341107D01*
X102889643Y-115341107D02*
X102937262Y-115269678D01*
X102937262Y-115269678D02*
X103008690Y-115233964D01*
X103008690Y-115233964D02*
X103056309Y-115233964D01*
X103056309Y-115233964D02*
X103127738Y-115269678D01*
X103127738Y-115269678D02*
X103151547Y-115305392D01*
X102112619Y-135847607D02*
X102184047Y-135883321D01*
X102184047Y-135883321D02*
X102207857Y-135919035D01*
X102207857Y-135919035D02*
X102231666Y-135990464D01*
X102231666Y-135990464D02*
X102231666Y-136097607D01*
X102231666Y-136097607D02*
X102207857Y-136169035D01*
X102207857Y-136169035D02*
X102184047Y-136204750D01*
X102184047Y-136204750D02*
X102136428Y-136240464D01*
X102136428Y-136240464D02*
X101945952Y-136240464D01*
X101945952Y-136240464D02*
X101945952Y-135490464D01*
X101945952Y-135490464D02*
X102112619Y-135490464D01*
X102112619Y-135490464D02*
X102160238Y-135526178D01*
X102160238Y-135526178D02*
X102184047Y-135561892D01*
X102184047Y-135561892D02*
X102207857Y-135633321D01*
X102207857Y-135633321D02*
X102207857Y-135704750D01*
X102207857Y-135704750D02*
X102184047Y-135776178D01*
X102184047Y-135776178D02*
X102160238Y-135811892D01*
X102160238Y-135811892D02*
X102112619Y-135847607D01*
X102112619Y-135847607D02*
X101945952Y-135847607D01*
X102660238Y-135490464D02*
X102565000Y-135490464D01*
X102565000Y-135490464D02*
X102517381Y-135526178D01*
X102517381Y-135526178D02*
X102493571Y-135561892D01*
X102493571Y-135561892D02*
X102445952Y-135669035D01*
X102445952Y-135669035D02*
X102422143Y-135811892D01*
X102422143Y-135811892D02*
X102422143Y-136097607D01*
X102422143Y-136097607D02*
X102445952Y-136169035D01*
X102445952Y-136169035D02*
X102469762Y-136204750D01*
X102469762Y-136204750D02*
X102517381Y-136240464D01*
X102517381Y-136240464D02*
X102612619Y-136240464D01*
X102612619Y-136240464D02*
X102660238Y-136204750D01*
X102660238Y-136204750D02*
X102684047Y-136169035D01*
X102684047Y-136169035D02*
X102707857Y-136097607D01*
X102707857Y-136097607D02*
X102707857Y-135919035D01*
X102707857Y-135919035D02*
X102684047Y-135847607D01*
X102684047Y-135847607D02*
X102660238Y-135811892D01*
X102660238Y-135811892D02*
X102612619Y-135776178D01*
X102612619Y-135776178D02*
X102517381Y-135776178D01*
X102517381Y-135776178D02*
X102469762Y-135811892D01*
X102469762Y-135811892D02*
X102445952Y-135847607D01*
X102445952Y-135847607D02*
X102422143Y-135919035D01*
X117339952Y-118523964D02*
X117339952Y-117773964D01*
X117339952Y-117773964D02*
X117459000Y-117773964D01*
X117459000Y-117773964D02*
X117530428Y-117809678D01*
X117530428Y-117809678D02*
X117578047Y-117881107D01*
X117578047Y-117881107D02*
X117601857Y-117952535D01*
X117601857Y-117952535D02*
X117625666Y-118095392D01*
X117625666Y-118095392D02*
X117625666Y-118202535D01*
X117625666Y-118202535D02*
X117601857Y-118345392D01*
X117601857Y-118345392D02*
X117578047Y-118416821D01*
X117578047Y-118416821D02*
X117530428Y-118488250D01*
X117530428Y-118488250D02*
X117459000Y-118523964D01*
X117459000Y-118523964D02*
X117339952Y-118523964D01*
X118101857Y-118523964D02*
X117816143Y-118523964D01*
X117959000Y-118523964D02*
X117959000Y-117773964D01*
X117959000Y-117773964D02*
X117911381Y-117881107D01*
X117911381Y-117881107D02*
X117863762Y-117952535D01*
X117863762Y-117952535D02*
X117816143Y-117988250D01*
X102107619Y-128227607D02*
X102179047Y-128263321D01*
X102179047Y-128263321D02*
X102202857Y-128299035D01*
X102202857Y-128299035D02*
X102226666Y-128370464D01*
X102226666Y-128370464D02*
X102226666Y-128477607D01*
X102226666Y-128477607D02*
X102202857Y-128549035D01*
X102202857Y-128549035D02*
X102179047Y-128584750D01*
X102179047Y-128584750D02*
X102131428Y-128620464D01*
X102131428Y-128620464D02*
X101940952Y-128620464D01*
X101940952Y-128620464D02*
X101940952Y-127870464D01*
X101940952Y-127870464D02*
X102107619Y-127870464D01*
X102107619Y-127870464D02*
X102155238Y-127906178D01*
X102155238Y-127906178D02*
X102179047Y-127941892D01*
X102179047Y-127941892D02*
X102202857Y-128013321D01*
X102202857Y-128013321D02*
X102202857Y-128084750D01*
X102202857Y-128084750D02*
X102179047Y-128156178D01*
X102179047Y-128156178D02*
X102155238Y-128191892D01*
X102155238Y-128191892D02*
X102107619Y-128227607D01*
X102107619Y-128227607D02*
X101940952Y-128227607D01*
X102702857Y-128620464D02*
X102417143Y-128620464D01*
X102560000Y-128620464D02*
X102560000Y-127870464D01*
X102560000Y-127870464D02*
X102512381Y-127977607D01*
X102512381Y-127977607D02*
X102464762Y-128049035D01*
X102464762Y-128049035D02*
X102417143Y-128084750D01*
X117390952Y-123540464D02*
X117390952Y-122790464D01*
X117390952Y-122790464D02*
X117510000Y-122790464D01*
X117510000Y-122790464D02*
X117581428Y-122826178D01*
X117581428Y-122826178D02*
X117629047Y-122897607D01*
X117629047Y-122897607D02*
X117652857Y-122969035D01*
X117652857Y-122969035D02*
X117676666Y-123111892D01*
X117676666Y-123111892D02*
X117676666Y-123219035D01*
X117676666Y-123219035D02*
X117652857Y-123361892D01*
X117652857Y-123361892D02*
X117629047Y-123433321D01*
X117629047Y-123433321D02*
X117581428Y-123504750D01*
X117581428Y-123504750D02*
X117510000Y-123540464D01*
X117510000Y-123540464D02*
X117390952Y-123540464D01*
X118105238Y-123040464D02*
X118105238Y-123540464D01*
X117986190Y-122754750D02*
X117867143Y-123290464D01*
X117867143Y-123290464D02*
X118176666Y-123290464D01*
X102093334Y-118165607D02*
X101926667Y-118165607D01*
X101926667Y-118558464D02*
X101926667Y-117808464D01*
X101926667Y-117808464D02*
X102164762Y-117808464D01*
X102569524Y-118058464D02*
X102569524Y-118558464D01*
X102450476Y-117772750D02*
X102331429Y-118308464D01*
X102331429Y-118308464D02*
X102640952Y-118308464D01*
X102049119Y-133244107D02*
X102120547Y-133279821D01*
X102120547Y-133279821D02*
X102144357Y-133315535D01*
X102144357Y-133315535D02*
X102168166Y-133386964D01*
X102168166Y-133386964D02*
X102168166Y-133494107D01*
X102168166Y-133494107D02*
X102144357Y-133565535D01*
X102144357Y-133565535D02*
X102120547Y-133601250D01*
X102120547Y-133601250D02*
X102072928Y-133636964D01*
X102072928Y-133636964D02*
X101882452Y-133636964D01*
X101882452Y-133636964D02*
X101882452Y-132886964D01*
X101882452Y-132886964D02*
X102049119Y-132886964D01*
X102049119Y-132886964D02*
X102096738Y-132922678D01*
X102096738Y-132922678D02*
X102120547Y-132958392D01*
X102120547Y-132958392D02*
X102144357Y-133029821D01*
X102144357Y-133029821D02*
X102144357Y-133101250D01*
X102144357Y-133101250D02*
X102120547Y-133172678D01*
X102120547Y-133172678D02*
X102096738Y-133208392D01*
X102096738Y-133208392D02*
X102049119Y-133244107D01*
X102049119Y-133244107D02*
X101882452Y-133244107D01*
X102358643Y-132958392D02*
X102382452Y-132922678D01*
X102382452Y-132922678D02*
X102430071Y-132886964D01*
X102430071Y-132886964D02*
X102549119Y-132886964D01*
X102549119Y-132886964D02*
X102596738Y-132922678D01*
X102596738Y-132922678D02*
X102620547Y-132958392D01*
X102620547Y-132958392D02*
X102644357Y-133029821D01*
X102644357Y-133029821D02*
X102644357Y-133101250D01*
X102644357Y-133101250D02*
X102620547Y-133208392D01*
X102620547Y-133208392D02*
X102334833Y-133636964D01*
X102334833Y-133636964D02*
X102644357Y-133636964D01*
X102151547Y-110126178D02*
X102103928Y-110090464D01*
X102103928Y-110090464D02*
X102032499Y-110090464D01*
X102032499Y-110090464D02*
X101961071Y-110126178D01*
X101961071Y-110126178D02*
X101913452Y-110197607D01*
X101913452Y-110197607D02*
X101889642Y-110269035D01*
X101889642Y-110269035D02*
X101865833Y-110411892D01*
X101865833Y-110411892D02*
X101865833Y-110519035D01*
X101865833Y-110519035D02*
X101889642Y-110661892D01*
X101889642Y-110661892D02*
X101913452Y-110733321D01*
X101913452Y-110733321D02*
X101961071Y-110804750D01*
X101961071Y-110804750D02*
X102032499Y-110840464D01*
X102032499Y-110840464D02*
X102080118Y-110840464D01*
X102080118Y-110840464D02*
X102151547Y-110804750D01*
X102151547Y-110804750D02*
X102175356Y-110769035D01*
X102175356Y-110769035D02*
X102175356Y-110519035D01*
X102175356Y-110519035D02*
X102080118Y-110519035D01*
X102389642Y-110840464D02*
X102389642Y-110090464D01*
X102389642Y-110090464D02*
X102675356Y-110840464D01*
X102675356Y-110840464D02*
X102675356Y-110090464D01*
X102913452Y-110840464D02*
X102913452Y-110090464D01*
X102913452Y-110090464D02*
X103032500Y-110090464D01*
X103032500Y-110090464D02*
X103103928Y-110126178D01*
X103103928Y-110126178D02*
X103151547Y-110197607D01*
X103151547Y-110197607D02*
X103175357Y-110269035D01*
X103175357Y-110269035D02*
X103199166Y-110411892D01*
X103199166Y-110411892D02*
X103199166Y-110519035D01*
X103199166Y-110519035D02*
X103175357Y-110661892D01*
X103175357Y-110661892D02*
X103151547Y-110733321D01*
X103151547Y-110733321D02*
X103103928Y-110804750D01*
X103103928Y-110804750D02*
X103032500Y-110840464D01*
X103032500Y-110840464D02*
X102913452Y-110840464D01*
X102093334Y-123215607D02*
X101926667Y-123215607D01*
X101926667Y-123608464D02*
X101926667Y-122858464D01*
X101926667Y-122858464D02*
X102164762Y-122858464D01*
X102569524Y-122858464D02*
X102474286Y-122858464D01*
X102474286Y-122858464D02*
X102426667Y-122894178D01*
X102426667Y-122894178D02*
X102402857Y-122929892D01*
X102402857Y-122929892D02*
X102355238Y-123037035D01*
X102355238Y-123037035D02*
X102331429Y-123179892D01*
X102331429Y-123179892D02*
X102331429Y-123465607D01*
X102331429Y-123465607D02*
X102355238Y-123537035D01*
X102355238Y-123537035D02*
X102379048Y-123572750D01*
X102379048Y-123572750D02*
X102426667Y-123608464D01*
X102426667Y-123608464D02*
X102521905Y-123608464D01*
X102521905Y-123608464D02*
X102569524Y-123572750D01*
X102569524Y-123572750D02*
X102593333Y-123537035D01*
X102593333Y-123537035D02*
X102617143Y-123465607D01*
X102617143Y-123465607D02*
X102617143Y-123287035D01*
X102617143Y-123287035D02*
X102593333Y-123215607D01*
X102593333Y-123215607D02*
X102569524Y-123179892D01*
X102569524Y-123179892D02*
X102521905Y-123144178D01*
X102521905Y-123144178D02*
X102426667Y-123144178D01*
X102426667Y-123144178D02*
X102379048Y-123179892D01*
X102379048Y-123179892D02*
X102355238Y-123215607D01*
X102355238Y-123215607D02*
X102331429Y-123287035D01*
X117339952Y-121063964D02*
X117339952Y-120313964D01*
X117339952Y-120313964D02*
X117459000Y-120313964D01*
X117459000Y-120313964D02*
X117530428Y-120349678D01*
X117530428Y-120349678D02*
X117578047Y-120421107D01*
X117578047Y-120421107D02*
X117601857Y-120492535D01*
X117601857Y-120492535D02*
X117625666Y-120635392D01*
X117625666Y-120635392D02*
X117625666Y-120742535D01*
X117625666Y-120742535D02*
X117601857Y-120885392D01*
X117601857Y-120885392D02*
X117578047Y-120956821D01*
X117578047Y-120956821D02*
X117530428Y-121028250D01*
X117530428Y-121028250D02*
X117459000Y-121063964D01*
X117459000Y-121063964D02*
X117339952Y-121063964D01*
X117935190Y-120313964D02*
X117982809Y-120313964D01*
X117982809Y-120313964D02*
X118030428Y-120349678D01*
X118030428Y-120349678D02*
X118054238Y-120385392D01*
X118054238Y-120385392D02*
X118078047Y-120456821D01*
X118078047Y-120456821D02*
X118101857Y-120599678D01*
X118101857Y-120599678D02*
X118101857Y-120778250D01*
X118101857Y-120778250D02*
X118078047Y-120921107D01*
X118078047Y-120921107D02*
X118054238Y-120992535D01*
X118054238Y-120992535D02*
X118030428Y-121028250D01*
X118030428Y-121028250D02*
X117982809Y-121063964D01*
X117982809Y-121063964D02*
X117935190Y-121063964D01*
X117935190Y-121063964D02*
X117887571Y-121028250D01*
X117887571Y-121028250D02*
X117863762Y-120992535D01*
X117863762Y-120992535D02*
X117839952Y-120921107D01*
X117839952Y-120921107D02*
X117816143Y-120778250D01*
X117816143Y-120778250D02*
X117816143Y-120599678D01*
X117816143Y-120599678D02*
X117839952Y-120456821D01*
X117839952Y-120456821D02*
X117863762Y-120385392D01*
X117863762Y-120385392D02*
X117887571Y-120349678D01*
X117887571Y-120349678D02*
X117935190Y-120313964D01*
X117390952Y-128747464D02*
X117390952Y-127997464D01*
X117390952Y-127997464D02*
X117510000Y-127997464D01*
X117510000Y-127997464D02*
X117581428Y-128033178D01*
X117581428Y-128033178D02*
X117629047Y-128104607D01*
X117629047Y-128104607D02*
X117652857Y-128176035D01*
X117652857Y-128176035D02*
X117676666Y-128318892D01*
X117676666Y-128318892D02*
X117676666Y-128426035D01*
X117676666Y-128426035D02*
X117652857Y-128568892D01*
X117652857Y-128568892D02*
X117629047Y-128640321D01*
X117629047Y-128640321D02*
X117581428Y-128711750D01*
X117581428Y-128711750D02*
X117510000Y-128747464D01*
X117510000Y-128747464D02*
X117390952Y-128747464D01*
X117843333Y-127997464D02*
X118176666Y-127997464D01*
X118176666Y-127997464D02*
X117962381Y-128747464D01*
X117328047Y-115269678D02*
X117280428Y-115233964D01*
X117280428Y-115233964D02*
X117208999Y-115233964D01*
X117208999Y-115233964D02*
X117137571Y-115269678D01*
X117137571Y-115269678D02*
X117089952Y-115341107D01*
X117089952Y-115341107D02*
X117066142Y-115412535D01*
X117066142Y-115412535D02*
X117042333Y-115555392D01*
X117042333Y-115555392D02*
X117042333Y-115662535D01*
X117042333Y-115662535D02*
X117066142Y-115805392D01*
X117066142Y-115805392D02*
X117089952Y-115876821D01*
X117089952Y-115876821D02*
X117137571Y-115948250D01*
X117137571Y-115948250D02*
X117208999Y-115983964D01*
X117208999Y-115983964D02*
X117256618Y-115983964D01*
X117256618Y-115983964D02*
X117328047Y-115948250D01*
X117328047Y-115948250D02*
X117351856Y-115912535D01*
X117351856Y-115912535D02*
X117351856Y-115662535D01*
X117351856Y-115662535D02*
X117256618Y-115662535D01*
X117566142Y-115983964D02*
X117566142Y-115233964D01*
X117566142Y-115233964D02*
X117851856Y-115983964D01*
X117851856Y-115983964D02*
X117851856Y-115233964D01*
X118089952Y-115983964D02*
X118089952Y-115233964D01*
X118089952Y-115233964D02*
X118209000Y-115233964D01*
X118209000Y-115233964D02*
X118280428Y-115269678D01*
X118280428Y-115269678D02*
X118328047Y-115341107D01*
X118328047Y-115341107D02*
X118351857Y-115412535D01*
X118351857Y-115412535D02*
X118375666Y-115555392D01*
X118375666Y-115555392D02*
X118375666Y-115662535D01*
X118375666Y-115662535D02*
X118351857Y-115805392D01*
X118351857Y-115805392D02*
X118328047Y-115876821D01*
X118328047Y-115876821D02*
X118280428Y-115948250D01*
X118280428Y-115948250D02*
X118209000Y-115983964D01*
X118209000Y-115983964D02*
X118089952Y-115983964D01*
X102093334Y-120671107D02*
X101926667Y-120671107D01*
X101926667Y-121063964D02*
X101926667Y-120313964D01*
X101926667Y-120313964D02*
X102164762Y-120313964D01*
X102593333Y-120313964D02*
X102355238Y-120313964D01*
X102355238Y-120313964D02*
X102331429Y-120671107D01*
X102331429Y-120671107D02*
X102355238Y-120635392D01*
X102355238Y-120635392D02*
X102402857Y-120599678D01*
X102402857Y-120599678D02*
X102521905Y-120599678D01*
X102521905Y-120599678D02*
X102569524Y-120635392D01*
X102569524Y-120635392D02*
X102593333Y-120671107D01*
X102593333Y-120671107D02*
X102617143Y-120742535D01*
X102617143Y-120742535D02*
X102617143Y-120921107D01*
X102617143Y-120921107D02*
X102593333Y-120992535D01*
X102593333Y-120992535D02*
X102569524Y-121028250D01*
X102569524Y-121028250D02*
X102521905Y-121063964D01*
X102521905Y-121063964D02*
X102402857Y-121063964D01*
X102402857Y-121063964D02*
X102355238Y-121028250D01*
X102355238Y-121028250D02*
X102331429Y-120992535D01*
X117290952Y-111008464D02*
X117290952Y-110258464D01*
X117290952Y-110258464D02*
X117410000Y-110258464D01*
X117410000Y-110258464D02*
X117481428Y-110294178D01*
X117481428Y-110294178D02*
X117529047Y-110365607D01*
X117529047Y-110365607D02*
X117552857Y-110437035D01*
X117552857Y-110437035D02*
X117576666Y-110579892D01*
X117576666Y-110579892D02*
X117576666Y-110687035D01*
X117576666Y-110687035D02*
X117552857Y-110829892D01*
X117552857Y-110829892D02*
X117529047Y-110901321D01*
X117529047Y-110901321D02*
X117481428Y-110972750D01*
X117481428Y-110972750D02*
X117410000Y-111008464D01*
X117410000Y-111008464D02*
X117290952Y-111008464D01*
X117767143Y-110329892D02*
X117790952Y-110294178D01*
X117790952Y-110294178D02*
X117838571Y-110258464D01*
X117838571Y-110258464D02*
X117957619Y-110258464D01*
X117957619Y-110258464D02*
X118005238Y-110294178D01*
X118005238Y-110294178D02*
X118029047Y-110329892D01*
X118029047Y-110329892D02*
X118052857Y-110401321D01*
X118052857Y-110401321D02*
X118052857Y-110472750D01*
X118052857Y-110472750D02*
X118029047Y-110579892D01*
X118029047Y-110579892D02*
X117743333Y-111008464D01*
X117743333Y-111008464D02*
X118052857Y-111008464D01*
X102195190Y-113443964D02*
X102028524Y-113086821D01*
X101909476Y-113443964D02*
X101909476Y-112693964D01*
X101909476Y-112693964D02*
X102099952Y-112693964D01*
X102099952Y-112693964D02*
X102147571Y-112729678D01*
X102147571Y-112729678D02*
X102171381Y-112765392D01*
X102171381Y-112765392D02*
X102195190Y-112836821D01*
X102195190Y-112836821D02*
X102195190Y-112943964D01*
X102195190Y-112943964D02*
X102171381Y-113015392D01*
X102171381Y-113015392D02*
X102147571Y-113051107D01*
X102147571Y-113051107D02*
X102099952Y-113086821D01*
X102099952Y-113086821D02*
X101909476Y-113086821D01*
X102385667Y-113408250D02*
X102457095Y-113443964D01*
X102457095Y-113443964D02*
X102576143Y-113443964D01*
X102576143Y-113443964D02*
X102623762Y-113408250D01*
X102623762Y-113408250D02*
X102647571Y-113372535D01*
X102647571Y-113372535D02*
X102671381Y-113301107D01*
X102671381Y-113301107D02*
X102671381Y-113229678D01*
X102671381Y-113229678D02*
X102647571Y-113158250D01*
X102647571Y-113158250D02*
X102623762Y-113122535D01*
X102623762Y-113122535D02*
X102576143Y-113086821D01*
X102576143Y-113086821D02*
X102480905Y-113051107D01*
X102480905Y-113051107D02*
X102433286Y-113015392D01*
X102433286Y-113015392D02*
X102409476Y-112979678D01*
X102409476Y-112979678D02*
X102385667Y-112908250D01*
X102385667Y-112908250D02*
X102385667Y-112836821D01*
X102385667Y-112836821D02*
X102409476Y-112765392D01*
X102409476Y-112765392D02*
X102433286Y-112729678D01*
X102433286Y-112729678D02*
X102480905Y-112693964D01*
X102480905Y-112693964D02*
X102599952Y-112693964D01*
X102599952Y-112693964D02*
X102671381Y-112729678D01*
X102814238Y-112693964D02*
X103099952Y-112693964D01*
X102957095Y-113443964D02*
X102957095Y-112693964D01*
X117414762Y-130865607D02*
X117581429Y-130865607D01*
X117652857Y-131258464D02*
X117414762Y-131258464D01*
X117414762Y-131258464D02*
X117414762Y-130508464D01*
X117414762Y-130508464D02*
X117652857Y-130508464D01*
X118081429Y-130508464D02*
X117986191Y-130508464D01*
X117986191Y-130508464D02*
X117938572Y-130544178D01*
X117938572Y-130544178D02*
X117914762Y-130579892D01*
X117914762Y-130579892D02*
X117867143Y-130687035D01*
X117867143Y-130687035D02*
X117843334Y-130829892D01*
X117843334Y-130829892D02*
X117843334Y-131115607D01*
X117843334Y-131115607D02*
X117867143Y-131187035D01*
X117867143Y-131187035D02*
X117890953Y-131222750D01*
X117890953Y-131222750D02*
X117938572Y-131258464D01*
X117938572Y-131258464D02*
X118033810Y-131258464D01*
X118033810Y-131258464D02*
X118081429Y-131222750D01*
X118081429Y-131222750D02*
X118105238Y-131187035D01*
X118105238Y-131187035D02*
X118129048Y-131115607D01*
X118129048Y-131115607D02*
X118129048Y-130937035D01*
X118129048Y-130937035D02*
X118105238Y-130865607D01*
X118105238Y-130865607D02*
X118081429Y-130829892D01*
X118081429Y-130829892D02*
X118033810Y-130794178D01*
X118033810Y-130794178D02*
X117938572Y-130794178D01*
X117938572Y-130794178D02*
X117890953Y-130829892D01*
X117890953Y-130829892D02*
X117867143Y-130865607D01*
X117867143Y-130865607D02*
X117843334Y-130937035D01*
X117506619Y-135911107D02*
X117578047Y-135946821D01*
X117578047Y-135946821D02*
X117601857Y-135982535D01*
X117601857Y-135982535D02*
X117625666Y-136053964D01*
X117625666Y-136053964D02*
X117625666Y-136161107D01*
X117625666Y-136161107D02*
X117601857Y-136232535D01*
X117601857Y-136232535D02*
X117578047Y-136268250D01*
X117578047Y-136268250D02*
X117530428Y-136303964D01*
X117530428Y-136303964D02*
X117339952Y-136303964D01*
X117339952Y-136303964D02*
X117339952Y-135553964D01*
X117339952Y-135553964D02*
X117506619Y-135553964D01*
X117506619Y-135553964D02*
X117554238Y-135589678D01*
X117554238Y-135589678D02*
X117578047Y-135625392D01*
X117578047Y-135625392D02*
X117601857Y-135696821D01*
X117601857Y-135696821D02*
X117601857Y-135768250D01*
X117601857Y-135768250D02*
X117578047Y-135839678D01*
X117578047Y-135839678D02*
X117554238Y-135875392D01*
X117554238Y-135875392D02*
X117506619Y-135911107D01*
X117506619Y-135911107D02*
X117339952Y-135911107D01*
X118078047Y-135553964D02*
X117839952Y-135553964D01*
X117839952Y-135553964D02*
X117816143Y-135911107D01*
X117816143Y-135911107D02*
X117839952Y-135875392D01*
X117839952Y-135875392D02*
X117887571Y-135839678D01*
X117887571Y-135839678D02*
X118006619Y-135839678D01*
X118006619Y-135839678D02*
X118054238Y-135875392D01*
X118054238Y-135875392D02*
X118078047Y-135911107D01*
X118078047Y-135911107D02*
X118101857Y-135982535D01*
X118101857Y-135982535D02*
X118101857Y-136161107D01*
X118101857Y-136161107D02*
X118078047Y-136232535D01*
X118078047Y-136232535D02*
X118054238Y-136268250D01*
X118054238Y-136268250D02*
X118006619Y-136303964D01*
X118006619Y-136303964D02*
X117887571Y-136303964D01*
X117887571Y-136303964D02*
X117839952Y-136268250D01*
X117839952Y-136268250D02*
X117816143Y-136232535D01*
D10*
%TO.C,U1*%
X116820000Y-137170000D02*
X116820000Y-106690000D01*
X116820000Y-106690000D02*
X114280000Y-106690000D01*
X114280000Y-137170000D02*
X116820000Y-137170000D01*
X114280000Y-106690000D02*
X114280000Y-137170000D01*
X101580000Y-137170000D02*
X101580000Y-106690000D01*
X101580000Y-106690000D02*
X99040000Y-106690000D01*
X99040000Y-137170000D02*
X101580000Y-137170000D01*
X99040000Y-106690000D02*
X99040000Y-137170000D01*
%TD*%
D12*
%TO.C,SW11*%
X91356250Y-107156250D03*
X84856250Y-107156250D03*
%TD*%
D13*
%TO.C,D5*%
X78581250Y-128587500D03*
D14*
X78581250Y-120967500D03*
%TD*%
D13*
%TO.C,D4*%
X59531250Y-164306250D03*
D14*
X59531250Y-156686250D03*
%TD*%
D15*
%TO.C,SW1*%
X27146250Y-135572500D03*
X33496250Y-133032500D03*
%TD*%
D13*
%TO.C,D8*%
X97631250Y-150018750D03*
D14*
X97631250Y-142398750D03*
%TD*%
D13*
%TO.C,D1*%
X40481250Y-147637500D03*
D14*
X40481250Y-140017500D03*
%TD*%
D15*
%TO.C,SW6*%
X65246250Y-135572500D03*
X71596250Y-133032500D03*
%TD*%
D13*
%TO.C,D9*%
X116681250Y-164306250D03*
D14*
X116681250Y-156686250D03*
%TD*%
D13*
%TO.C,D10*%
X116681250Y-183356250D03*
D14*
X116681250Y-175736250D03*
%TD*%
D15*
%TO.C,SW3*%
X46196250Y-133191250D03*
X52546250Y-130651250D03*
%TD*%
%TO.C,SW2*%
X27146250Y-154622500D03*
X33496250Y-152082500D03*
%TD*%
%TO.C,SW7*%
X84296250Y-118903750D03*
X90646250Y-116363750D03*
%TD*%
%TO.C,SW9*%
X103346250Y-152241250D03*
X109696250Y-149701250D03*
%TD*%
%TO.C,SW4*%
X46196250Y-152241250D03*
X52546250Y-149701250D03*
%TD*%
%TO.C,SW8*%
X84296250Y-137953750D03*
X90646250Y-135413750D03*
%TD*%
D13*
%TO.C,D3*%
X59531250Y-151635000D03*
D14*
X59531250Y-144015000D03*
%TD*%
D13*
%TO.C,D7*%
X97631250Y-130968750D03*
D14*
X97631250Y-123348750D03*
%TD*%
D13*
%TO.C,D2*%
X40481250Y-166687500D03*
D14*
X40481250Y-159067500D03*
%TD*%
D13*
%TO.C,D6*%
X78581250Y-147637500D03*
D14*
X78581250Y-140017500D03*
%TD*%
D15*
%TO.C,SW10*%
X103346250Y-171291250D03*
X109696250Y-168751250D03*
%TD*%
%TO.C,SW5*%
X65246250Y-116522500D03*
X71596250Y-113982500D03*
%TD*%
M02*
