%TF.GenerationSoftware,KiCad,Pcbnew,7.0.9*%
%TF.CreationDate,2023-11-17T20:15:34+09:00*%
%TF.ProjectId,Assemble,41737365-6d62-46c6-952e-6b696361645f,rev?*%
%TF.SameCoordinates,Original*%
%TF.FileFunction,Copper,L1,Top*%
%TF.FilePolarity,Positive*%
%FSLAX46Y46*%
G04 Gerber Fmt 4.6, Leading zero omitted, Abs format (unit mm)*
G04 Created by KiCad (PCBNEW 7.0.9) date 2023-11-17 20:15:34*
%MOMM*%
%LPD*%
G01*
G04 APERTURE LIST*
%TA.AperFunction,ComponentPad*%
%ADD10O,2.000000X15.900000*%
%TD*%
%TA.AperFunction,ComponentPad*%
%ADD11O,15.900000X2.000000*%
%TD*%
G04 APERTURE END LIST*
D10*
%TO.P,SW1,1,1*%
%TO.N,Col0*%
X24006250Y-138112500D03*
D11*
X30956250Y-131162500D03*
X30956250Y-145062500D03*
D10*
X37906250Y-138112500D03*
%TD*%
%TO.P,SW6,1,1*%
%TO.N,Col2*%
X62106250Y-138112500D03*
D11*
X69056250Y-131162500D03*
X69056250Y-145062500D03*
D10*
X76006250Y-138112500D03*
%TD*%
%TO.P,SW3,1,1*%
%TO.N,Col1*%
X43056250Y-135731250D03*
D11*
X50006250Y-128781250D03*
X50006250Y-142681250D03*
D10*
X56956250Y-135731250D03*
%TD*%
%TO.P,SW2,1,1*%
%TO.N,Col0*%
X24006250Y-157162500D03*
D11*
X30956250Y-150212500D03*
X30956250Y-164112500D03*
D10*
X37906250Y-157162500D03*
%TD*%
%TO.P,SW7,1,1*%
%TO.N,Col3*%
X81156250Y-121443750D03*
D11*
X88106250Y-114493750D03*
X88106250Y-128393750D03*
D10*
X95056250Y-121443750D03*
%TD*%
%TO.P,SW9,1,1*%
%TO.N,Col4*%
X100206250Y-154781250D03*
D11*
X107156250Y-147831250D03*
X107156250Y-161731250D03*
D10*
X114106250Y-154781250D03*
%TD*%
%TO.P,SW4,1,1*%
%TO.N,Col1*%
X43056250Y-154781250D03*
D11*
X50006250Y-147831250D03*
X50006250Y-161731250D03*
D10*
X56956250Y-154781250D03*
%TD*%
%TO.P,SW8,1,1*%
%TO.N,Col3*%
X81156250Y-140493750D03*
D11*
X88106250Y-133543750D03*
X88106250Y-147443750D03*
D10*
X95056250Y-140493750D03*
%TD*%
%TO.P,SW10,1,1*%
%TO.N,Col4*%
X100206250Y-173831250D03*
D11*
X107156250Y-166881250D03*
X107156250Y-180781250D03*
D10*
X114106250Y-173831250D03*
%TD*%
%TO.P,SW5,1,1*%
%TO.N,Col2*%
X62106250Y-119062500D03*
D11*
X69056250Y-112112500D03*
X69056250Y-126012500D03*
D10*
X76006250Y-119062500D03*
%TD*%
M02*
