M48
; DRILL file {KiCad 7.0.9} date Fri Nov 17 21:16:43 2023
; FORMAT={-:-/ absolute / metric / decimal}
; #@! TF.CreationDate,2023-11-17T21:16:43+09:00
; #@! TF.GenerationSoftware,Kicad,Pcbnew,7.0.9
; #@! TF.FileFunction,Plated,1,2,PTH
FMAT,2
METRIC
; #@! TA.AperFunction,Plated,PTH,ComponentDrill
T1C0.300
%
G90
G05
T1
G00X24.006Y-131.162
M15
G01X24.006Y-145.062
M16
G05
G00X24.006Y-150.213
M15
G01X24.006Y-164.112
M16
G05
G00X24.006Y-131.162
M15
G01X37.906Y-131.162
M16
G05
G00X24.006Y-145.062
M15
G01X37.906Y-145.062
M16
G05
G00X24.006Y-150.213
M15
G01X37.906Y-150.213
M16
G05
G00X24.006Y-164.112
M15
G01X37.906Y-164.112
M16
G05
G00X37.906Y-131.162
M15
G01X37.906Y-145.062
M16
G05
G00X37.906Y-150.213
M15
G01X37.906Y-164.112
M16
G05
G00X43.056Y-128.781
M15
G01X43.056Y-142.681
M16
G05
G00X43.056Y-147.831
M15
G01X43.056Y-161.731
M16
G05
G00X43.056Y-128.781
M15
G01X56.956Y-128.781
M16
G05
G00X43.056Y-142.681
M15
G01X56.956Y-142.681
M16
G05
G00X43.056Y-147.831
M15
G01X56.956Y-147.831
M16
G05
G00X43.056Y-161.731
M15
G01X56.956Y-161.731
M16
G05
G00X56.956Y-128.781
M15
G01X56.956Y-142.681
M16
G05
G00X56.956Y-147.831
M15
G01X56.956Y-161.731
M16
G05
G00X62.106Y-112.112
M15
G01X62.106Y-126.012
M16
G05
G00X62.106Y-131.162
M15
G01X62.106Y-145.062
M16
G05
G00X62.106Y-112.112
M15
G01X76.006Y-112.112
M16
G05
G00X62.106Y-126.012
M15
G01X76.006Y-126.012
M16
G05
G00X62.106Y-131.162
M15
G01X76.006Y-131.162
M16
G05
G00X62.106Y-145.062
M15
G01X76.006Y-145.062
M16
G05
G00X76.006Y-112.112
M15
G01X76.006Y-126.012
M16
G05
G00X76.006Y-131.162
M15
G01X76.006Y-145.062
M16
G05
G00X81.156Y-114.494
M15
G01X81.156Y-128.394
M16
G05
G00X81.156Y-133.544
M15
G01X81.156Y-147.444
M16
G05
G00X81.156Y-114.494
M15
G01X95.056Y-114.494
M16
G05
G00X81.156Y-128.394
M15
G01X95.056Y-128.394
M16
G05
G00X81.156Y-133.544
M15
G01X95.056Y-133.544
M16
G05
G00X81.156Y-147.444
M15
G01X95.056Y-147.444
M16
G05
G00X95.056Y-114.494
M15
G01X95.056Y-128.394
M16
G05
G00X95.056Y-133.544
M15
G01X95.056Y-147.444
M16
G05
G00X100.206Y-147.831
M15
G01X100.206Y-161.731
M16
G05
G00X100.206Y-166.881
M15
G01X100.206Y-180.781
M16
G05
G00X100.206Y-147.831
M15
G01X114.106Y-147.831
M16
G05
G00X100.206Y-161.731
M15
G01X114.106Y-161.731
M16
G05
G00X100.206Y-166.881
M15
G01X114.106Y-166.881
M16
G05
G00X100.206Y-180.781
M15
G01X114.106Y-180.781
M16
G05
G00X114.106Y-147.831
M15
G01X114.106Y-161.731
M16
G05
G00X114.106Y-166.881
M15
G01X114.106Y-180.781
M16
G05
T0
M30
