M48
; DRILL file {KiCad 7.0.9} date Fri Nov 17 20:13:06 2023
; FORMAT={-:-/ absolute / metric / decimal}
; #@! TF.CreationDate,2023-11-17T20:13:06+09:00
; #@! TF.GenerationSoftware,Kicad,Pcbnew,7.0.9
; #@! TF.FileFunction,Plated,1,2,PTH
FMAT,2
METRIC
; #@! TA.AperFunction,Plated,PTH,ViaDrill
T1C0.400
; #@! TA.AperFunction,Plated,PTH,ComponentDrill
T2C0.800
; #@! TA.AperFunction,Plated,PTH,ComponentDrill
T3C0.813
; #@! TA.AperFunction,Plated,PTH,ComponentDrill
T4C1.300
%
G90
G05
T1
X23.41Y-159.97
X25.036Y-144.266
X25.09Y-146.76
X27.01Y-160.0
X33.9Y-142.189
X33.96Y-140.06
X36.58Y-143.8
X36.58Y-146.45
X38.57Y-161.17
X38.62Y-156.53
X40.82Y-152.24
X43.12Y-159.51
X43.12Y-159.51
X43.809Y-152.24
X45.58Y-157.08
X56.16Y-140.5
X56.2Y-143.11
X58.5Y-121.21
X58.5Y-125.75
X60.6Y-134.13
X62.589Y-134.71
X63.49Y-142.83
X64.91Y-128.43
X66.11Y-142.77
X68.06Y-128.39
X74.14Y-121.07
X74.28Y-124.599
X77.425Y-113.971
X79.44Y-113.97
X82.0Y-131.04
X82.0Y-134.68
T3
X40.481Y-140.017
X40.481Y-147.637
X40.481Y-159.067
X40.481Y-166.688
X59.531Y-144.015
X59.531Y-151.635
X59.531Y-156.686
X59.531Y-164.306
X78.581Y-120.968
X78.581Y-128.588
X78.581Y-140.017
X78.581Y-147.637
X97.631Y-123.349
X97.631Y-130.969
X97.631Y-142.399
X97.631Y-150.019
X100.31Y-107.96
X100.31Y-110.5
X100.31Y-113.04
X100.31Y-115.58
X100.31Y-118.12
X100.31Y-120.66
X100.31Y-123.2
X100.31Y-125.74
X100.31Y-128.28
X100.31Y-130.82
X100.31Y-133.36
X100.31Y-135.9
X115.55Y-107.96
X115.55Y-110.5
X115.55Y-113.04
X115.55Y-115.58
X115.55Y-118.12
X115.55Y-120.66
X115.55Y-123.2
X115.55Y-125.74
X115.55Y-128.28
X115.55Y-130.82
X115.55Y-133.36
X115.55Y-135.9
X116.681Y-156.686
X116.681Y-164.306
X116.681Y-175.736
X116.681Y-183.356
T4
X84.856Y-107.156
X91.356Y-107.156
T2
G00X26.946Y-135.572
M15
G01X27.346Y-135.572
M16
G05
G00X26.946Y-154.623
M15
G01X27.346Y-154.623
M16
G05
G00X33.296Y-133.032
M15
G01X33.696Y-133.032
M16
G05
G00X33.296Y-152.082
M15
G01X33.696Y-152.082
M16
G05
G00X45.996Y-133.191
M15
G01X46.396Y-133.191
M16
G05
G00X45.996Y-152.241
M15
G01X46.396Y-152.241
M16
G05
G00X52.346Y-130.651
M15
G01X52.746Y-130.651
M16
G05
G00X52.346Y-149.701
M15
G01X52.746Y-149.701
M16
G05
G00X65.046Y-116.522
M15
G01X65.446Y-116.522
M16
G05
G00X65.046Y-135.572
M15
G01X65.446Y-135.572
M16
G05
G00X71.396Y-113.983
M15
G01X71.796Y-113.983
M16
G05
G00X71.396Y-133.032
M15
G01X71.796Y-133.032
M16
G05
G00X84.096Y-118.904
M15
G01X84.496Y-118.904
M16
G05
G00X84.096Y-137.954
M15
G01X84.496Y-137.954
M16
G05
G00X90.446Y-116.364
M15
G01X90.846Y-116.364
M16
G05
G00X90.446Y-135.414
M15
G01X90.846Y-135.414
M16
G05
G00X103.146Y-152.241
M15
G01X103.546Y-152.241
M16
G05
G00X103.146Y-171.291
M15
G01X103.546Y-171.291
M16
G05
G00X109.496Y-149.701
M15
G01X109.896Y-149.701
M16
G05
G00X109.496Y-168.751
M15
G01X109.896Y-168.751
M16
G05
T0
M30
