G04 #@! TF.GenerationSoftware,KiCad,Pcbnew,7.0.9*
G04 #@! TF.CreationDate,2023-11-17T20:11:09+09:00*
G04 #@! TF.ProjectId,Assemble,41737365-6d62-46c6-952e-6b696361645f,rev?*
G04 #@! TF.SameCoordinates,Original*
G04 #@! TF.FileFunction,Copper,L1,Top*
G04 #@! TF.FilePolarity,Positive*
%FSLAX46Y46*%
G04 Gerber Fmt 4.6, Leading zero omitted, Abs format (unit mm)*
G04 Created by KiCad (PCBNEW 7.0.9) date 2023-11-17 20:11:09*
%MOMM*%
%LPD*%
G01*
G04 APERTURE LIST*
G04 #@! TA.AperFunction,ComponentPad*
%ADD10C,2.000000*%
G04 #@! TD*
G04 #@! TA.AperFunction,ComponentPad*
%ADD11R,1.397000X1.397000*%
G04 #@! TD*
G04 #@! TA.AperFunction,ComponentPad*
%ADD12C,1.397000*%
G04 #@! TD*
G04 #@! TA.AperFunction,ComponentPad*
%ADD13O,2.500000X2.000000*%
G04 #@! TD*
G04 #@! TA.AperFunction,ComponentPad*
%ADD14C,1.524000*%
G04 #@! TD*
G04 #@! TA.AperFunction,ViaPad*
%ADD15C,0.800000*%
G04 #@! TD*
G04 #@! TA.AperFunction,Conductor*
%ADD16C,0.500000*%
G04 #@! TD*
G04 APERTURE END LIST*
D10*
X91356250Y-107156250D03*
X84856250Y-107156250D03*
D11*
X78581250Y-128587500D03*
D12*
X78581250Y-120967500D03*
D11*
X59531250Y-164306250D03*
D12*
X59531250Y-156686250D03*
D13*
X27146250Y-135572500D03*
X33496250Y-133032500D03*
D11*
X97631250Y-150018750D03*
D12*
X97631250Y-142398750D03*
D11*
X40481250Y-147637500D03*
D12*
X40481250Y-140017500D03*
D13*
X65246250Y-135572500D03*
X71596250Y-133032500D03*
D11*
X116681250Y-164306250D03*
D12*
X116681250Y-156686250D03*
D11*
X116681250Y-183356250D03*
D12*
X116681250Y-175736250D03*
D13*
X46196250Y-133191250D03*
X52546250Y-130651250D03*
X27146250Y-154622500D03*
X33496250Y-152082500D03*
X84296250Y-118903750D03*
X90646250Y-116363750D03*
X103346250Y-152241250D03*
X109696250Y-149701250D03*
X46196250Y-152241250D03*
X52546250Y-149701250D03*
X84296250Y-137953750D03*
X90646250Y-135413750D03*
D11*
X59531250Y-151635000D03*
D12*
X59531250Y-144015000D03*
D11*
X97631250Y-130968750D03*
D12*
X97631250Y-123348750D03*
D11*
X40481250Y-166687500D03*
D12*
X40481250Y-159067500D03*
D11*
X78581250Y-147637500D03*
D12*
X78581250Y-140017500D03*
D13*
X103346250Y-171291250D03*
X109696250Y-168751250D03*
X65246250Y-116522500D03*
X71596250Y-113982500D03*
D14*
X115550000Y-107960000D03*
X115550000Y-110500000D03*
X115550000Y-113040000D03*
X115550000Y-115580000D03*
X115550000Y-118120000D03*
X115550000Y-120660000D03*
X115550000Y-123200000D03*
X115550000Y-125740000D03*
X115550000Y-128280000D03*
X115550000Y-130820000D03*
X115550000Y-133360000D03*
X115550000Y-135900000D03*
X100310000Y-135900000D03*
X100310000Y-133360000D03*
X100310000Y-130820000D03*
X100310000Y-128280000D03*
X100310000Y-125740000D03*
X100310000Y-123200000D03*
X100310000Y-120660000D03*
X100310000Y-118120000D03*
X100310000Y-115580000D03*
X100310000Y-113040000D03*
X100310000Y-110500000D03*
X100310000Y-107960000D03*
D15*
X82000000Y-131040000D03*
X82000000Y-134680000D03*
X38620000Y-156530000D03*
X58500000Y-121210000D03*
X74280000Y-124599500D03*
X74140000Y-121070000D03*
X58500000Y-125750000D03*
X79440000Y-113970000D03*
X33960000Y-140060000D03*
X38570000Y-161170000D03*
X77425500Y-113970545D03*
X33900000Y-142189500D03*
X36580000Y-146450000D03*
X23410000Y-159970000D03*
X27010000Y-160000000D03*
X36580000Y-143800000D03*
X25090000Y-146760000D03*
X25035562Y-144265562D03*
X40820000Y-152240000D03*
X43809500Y-152240000D03*
X56160000Y-140500000D03*
X43120000Y-159510000D03*
X45580000Y-157080000D03*
X43120000Y-159510000D03*
X56200000Y-143110000D03*
X66110000Y-142770000D03*
X63490000Y-142830000D03*
X62589067Y-134710442D03*
X60600000Y-134130000D03*
X68060000Y-128390000D03*
X64910000Y-128430000D03*
D16*
X40481250Y-140017500D02*
X33496250Y-133032500D01*
X72180000Y-135160000D02*
X72090000Y-135070000D01*
X68937500Y-128587500D02*
X78581250Y-128587500D01*
X47050000Y-156410000D02*
X46112082Y-156410000D01*
X68910000Y-134800000D02*
X68910000Y-128560000D01*
X82071250Y-130968750D02*
X97631250Y-130968750D01*
X39970000Y-152592082D02*
X39970000Y-148148750D01*
X82000000Y-131040000D02*
X82071250Y-130968750D01*
X43857918Y-156480000D02*
X39970000Y-152592082D01*
X72270000Y-141140000D02*
X72180000Y-141050000D01*
X52156890Y-147380000D02*
X48390000Y-151146890D01*
X54460000Y-147380000D02*
X52156890Y-147380000D01*
X46112082Y-156410000D02*
X45932082Y-156230000D01*
X45227918Y-156230000D02*
X44977918Y-156480000D01*
X68910000Y-128560000D02*
X68937500Y-128587500D01*
X78581250Y-128587500D02*
X78581250Y-134561250D01*
X72180000Y-141050000D02*
X72180000Y-135160000D01*
X78700000Y-134680000D02*
X82000000Y-134680000D01*
X76820000Y-141190000D02*
X76770000Y-141140000D01*
X59531250Y-151635000D02*
X76655000Y-151635000D01*
X59531250Y-151635000D02*
X58715000Y-151635000D01*
X58715000Y-151635000D02*
X54460000Y-147380000D01*
X48390000Y-151146890D02*
X48390000Y-152640000D01*
X76655000Y-151635000D02*
X76820000Y-151470000D01*
X69020000Y-135070000D02*
X68830000Y-134880000D01*
X72090000Y-135070000D02*
X69020000Y-135070000D01*
X45932082Y-156230000D02*
X45227918Y-156230000D01*
X76770000Y-141140000D02*
X72270000Y-141140000D01*
X76820000Y-151470000D02*
X76820000Y-141190000D01*
X68830000Y-134880000D02*
X68910000Y-134800000D01*
X44977918Y-156480000D02*
X43857918Y-156480000D01*
X47050000Y-153980000D02*
X47050000Y-156410000D01*
X39970000Y-148148750D02*
X40481250Y-147637500D01*
X78581250Y-134561250D02*
X78700000Y-134680000D01*
X48390000Y-152640000D02*
X47050000Y-153980000D01*
X37782500Y-152082500D02*
X40481250Y-154781250D01*
X40481250Y-154781250D02*
X40481250Y-159067500D01*
X33496250Y-152082500D02*
X37782500Y-152082500D01*
X118430000Y-143100000D02*
X118430000Y-181530000D01*
X59540000Y-166700000D02*
X59527500Y-166687500D01*
X118430000Y-181530000D02*
X116681250Y-183278750D01*
X59531250Y-164306250D02*
X59531250Y-166683750D01*
X97646250Y-183356250D02*
X116681250Y-183356250D01*
X118330000Y-143200000D02*
X118430000Y-143100000D01*
X65473750Y-164306250D02*
X59531250Y-164306250D01*
X86281250Y-150018750D02*
X97631250Y-150018750D01*
X97631250Y-173922303D02*
X97610000Y-173943553D01*
X78581250Y-147637500D02*
X78581250Y-151198750D01*
X78581250Y-151198750D02*
X65473750Y-164306250D01*
X59527500Y-166687500D02*
X40481250Y-166687500D01*
X97610000Y-183320000D02*
X97646250Y-183356250D01*
X83817500Y-147637500D02*
X86240000Y-150060000D01*
X97631250Y-150018750D02*
X97631250Y-173922303D01*
X116681250Y-183278750D02*
X116681250Y-183356250D01*
X97610000Y-173943553D02*
X97610000Y-183320000D01*
X78581250Y-147637500D02*
X83817500Y-147637500D01*
X111010000Y-130280000D02*
X111010000Y-143200000D01*
X59531250Y-166683750D02*
X59527500Y-166687500D01*
X111010000Y-143200000D02*
X118330000Y-143200000D01*
X115550000Y-125740000D02*
X111010000Y-130280000D01*
X86240000Y-150060000D02*
X86281250Y-150018750D01*
X52546250Y-130651250D02*
X56832500Y-130651250D01*
X59531250Y-133350000D02*
X59531250Y-144015000D01*
X56832500Y-130651250D02*
X59531250Y-133350000D01*
X54451250Y-149701250D02*
X52546250Y-149701250D01*
X59531250Y-154781250D02*
X54451250Y-149701250D01*
X59531250Y-156686250D02*
X59531250Y-154781250D01*
X78581250Y-120967500D02*
X71596250Y-113982500D01*
X73501250Y-133032500D02*
X78581250Y-138112500D01*
X71596250Y-133032500D02*
X73501250Y-133032500D01*
X78581250Y-138112500D02*
X78581250Y-140017500D01*
X94932500Y-116363750D02*
X90646250Y-116363750D01*
X97631250Y-119062500D02*
X94932500Y-116363750D01*
X97631250Y-123348750D02*
X97631250Y-119062500D01*
X97631250Y-140493750D02*
X92551250Y-135413750D01*
X92551250Y-135413750D02*
X90646250Y-135413750D01*
X97631250Y-142398750D02*
X97631250Y-140493750D01*
X116681250Y-156686250D02*
X109696250Y-149701250D01*
X109696250Y-168751250D02*
X116681250Y-175736250D01*
X74280000Y-121210000D02*
X74140000Y-121070000D01*
X79440000Y-113970000D02*
X77426045Y-113970000D01*
X38620000Y-161120000D02*
X38570000Y-161170000D01*
X58500000Y-125750000D02*
X58500000Y-121210000D01*
X33960000Y-142129500D02*
X33900000Y-142189500D01*
X100310000Y-115580000D02*
X100310000Y-116383750D01*
X77426045Y-113970000D02*
X77425500Y-113970545D01*
X38620000Y-156530000D02*
X38620000Y-161120000D01*
X33960000Y-140060000D02*
X33960000Y-142129500D01*
X74280000Y-124599500D02*
X74280000Y-121210000D01*
X36580000Y-143800000D02*
X36580000Y-146450000D01*
X36640000Y-146510000D02*
X36580000Y-146450000D01*
X23440000Y-160000000D02*
X23410000Y-159970000D01*
X27010000Y-160000000D02*
X23440000Y-160000000D01*
X25035562Y-144265562D02*
X25035562Y-146705562D01*
X25035562Y-146705562D02*
X25090000Y-146760000D01*
X43809500Y-152240000D02*
X40820000Y-152240000D01*
X56200000Y-140540000D02*
X56160000Y-140500000D01*
X43120000Y-159510000D02*
X43150000Y-159510000D01*
X56200000Y-143110000D02*
X56200000Y-140540000D01*
X43150000Y-159510000D02*
X45580000Y-157080000D01*
X66050000Y-142830000D02*
X66110000Y-142770000D01*
X63490000Y-142830000D02*
X66050000Y-142830000D01*
X64950000Y-128390000D02*
X68060000Y-128390000D01*
X64910000Y-128430000D02*
X64950000Y-128390000D01*
X62008625Y-134130000D02*
X62589067Y-134710442D01*
X60600000Y-134130000D02*
X62008625Y-134130000D01*
X27146250Y-122872500D02*
X45278750Y-104740000D01*
X45278750Y-104740000D02*
X104775000Y-104740000D01*
X104775000Y-113655000D02*
X100310000Y-118120000D01*
X27146250Y-135572500D02*
X27146250Y-122872500D01*
X25396250Y-135572500D02*
X23240000Y-137728750D01*
X27146250Y-135572500D02*
X25396250Y-135572500D01*
X23240000Y-137728750D02*
X23240000Y-150716250D01*
X23240000Y-150716250D02*
X27146250Y-154622500D01*
X104775000Y-104740000D02*
X104775000Y-113655000D01*
X46196250Y-151606250D02*
X46196250Y-152241250D01*
X46196250Y-133191250D02*
X44218750Y-133191250D01*
X99031250Y-116771300D02*
X91969949Y-109710000D01*
X44218750Y-133191250D02*
X42190000Y-135220000D01*
X91969949Y-109710000D02*
X62090000Y-109710000D01*
X62090000Y-109710000D02*
X46196250Y-125603750D01*
X42190000Y-147600000D02*
X46196250Y-151606250D01*
X100310000Y-120660000D02*
X99031250Y-119381250D01*
X46196250Y-125603750D02*
X46196250Y-133191250D01*
X42190000Y-135220000D02*
X42190000Y-147600000D01*
X99031250Y-119381250D02*
X99031250Y-116771300D01*
X97240000Y-113040000D02*
X100310000Y-113040000D01*
X91356250Y-107156250D02*
X97240000Y-113040000D01*
X98331250Y-117061250D02*
X91680000Y-110410000D01*
X98331250Y-121221250D02*
X98331250Y-117061250D01*
X64652500Y-135572500D02*
X65246250Y-135572500D01*
X65246250Y-116522500D02*
X62707500Y-116522500D01*
X60780000Y-118450000D02*
X60780000Y-131700000D01*
X70010000Y-110410000D02*
X65246250Y-115173750D01*
X100310000Y-123200000D02*
X98331250Y-121221250D01*
X62707500Y-116522500D02*
X60780000Y-118450000D01*
X60780000Y-131700000D02*
X64652500Y-135572500D01*
X91680000Y-110410000D02*
X70010000Y-110410000D01*
X100280000Y-123200000D02*
X100150000Y-123330000D01*
X65246250Y-115173750D02*
X65246250Y-116522500D01*
X81010000Y-132340000D02*
X84296250Y-135626250D01*
X98280000Y-127440000D02*
X98610000Y-127440000D01*
X94642550Y-124712550D02*
X97420000Y-127490000D01*
X81010000Y-120440000D02*
X81010000Y-132340000D01*
X97420000Y-127490000D02*
X98230000Y-127490000D01*
X84296250Y-135626250D02*
X84296250Y-137953750D01*
X82546250Y-118903750D02*
X81010000Y-120440000D01*
X98230000Y-127490000D02*
X98280000Y-127440000D01*
X84296250Y-118903750D02*
X82546250Y-118903750D01*
X84296250Y-118903750D02*
X92696860Y-118903750D01*
X98610000Y-127440000D02*
X100310000Y-125740000D01*
X94642550Y-120849440D02*
X94642550Y-124712550D01*
X92696860Y-118903750D02*
X94642550Y-120849440D01*
X100310000Y-128280000D02*
X103346250Y-131316250D01*
X101123750Y-169068750D02*
X103346250Y-171291250D01*
X100171250Y-152241250D02*
X100012500Y-152400000D01*
X100012500Y-152400000D02*
X100012500Y-169068750D01*
X103346250Y-131316250D02*
X103346250Y-152241250D01*
X103346250Y-152241250D02*
X100171250Y-152241250D01*
X100012500Y-169068750D02*
X101123750Y-169068750D01*
M02*
