M48
; DRILL file {KiCad 7.0.9} date Fri Nov 17 20:13:06 2023
; FORMAT={-:-/ absolute / metric / decimal}
; #@! TF.CreationDate,2023-11-17T20:13:06+09:00
; #@! TF.GenerationSoftware,Kicad,Pcbnew,7.0.9
; #@! TF.FileFunction,NonPlated,1,2,NPTH
FMAT,2
METRIC
; #@! TA.AperFunction,NonPlated,NPTH,ComponentDrill
T1C1.900
; #@! TA.AperFunction,NonPlated,NPTH,ComponentDrill
T2C4.000
%
G90
G05
T1
X25.876Y-138.112
X25.876Y-157.162
X36.036Y-138.112
X36.036Y-157.162
X44.926Y-135.731
X44.926Y-154.781
X55.086Y-135.731
X55.086Y-154.781
X63.976Y-119.062
X63.976Y-138.112
X74.136Y-119.062
X74.136Y-138.112
X83.026Y-121.444
X83.026Y-140.494
X93.186Y-121.444
X93.186Y-140.494
X102.076Y-154.781
X102.076Y-173.831
X112.236Y-154.781
X112.236Y-173.831
T2
X30.956Y-138.112
X30.956Y-157.162
X50.006Y-135.731
X50.006Y-154.781
X69.056Y-119.062
X69.056Y-138.112
X88.106Y-121.444
X88.106Y-140.494
X107.156Y-154.781
X107.156Y-173.831
T0
M30
